<svg width="688" height="299" viewBox="0 0 688 299" fill="none" xmlns="http://www.w3.org/2000/svg">
<g clip-path="url(#clip0_318_1253)">
<path d="M431.48 -57.7512C316.832 -57.7512 224.105 34.975 224.105 149.624C224.105 305.155 431.48 534.749 431.48 534.749C431.48 534.749 638.855 305.155 638.855 149.624C638.855 34.975 546.129 -57.7512 431.48 -57.7512ZM431.48 223.686C411.838 223.686 393 215.883 379.11 201.994C365.221 188.104 357.418 169.266 357.418 149.624C357.418 129.981 365.221 111.143 379.11 97.2537C393 83.3643 411.838 75.5613 431.48 75.5613C451.123 75.5613 469.961 83.3643 483.851 97.2537C497.74 111.143 505.543 129.981 505.543 149.624C505.543 169.266 497.74 188.104 483.851 201.994C469.961 215.883 451.123 223.686 431.48 223.686Z" fill="#3FB7C5"/>
<path d="M111.993 71.6663C75.8735 71.6663 46.6602 100.88 46.6602 137C46.6602 186 111.993 258.333 111.993 258.333C111.993 258.333 177.327 186 177.327 137C177.327 100.88 148.113 71.6663 111.993 71.6663ZM111.993 160.333C105.805 160.333 99.8702 157.875 95.4943 153.499C91.1185 149.123 88.6602 143.188 88.6602 137C88.6602 130.811 91.1185 124.876 95.4943 120.5C99.8702 116.125 105.805 113.666 111.993 113.666C118.182 113.666 124.117 116.125 128.493 120.5C132.868 124.876 135.327 130.811 135.327 137C135.327 143.188 132.868 149.123 128.493 153.499C124.117 157.875 118.182 160.333 111.993 160.333Z" fill="#3FB7C5"/>
</g>
<defs>
<clipPath id="clip0_318_1253">
<rect width="688" height="299" fill="white"/>
</clipPath>
</defs>
</svg>
