<svg width="330" height="200" viewBox="0 0 330 200" fill="none" xmlns="http://www.w3.org/2000/svg">
<g clip-path="url(#clip0_409_6353)">
<path d="M221.444 16.2551C162.605 16.2551 115.016 64.0138 115.016 123.064C115.016 203.17 221.444 321.422 221.444 321.422C221.444 321.422 327.873 203.17 327.873 123.064C327.873 64.0138 280.284 16.2551 221.444 16.2551ZM221.444 161.21C211.364 161.21 201.695 157.191 194.567 150.037C187.439 142.883 183.434 133.181 183.434 123.064C183.434 112.947 187.439 103.244 194.567 96.0904C201.695 88.9367 211.364 84.9178 221.444 84.9178C231.525 84.9178 241.194 88.9367 248.322 96.0904C255.45 103.244 259.455 112.947 259.455 123.064C259.455 133.181 255.45 142.883 248.322 150.037C241.194 157.191 231.525 161.21 221.444 161.21Z" fill="#3FB7C5"/>
<path d="M57.4756 82.9116C38.9382 82.9116 23.9453 97.958 23.9453 116.562C23.9453 141.799 57.4756 179.054 57.4756 179.054C57.4756 179.054 91.006 141.799 91.006 116.562C91.006 97.958 76.0131 82.9116 57.4756 82.9116ZM57.4756 128.579C54.2996 128.579 51.2537 127.313 49.008 125.059C46.7622 122.806 45.5005 119.749 45.5005 116.562C45.5005 113.374 46.7622 110.317 49.008 108.064C51.2537 105.81 54.2996 104.544 57.4756 104.544C60.6516 104.544 63.6976 105.81 65.9433 108.064C68.1891 110.317 69.4508 113.374 69.4508 116.562C69.4508 119.749 68.1891 122.806 65.9433 125.059C63.6976 127.313 60.6516 128.579 57.4756 128.579Z" fill="#3FB7C5"/>
</g>
<defs>
<clipPath id="clip0_409_6353">
<rect width="330" height="200" fill="white"/>
</clipPath>
</defs>
</svg>
