<svg width="431" height="451" viewBox="0 0 431 451" fill="none" xmlns="http://www.w3.org/2000/svg">
<g clip-path="url(#clip0_357_1369)">
<path d="M406.688 276.836C406.688 383.203 248.975 469.3 242.259 472.855C240.489 473.808 238.51 474.306 236.5 474.306C234.49 474.306 232.511 473.808 230.741 472.855C224.025 469.3 66.3125 383.203 66.3125 276.836C66.3407 251.858 76.2755 227.912 93.9373 210.25C111.599 192.588 135.546 182.653 160.523 182.625C191.902 182.625 219.375 196.118 236.5 218.927C253.625 196.118 281.098 182.625 312.477 182.625C337.454 182.653 361.401 192.588 379.063 210.25C396.725 227.912 406.659 251.858 406.688 276.836Z" fill="#3FB7C5"/>
<path d="M187 67.5913C187 105.517 130.935 136.215 128.547 137.483C127.918 137.822 127.215 138 126.5 138C125.785 138 125.082 137.822 124.453 137.483C122.065 136.215 66 105.517 66 67.5913C66.01 58.6854 69.5417 50.1471 75.8204 43.8497C82.099 37.5523 90.6118 34.01 99.4911 34C110.646 34 120.412 38.8111 126.5 46.9435C132.588 38.8111 142.354 34 153.509 34C162.388 34.01 170.901 37.5523 177.18 43.8497C183.458 50.1471 186.99 58.6854 187 67.5913Z" fill="#3FB7C5"/>
</g>
<defs>
<clipPath id="clip0_357_1369">
<rect width="431" height="451" rx="20" fill="white"/>
</clipPath>
</defs>
</svg>
