<svg xmlns="http://www.w3.org/2000/svg" width="241" height="144" viewBox="0 0 241 144" fill="none">
  <path d="M172.501 116.95H69.6008V14.05H172.501V116.95ZM173.551 13H68.5508V118H173.551V13Z" fill="white"/>
  <path d="M93.7313 87.5918L89.0273 100.15H93.2273L93.7733 98.4908H98.1203L98.6663 100.15H102.866L98.1833 87.5918H93.7313ZM94.7393 95.4878L95.6213 92.8208C95.7473 92.3588 95.8733 91.8548 95.9573 91.2038C96.0413 91.8548 96.1673 92.3588 96.3143 92.8208L97.1963 95.4878H94.7393Z" fill="white"/>
  <path d="M107.908 87.5918H103.75V100.15H113.263V96.5168H107.908V87.5918Z" fill="white"/>
  <path d="M119.832 87.5918H114.414V100.15H119.832C124.326 100.15 126.342 97.5458 126.342 93.8708C126.363 90.1958 124.347 87.5918 119.832 87.5918ZM119.727 96.6638H118.551V91.0568H119.727C121.197 91.0568 122.1 91.8128 122.1 93.8498C122.1 95.9078 121.197 96.6638 119.727 96.6638Z" fill="white"/>
  <path d="M130.792 87.5918L126.109 100.15H130.309L130.855 98.4908H135.202L135.748 100.15H139.948L135.265 87.5918H130.792ZM131.8 95.4878L132.682 92.8208C132.808 92.3588 132.934 91.8548 133.018 91.2038C133.102 91.8548 133.228 92.3588 133.375 92.8208L134.257 95.4878H131.8Z" fill="white"/>
  <path d="M149.842 95.7608C151.102 95.1308 152.005 93.9758 152.005 92.0228C152.005 88.5998 149.338 87.5918 146.65 87.5918H140.812V100.15H144.95V96.4328H145.915L148.499 100.15H153.055L149.842 95.7608ZM146.566 93.3248H144.97V90.9728H146.566C147.364 90.9728 147.847 91.4558 147.847 92.1488C147.847 92.8418 147.385 93.3248 146.566 93.3248Z" fill="white"/>
  <path d="M152.742 29.7998H140.016V53.1308H152.742V29.7998Z" fill="white"/>
  <path d="M144.651 71.359C144.651 73.417 142.887 73.396 141.69 73.396H135.789V83.728H152.715V63.715C152.715 63.715 150.342 58.864 144.567 54.979L137.028 62.434C137.049 62.392 144.651 66.34 144.651 71.359Z" fill="white"/>
  <path d="M106.535 46.7471C106.535 39.9851 110.882 35.1761 110.882 35.1761L119.555 40.0271C115.418 45.2351 116.3 50.6321 121.109 50.6321C125.918 50.6321 125.771 46.2431 125.771 45.7181V29.7791H136.061V46.4741C136.061 53.6771 130.244 61.1951 121.235 61.1951C113.129 61.2161 106.535 54.6431 106.535 46.7471Z" fill="white"/>
  <path d="M106.874 56.7642H102.443V61.7202C102.443 73.0182 96.2269 74.0052 92.6359 73.9632H89.2969V83.7492H105.887C111.62 79.6752 114.665 72.8082 115.085 63.0222C111.767 61.7832 108.932 59.5782 106.874 56.7642Z" fill="white"/>
  <path d="M121.237 64.0929C120.523 64.0929 119.83 64.0509 119.137 63.9669V83.7069H131.842V60.5859C128.881 62.7909 125.206 64.0929 121.237 64.0929Z" fill="white"/>
</svg>
