<svg width="138" height="80" viewBox="0 0 138 80" fill="none" xmlns="http://www.w3.org/2000/svg">
<path d="M77.7394 52.1624C72.23 54.102 67.0564 57.2944 62.6547 61.7408C58.2524 66.1878 55.092 71.4133 53.1719 76.9785C58.6812 75.0389 63.8548 71.847 68.2571 67.4001C72.6589 62.9537 75.8192 57.7276 77.7394 52.1624Z" fill="white"/>
<path d="M11.7026 10.2779C7.2642 14.7613 4.09085 20.0382 2.17578 25.6553C7.73648 23.7208 12.9598 20.5152 17.3987 16.0318C21.8371 11.5478 25.0105 6.27158 26.9255 0.65448C21.3648 2.58897 16.141 5.79451 11.7026 10.2779Z" fill="white"/>
<path d="M0.671511 31.4444C-1.47885 43.1682 1.53595 55.6604 9.70687 65.2114C11.8572 53.4882 8.84243 40.9961 0.671511 31.4444Z" fill="white"/>
<path d="M47.3109 78.5434C37.8388 70.2178 25.418 67.1433 13.7656 69.328C23.2377 77.6537 35.6586 80.7281 47.3109 78.5434Z" fill="white"/>
<path d="M37.5826 41.2845C32.0732 43.2241 26.8996 46.4165 22.4979 50.8629C18.0956 55.3098 14.9358 60.5354 13.0156 66.1006C18.525 64.161 23.698 60.9691 28.1003 56.5222C32.502 52.0758 35.6624 46.8497 37.5826 41.2845Z" fill="white"/>
<path d="M49.1695 58.1131C47.5586 52.0389 44.6583 46.6612 40.8468 42.1988C39.755 47.9886 39.9051 54.1102 41.5166 60.1844C43.1281 66.2586 46.0278 71.6363 49.8393 76.0986C50.9311 70.3094 50.781 64.1873 49.1695 58.1131Z" fill="white"/>
<path d="M20.9612 29.6169C14.948 27.989 8.88735 27.8374 3.15625 28.9403C7.57377 32.7905 12.8975 35.7196 18.9107 37.3474C24.9239 38.9753 30.984 39.1269 36.7157 38.024C32.2981 34.1738 26.9744 31.2447 20.9612 29.6169Z" fill="white"/>
<path d="M11.5859 25.1284C11.753 25.1341 11.8556 25.1375 11.9561 25.1409C15.3912 25.2623 18.8112 25.769 22.1228 26.7254C25.6223 27.7001 29.0016 29.1324 32.1061 31.0122C28.6235 24.5225 26.8139 17.3043 26.7942 9.98699C23.1091 16.2293 17.8384 21.4133 11.5859 25.1284Z" fill="white"/>
<path d="M13.759 56.7565C15.551 53.7938 17.6681 51.0328 20.1186 48.5893C22.6786 45.9891 25.5733 43.7189 28.7201 41.9109C21.4125 41.7873 14.2995 39.834 7.98047 36.2574C11.5527 42.5658 13.434 49.7492 13.566 57.0757C13.6529 56.9315 13.7065 56.8431 13.759 56.7565Z" fill="white"/>
<path d="M36.9896 50.2678C35.1992 53.446 32.9524 56.3705 30.3783 58.9559C27.9588 61.4319 25.2261 63.5704 22.2931 65.3807C22.2073 65.4331 22.1199 65.4872 21.9766 65.575C29.2294 65.709 36.3413 67.6093 42.5864 71.2178C39.0457 64.8346 37.112 57.649 36.9896 50.2678Z" fill="white"/>
<path d="M53.6952 67.3038C53.6985 67.4053 53.7025 67.509 53.7076 67.6777C57.3859 61.3618 62.5172 56.0377 68.6969 52.3152C61.4536 52.2953 54.3074 50.4674 47.8828 46.9489C49.7437 50.0855 51.1617 53.499 52.1271 57.034C53.0734 60.3792 53.575 63.8338 53.6952 67.3038Z" fill="white"/>
<path d="M48.1723 27.3551C48.1723 25.094 50.0377 23.5978 53.391 23.5978C55.613 23.5978 57.3814 23.9757 58.6876 24.3542V26.132C58.6876 29.0365 55.9871 31.0235 52.6501 31.0235C50.2289 31.0235 48.1723 29.7046 48.1723 27.4435V27.3551ZM52.1728 33.1797C55.3343 33.1797 57.3899 31.7553 58.6797 30.0745V31.7553C58.6797 32.4233 59.1594 32.9865 59.9781 32.9865C60.7189 32.9865 61.2764 32.4233 61.2764 31.667V21.7135C61.2764 19.3738 60.6304 17.596 59.4206 16.3734C58.0438 15.0534 56.1491 14.3215 53.5738 14.3215C51.257 14.3215 49.4802 14.7883 47.7124 15.6165C47.3462 15.7214 46.9715 16.1802 46.9715 16.7428C46.9715 17.3224 47.5296 17.8776 48.1723 17.8776C48.2778 17.8776 48.4611 17.8696 48.6445 17.7813C49.9508 17.1395 51.5183 16.7513 53.2962 16.7513C56.6563 16.7513 58.6797 18.4407 58.6797 21.7232V22.3747C57.0942 21.9084 55.4297 21.5465 53.1128 21.5465C48.5565 21.5465 45.4023 23.6058 45.4023 27.4514V27.5398C45.4023 31.2885 48.8273 33.1797 52.1728 33.1797Z" fill="white"/>
<path d="M65.346 33.1797C66.0947 33.1797 66.6533 32.6086 66.6533 31.7798V8.49637C66.6533 7.74856 66.0868 7.09708 65.3381 7.09708C64.5972 7.09708 64.0312 7.74856 64.0312 8.49637V31.7798C64.0312 32.6086 64.5972 33.1797 65.346 33.1797Z" fill="white"/>
<path d="M78.032 16.3974C81.5766 16.3974 83.5114 19.3019 83.7907 22.5924H72.1773C72.4735 19.1002 74.8784 16.3974 78.032 16.3974ZM78.4145 33.1797C81.4807 33.1797 83.5193 32.062 85.2002 30.3805C85.4795 30.1788 85.6544 29.8174 85.6544 29.5273C85.6544 28.8758 85.1054 28.393 84.4514 28.393C84.1648 28.393 83.8934 28.4979 83.7027 28.6826C82.3964 29.9058 80.7319 30.759 78.502 30.759C75.2609 30.759 72.5519 28.5863 72.1773 24.6437H85.1917C85.8457 24.6437 86.4822 24.0886 86.4822 23.3408C86.4822 18.5456 83.4239 14.1368 78.05 14.1368C73.11 14.1368 69.4062 18.3603 69.4062 23.6144V23.7021C69.4062 29.3341 73.4841 33.1797 78.4145 33.1797Z" fill="white"/>
<path d="M88.657 30.8474C90.6093 32.327 93.136 33.1797 95.5408 33.1797C99.2282 33.1797 102.024 31.2002 102.024 27.733V27.6447C102.024 24.3616 99.0448 23.2439 96.2574 22.3986C93.8441 21.7226 91.6193 20.9914 91.6193 19.2934V19.2051C91.6193 17.7003 92.9283 16.5741 94.9918 16.5741C96.6321 16.5741 98.2966 17.1286 99.7936 17.9819C99.9691 18.0702 100.16 18.1586 100.36 18.1586C101.084 18.1586 101.49 17.604 101.49 16.9519C101.49 16.4692 101.275 16.0212 100.909 15.8257C99.0775 14.8846 97.022 14.313 95.1504 14.313C91.6193 14.313 89.0232 16.3808 89.0232 19.4866V19.575C89.0232 22.9458 92.1717 23.8954 94.9675 24.7321C97.3724 25.3921 99.4353 26.1274 99.4353 27.9262V28.0146C99.4353 29.7889 97.9299 30.8474 95.7157 30.8474C93.8357 30.8474 91.8224 30.1873 89.9717 28.9562C89.8599 28.7789 89.5891 28.7624 89.3188 28.7624C88.6654 28.7624 88.1875 29.2457 88.1875 29.8972C88.1875 30.364 88.3872 30.7339 88.657 30.8474Z" fill="white"/>
<path d="M120.224 29.4214C120.224 28.7704 119.667 28.1275 118.943 28.1275C118.577 28.1275 118.377 28.3122 118.193 28.4969C116.887 29.8004 115.223 30.7414 113.176 30.7414C109.448 30.7414 106.502 27.5638 106.502 23.6219V23.6053C106.502 19.6714 109.29 16.4955 112.993 16.4955C115.207 16.4955 116.689 17.5152 117.986 18.7303C118.177 18.915 118.393 19.0199 118.759 19.0199C119.492 19.0199 120.057 18.4562 120.057 17.7084C120.057 17.3219 119.866 16.952 119.675 16.7668C118.018 15.2706 115.98 14.1358 113.001 14.1358C107.784 14.1358 103.723 18.5354 103.723 23.6219V23.7102C103.723 28.8588 107.784 33.1792 113.001 33.1792C116.131 33.1792 118.177 31.9646 119.858 30.2649C120.05 30.0016 120.224 29.7115 120.224 29.4214Z" fill="white"/>
<path d="M124.697 27.3551C124.697 25.094 126.561 23.5978 129.914 23.5978C132.136 23.5978 133.975 23.9757 135.282 24.3542V26.132C135.282 29.0365 132.511 31.0235 129.174 31.0235C126.752 31.0235 124.697 29.7046 124.697 27.4435V27.3551ZM128.625 33.1797C131.929 33.1797 133.984 31.7553 135.274 30.0745V31.7553C135.274 32.4233 135.681 32.9865 136.43 32.9865C137.171 32.9865 137.728 32.4233 137.728 31.667V21.7135C137.728 19.3738 137.154 17.596 136.015 16.3734C134.566 15.0534 132.686 14.3215 130.097 14.3215C127.851 14.3215 126.004 14.7883 124.164 15.6165C123.799 15.7214 123.423 16.1802 123.423 16.7428C123.423 17.3224 124.124 17.8776 124.697 17.8776C124.872 17.8776 124.915 17.8696 125.238 17.7813C126.545 17.1395 128.042 16.7513 129.89 16.7513C133.243 16.7513 135.274 18.4407 135.274 21.7232V22.3747C133.618 21.9084 131.953 21.5465 129.707 21.5465C125.08 21.5465 121.926 23.6058 121.926 27.4514V27.5398C121.926 31.2885 125.279 33.1797 128.625 33.1797Z" fill="white"/>
</svg>
