<svg width="510" height="144" viewBox="0 0 510 144" fill="none" xmlns="http://www.w3.org/2000/svg">
<path d="M80.8429 35.5806C63.3825 37.9029 49.2328 44.9755 44.9611 53.4203C44.267 54.7398 44 56.5343 44 59.2789C44 65.3487 46.5096 69.3072 53.2908 73.7407C69.3628 84.2968 99.4245 86.6719 120.943 79.0715C148.602 69.3072 148.602 49.2507 120.943 39.4863C112.667 36.5306 105.725 35.4222 94.4587 35.2639C89.0124 35.1583 82.9253 35.3167 80.8429 35.5806ZM117.846 48.459C123.719 49.8312 128.578 52.6814 130.607 56.0065C132.102 58.4344 132.156 59.8067 130.768 62.4457C129.112 65.6126 123.986 68.621 117.579 70.2044C112.613 71.3656 101.774 71.3656 97.1285 70.1517C84.5805 66.9321 79.6682 60.1234 85.4883 54.1065C91.255 48.1951 105.618 45.7144 117.846 48.459Z" fill="white"/>
<path d="M177.703 35.3695C177.65 35.6334 177.703 39.6974 177.756 44.5004C177.863 52.3647 177.756 53.3148 176.849 54.1065C174.499 56.2177 170.762 56.4816 168.946 54.687C168.412 54.212 168.145 52.8925 168.145 51.0452C168.145 47.8256 166.917 46.9811 166.33 49.8313C165.155 55.6899 168.038 58.8567 173.592 57.9594C176.048 57.5372 179.358 54.7926 179.358 53.262C179.358 52.5758 179.572 52.4703 180.373 52.9453C181.921 53.737 184.805 53.5787 186.193 52.6814C187.207 51.9425 187.528 51.9425 189.076 52.7342C190.411 53.4203 191.426 53.5259 193.989 53.2092C197.833 52.7342 198.367 52.7342 202.639 53.2092C205.148 53.5259 206.323 53.4203 207.604 52.787C209.046 52.048 209.473 52.048 210.755 52.7342C212.891 53.8426 262.762 53.8426 264.951 52.7342C266.179 52.048 266.606 52.048 267.888 52.7342C269.703 53.6842 271.732 53.6842 273.121 52.7342C274.028 52.1008 274.295 52.1008 275.203 52.7342C276.538 53.6842 278.14 53.6842 279.635 52.6286C280.703 51.8897 280.916 51.8897 281.984 52.6286C283.96 54.0009 287.324 53.4203 288.445 51.5202C288.819 50.9396 289.139 50.9924 290.314 51.7841C291.115 52.3647 292.557 53.0509 293.518 53.3675C295.013 53.8953 295.387 53.8426 296.348 52.8925C297.309 51.9425 297.469 51.9425 298.59 52.6814C300.139 53.7898 302.862 53.6842 304.357 52.4703C305.585 51.5202 305.638 51.5202 307.027 52.5758C308.201 53.3675 309.002 53.5787 310.764 53.3148C314.502 52.8397 314.716 52.4175 314.876 43.1282C315.036 35.4222 314.983 34.8944 314.075 35.1056C313.167 35.2639 313.114 35.8445 313.327 42.442C313.488 48.6173 313.381 49.7257 312.58 50.4646C311.405 51.6786 308.789 51.573 307.507 50.3063C306.546 49.3562 306.439 48.5645 306.439 42.0726C306.439 35.5278 306.333 34.9472 305.532 35.1056C304.677 35.2639 304.571 35.95 304.731 42.2837C304.944 50.0952 304.517 51.3619 301.58 51.3619C299.712 51.3619 298.644 50.3063 297.789 47.6145C296.348 42.7587 292.503 42.8643 289.193 47.8256C286.897 51.2035 285.295 51.9425 283.212 50.623C282.198 49.9896 281.877 49.3035 281.877 47.9312C281.877 46.6644 281.61 46.0839 281.077 46.0839C280.543 46.0839 280.276 46.6117 280.276 47.8784C280.276 49.8313 279.154 51.3619 277.659 51.3619C276.218 51.3619 275.47 50.2535 275.47 48.0895C275.47 46.4533 275.256 46.0839 274.402 46.0839C273.494 46.0839 273.334 46.4533 273.334 48.1951C273.334 49.9896 273.121 50.4118 271.946 50.9396C269.81 51.9425 267.781 50.5702 267.567 48.0367C267.354 45.4505 265.859 45.2922 265.859 47.8784C265.859 51.4147 266.446 51.3619 238.253 51.3619C223.57 51.3619 212.517 51.1508 211.716 50.8341C210.595 50.4118 210.381 49.9896 210.221 47.8256C210.114 45.9783 209.847 45.2922 209.26 45.2922C208.672 45.2922 208.405 45.9783 208.299 47.6673C208.085 50.5174 207.177 51.3619 204.187 51.3619C201.464 51.3619 201.037 50.9924 202.051 49.5674C203.012 48.2478 203.066 45.6088 202.158 44.4477C200.022 41.7031 196.391 42.1781 195.003 45.3977C194.362 46.9811 194.362 47.4034 195.11 48.8284C196.178 50.9924 195.484 51.4674 191.96 51.2035C188.969 50.9396 188.435 50.3591 188.435 47.245C188.435 45.6088 188.222 45.0282 187.635 45.0282C187.047 45.0282 186.834 45.6088 186.834 47.1395C186.834 50.623 183.95 52.4175 180.907 50.8341C180.106 50.4118 179.892 49.6729 179.892 47.7728C179.892 41.2808 179.198 35 178.45 35C178.077 35 177.756 35.1583 177.703 35.3695ZM200.396 45.6616C201.571 47.2978 201.464 48.5645 200.182 49.2507C198.687 50.0424 197.246 49.5146 196.552 47.9312C196.018 46.8228 196.071 46.4533 196.979 45.5561C198.367 44.1838 199.382 44.2365 200.396 45.6616ZM295.44 47.245C296.454 48.6701 296.508 49.7785 295.6 51.0452C294.906 51.9425 294.799 51.9425 292.663 50.8869C290.1 49.6201 289.94 49.0396 291.595 47.2978C293.037 45.7672 294.372 45.7672 295.44 47.245Z" fill="white"/>
<path d="M375.962 36.2139C375.428 36.7945 375.481 37.1112 376.122 37.639C377.403 38.6946 378.525 37.4279 377.403 36.2667C376.656 35.5806 376.496 35.5806 375.962 36.2139Z" fill="white"/>
<path d="M372.861 36.6362C372.327 37.5334 373.555 38.5363 374.303 37.7973C374.943 37.164 374.516 36.0556 373.715 36.0556C373.448 36.0556 373.075 36.3195 372.861 36.6362Z" fill="white"/>
<path d="M445.267 37.3223C444.893 37.7973 444.733 38.7474 444.84 39.4863C445 40.2252 444.893 40.8058 444.68 40.8058C444.413 40.8058 444.199 41.1753 444.199 41.6503C444.199 42.4948 444.68 42.442 447.83 41.2808C449.218 40.753 449.432 39.6446 448.097 39.803C446.335 39.9613 445.801 39.7502 445.801 38.9585C445.801 38.4835 446.335 38.1668 447.189 38.1668C448.044 38.1668 448.471 37.9029 448.364 37.4806C447.99 36.5306 446.068 36.425 445.267 37.3223Z" fill="white"/>
<path d="M196.606 39.5391C196.232 40.4891 197.514 41.5447 198.261 40.8058C198.849 40.2252 198.315 38.6946 197.514 38.6946C197.193 38.6946 196.82 39.0641 196.606 39.5391Z" fill="white"/>
<path d="M199.487 39.4335C199.06 40.5419 200.342 41.4919 201.143 40.7002C201.57 40.278 201.623 39.9085 201.196 39.3807C200.395 38.4835 199.861 38.4835 199.487 39.4335Z" fill="white"/>
<path d="M375.317 41.0169C375.317 41.4392 374.463 42.0725 373.448 42.3892C369.604 43.6559 367.094 47.5617 369.07 49.1451C369.444 49.5146 371.046 49.9896 372.594 50.359C374.196 50.6757 375.904 51.4674 376.652 52.2063C378.2 53.6842 381.351 53.9481 383.22 52.6286C384.288 51.8897 384.501 51.8897 385.569 52.6286C387.064 53.6842 389.681 53.737 391.122 52.7341C392.03 52.1008 392.297 52.1008 393.205 52.7341C394.486 53.6842 396.729 53.6842 398.01 52.7341C398.918 52.1008 399.185 52.1008 400.093 52.7341C401.748 53.8425 421.077 53.7898 422.732 52.6814C423.747 51.9424 424.014 51.9424 425.242 52.7341C426.256 53.3675 427.164 53.5259 428.873 53.262C431.436 52.7869 431.863 52.8397 434.96 53.262C438.164 53.737 439.392 52.3647 439.392 48.4062C439.392 45.9255 439.231 45.5032 438.484 45.6616C437.736 45.8199 437.576 46.295 437.683 48.0367C437.843 49.7785 437.63 50.359 436.775 50.7813C436.188 51.098 435.494 51.3619 435.173 51.3619C434.106 51.3619 432.984 49.6201 432.984 47.8784C432.984 46.6116 432.717 46.0838 432.183 46.0838C431.649 46.0838 431.382 46.6644 431.382 47.9311C431.382 50.3063 429.514 51.6785 427.271 50.9924C426.096 50.6229 425.669 50.0424 425.295 48.3006C424.655 45.6616 423.373 45.2921 423.373 47.7728C423.373 51.0452 423.266 51.098 412.854 51.2563C401.534 51.4674 400.573 51.2035 400.093 48.195C399.612 45.3449 398.277 45.3449 398.277 48.195C398.277 49.9368 398.064 50.4118 396.996 50.8868C394.913 51.8369 393.472 50.7285 393.472 48.195C393.472 46.6644 393.258 46.0838 392.671 46.0838C392.137 46.0838 391.87 46.6116 391.87 47.6672C391.87 49.884 390.054 51.573 388.239 51.098C386.423 50.6757 385.462 49.4618 385.462 47.5617C385.462 46.6116 385.195 46.0838 384.661 46.0838C384.127 46.0838 383.86 46.6116 383.86 47.6145C383.86 48.4589 383.7 49.5146 383.54 49.9896C383.113 51.0452 380.016 51.6258 378.574 50.8868C377.56 50.3063 377.453 49.8312 377.453 45.2921C377.453 40.6475 377.4 40.278 376.385 40.278C375.798 40.278 375.317 40.5947 375.317 41.0169ZM375.157 48.5645C374.783 48.8812 371.419 48.2478 370.512 47.6672C369.55 47.0867 370.565 45.8199 373.128 44.5004L375.05 43.5504L375.21 45.9255C375.317 47.245 375.264 48.4062 375.157 48.5645Z" fill="white"/>
<path d="M206.75 41.6503C206.377 42.6003 207.658 43.6559 208.406 42.917C208.993 42.3364 208.459 40.8058 207.658 40.8058C207.338 40.8058 206.964 41.1753 206.75 41.6503Z" fill="white"/>
<path d="M209.632 41.5447C209.205 42.6531 210.486 43.6032 211.287 42.8114C211.714 42.3892 211.768 42.0197 211.341 41.4919C210.54 40.5947 210.006 40.5947 209.632 41.5447Z" fill="white"/>
<path d="M352.627 42.3892C352.413 42.7059 353.268 44.0254 354.442 45.2921C356.738 47.72 357.646 50.0424 356.738 50.9396C356.471 51.2035 354.603 51.3619 352.68 51.2563C349.69 51.1508 349.156 51.2563 349.156 51.9425C349.156 53.0508 350.224 53.4731 353.161 53.4731C356.044 53.4731 358.02 52.7869 358.714 51.4674C359.515 49.9368 358.394 46.4533 356.258 44.0254C354.442 41.8614 353.268 41.3864 352.627 42.3892Z" fill="white"/>
<path d="M444.469 44.8171C442.44 46.9811 441.799 49.5146 442.813 51.098C443.294 51.8369 444.362 52.5231 445.163 52.7342C447.939 53.3148 448.473 53.5259 448.473 54.0537C448.473 54.6343 443.294 57.1677 442.119 57.1677C441.532 57.1677 441.532 57.3261 442.066 57.9594C442.44 58.3817 443.08 58.7511 443.508 58.7511C445.003 58.7511 448.58 56.5344 449.434 55.0565C450.129 53.8953 450.769 53.5259 452.692 53.3148C454.187 53.1564 455.415 52.6814 455.949 51.9953C456.803 50.9396 456.856 50.9396 458.939 52.2064C461.876 53.9481 463.744 53.8953 464.759 51.8897C465.987 49.5146 465.773 46.77 464.225 45.2922C461.929 42.9698 459.74 43.8143 456.643 48.1951C454.988 50.5174 454.24 51.1508 452.905 51.2563C451.357 51.4147 451.25 51.3091 450.609 48.7757C449.968 45.9783 448.046 43.4448 446.605 43.4448C446.124 43.4448 445.163 44.0782 444.469 44.8171ZM447.886 46.9283C449.167 48.5118 449.381 51.3619 448.26 51.3619C447.886 51.3619 446.818 51.098 445.857 50.7813C443.988 50.1479 443.668 48.6701 445.056 46.7172C446.124 45.2394 446.551 45.2394 447.886 46.9283ZM463.104 46.9283C464.011 47.8256 464.225 50.1479 463.477 51.3091C463.104 51.8897 462.57 51.8369 460.541 50.8869C459.206 50.2007 458.085 49.5146 458.085 49.2507C458.085 49.0396 458.565 48.2479 459.206 47.4561C460.434 45.9255 461.876 45.7144 463.104 46.9283Z" fill="white"/>
<path d="M345.148 44.5532C344.934 44.8699 344.934 46.1366 345.095 47.4033C345.682 51.1507 343.706 52.1008 337.993 50.7813C336.178 50.359 335.537 50.4118 335.163 50.9396C334.896 51.3619 335.056 51.8369 335.59 52.1536C336.071 52.4175 336.979 53.1036 337.619 53.5786C338.741 54.4231 338.741 54.4759 336.338 55.5315C333.134 56.9566 329.93 56.9566 328.115 55.5315C326.78 54.4759 326.673 54.1064 326.78 51.1507C326.887 48.6701 326.727 47.9311 326.193 47.9311C325.232 47.9311 324.377 51.9425 324.804 54.3176C325.018 55.3204 325.819 56.6399 326.833 57.4316C328.382 58.6983 328.862 58.8567 331.799 58.6455C335.75 58.3816 337.886 57.4316 339.275 55.2148C339.915 54.212 340.77 53.5259 341.464 53.4731C343.6 53.4731 345.789 52.3647 346.43 51.0452C347.764 48.0895 346.59 42.1781 345.148 44.5532Z" fill="white"/>
<path d="M186.351 56.3232C185.924 56.851 185.977 57.2205 186.511 57.6955C187.419 58.3816 188.434 58.0122 188.434 56.9038C188.434 55.901 186.992 55.5315 186.351 56.3232Z" fill="white"/>
<path d="M343.015 56.1121C342.802 56.4288 342.962 57.0094 343.282 57.4844C343.816 58.065 344.137 58.1178 344.67 57.6427C345.258 57.1677 345.258 56.851 344.831 56.3232C344.083 55.426 343.496 55.3732 343.015 56.1121Z" fill="white"/>
<path d="M330.095 61.7068C329.721 62.7096 330.682 63.7652 331.483 63.2902C332.337 62.7624 332.177 61.5485 331.27 61.179C330.789 61.0207 330.308 61.2318 330.095 61.7068Z" fill="white"/>
<path d="M332.873 61.3901C332.445 62.0763 333.033 62.9735 333.941 62.9735C335.008 62.9735 335.542 61.8652 334.688 61.3374C333.727 60.7568 333.3 60.7568 332.873 61.3901Z" fill="white"/>
<path d="M167.078 77.277V83.7162L170.602 83.3995C174.82 82.9773 176.476 82.0272 177.597 79.4938C179.626 74.638 176.049 70.8906 169.374 70.8906H167.078V77.277ZM174.553 74.0574C175.621 75.113 176.049 78.4382 175.194 79.6521C174.553 80.6549 172.578 81.4466 170.869 81.4466H169.214V77.2242V73.0018H171.35C172.791 73.0018 173.859 73.3712 174.553 74.0574Z" fill="white"/>
<path d="M182.027 75.3769C182.027 80.4966 182.615 82.1856 184.751 83.0828C186.833 83.8745 190.09 83.3467 191.211 81.9744C192.279 80.6549 192.867 77.4353 192.6 73.7935C192.439 71.5767 192.279 71.1545 191.372 71.1545C190.41 71.1545 190.304 71.5767 190.143 75.6408C190.037 78.0687 189.716 80.391 189.396 80.7605C188.488 81.8689 185.338 81.605 184.697 80.4438C184.43 79.8632 184.163 77.4881 184.163 75.1658C184.163 71.26 184.056 70.8906 183.095 70.8906C182.134 70.8906 182.027 71.26 182.027 75.3769Z" fill="white"/>
<path d="M197.35 71.2601C197.137 71.4184 196.977 74.163 196.977 77.3298V83.0301H200.874C205.36 83.0301 207.122 82.1856 207.122 80.0216C207.122 79.2299 206.748 78.1743 206.267 77.6465C205.573 76.9075 205.52 76.5381 206 75.9575C207.068 74.6908 206.481 72.3157 204.986 71.5767C203.598 70.8906 197.938 70.6267 197.35 71.2601ZM204.238 73.7935C204.772 75.113 203.384 76.1686 201.195 76.1686C199.219 76.1686 199.112 76.0631 199.112 74.5852C199.112 73.0546 199.219 73.0018 201.515 73.0018C203.224 73.0018 204.025 73.2657 204.238 73.7935ZM204.238 78.491C205.894 79.7577 204.612 81.13 201.569 81.3411L199.112 81.4994V79.6521C199.112 77.8048 199.166 77.752 201.141 77.752C202.263 77.752 203.651 78.0687 204.238 78.491Z" fill="white"/>
<path d="M214.436 72.3157C212.888 75.2714 209.737 83.1884 210.004 83.3995C210.592 83.9801 211.98 83.0301 212.46 81.7105C212.941 80.4966 213.261 80.391 216.145 80.391C219.135 80.391 219.295 80.4438 219.936 81.9745C220.363 82.9245 221.004 83.5579 221.591 83.5579C222.178 83.5579 222.606 83.3995 222.606 83.1356C222.606 82.9245 221.431 80.1271 220.043 76.9603C218.014 72.4212 217.213 71.1017 216.358 70.9961C215.504 70.8906 214.97 71.26 214.436 72.3157ZM217.266 75.4825C217.693 76.5909 218.12 77.6465 218.227 77.8576C218.334 78.1215 217.426 78.2798 216.198 78.2798C214.97 78.2798 214.062 78.1215 214.169 77.8576C214.276 77.6465 214.703 76.5909 215.13 75.4825C215.557 74.4269 216.038 73.5296 216.198 73.5296C216.358 73.5296 216.839 74.4269 217.266 75.4825Z" fill="white"/>
<path d="M226.344 77.2242C226.344 83.0301 226.451 83.6106 227.305 83.4523C228.106 83.294 228.213 82.555 228.213 77.2242C228.213 71.8934 228.106 71.1545 227.305 70.9962C226.451 70.8378 226.344 71.4184 226.344 77.2242Z" fill="white"/>
<path d="M240.227 76.9603C240.227 82.6606 240.28 83.0301 241.294 83.0301C242.202 83.0301 242.362 82.6606 242.362 80.6549V78.3326L245.459 78.1743C247.755 78.0687 248.503 77.8048 248.503 77.2242C248.503 76.6436 247.755 76.3797 245.459 76.2742C242.416 76.1158 242.362 76.0631 242.362 74.5852C242.362 73.0018 242.362 73.0018 245.566 73.0018C248.396 73.0018 248.77 72.8962 248.77 71.9462C248.77 70.9962 248.396 70.8906 244.498 70.8906H240.227V76.9603Z" fill="white"/>
<path d="M252.512 75.7991C252.512 81.605 253.152 82.8717 256.356 83.3995C258.866 83.769 261.269 82.8189 262.07 81.1299C262.39 80.391 262.657 77.8048 262.657 75.3241C262.657 71.3128 262.55 70.8378 261.749 70.9961C260.948 71.1545 260.788 71.8934 260.628 75.6408C260.521 78.0687 260.201 80.391 259.88 80.7605C259.56 81.1299 258.545 81.4466 257.584 81.4466C256.623 81.4466 255.609 81.1299 255.288 80.7605C254.968 80.391 254.648 78.0687 254.541 75.6408C254.381 71.8934 254.22 71.1545 253.473 70.9961C252.619 70.8378 252.512 71.3128 252.512 75.7991Z" fill="white"/>
<path d="M266.232 71.2601C265.165 72.2629 265.965 73.0018 268.261 73.0018H270.664V78.0159C270.664 82.6606 270.718 83.0301 271.732 83.0301C272.747 83.0301 272.8 82.6606 272.8 78.0159V73.0018H274.936C276.698 73.0018 277.072 72.8435 277.072 71.9462C277.072 70.9434 276.698 70.8906 271.839 70.8906C268.956 70.8906 266.393 71.0489 266.232 71.2601Z" fill="white"/>
<path d="M280.489 71.6823C280.276 72.1045 280.276 74.3741 280.383 76.7492C280.543 80.6549 280.703 81.13 282.038 82.2911C284.067 84.0329 287.164 84.0329 289.193 82.2911C290.635 81.0772 290.688 80.8133 290.688 76.1158C290.688 71.8406 290.581 71.1545 289.78 70.9961C288.926 70.8378 288.819 71.3128 288.819 75.2186C288.819 80.5494 288.232 81.605 285.615 81.3411C283.159 81.13 282.412 79.5993 282.412 74.6908C282.412 71.6295 282.251 70.8906 281.611 70.8906C281.13 70.8906 280.65 71.26 280.489 71.6823Z" fill="white"/>
<path d="M295.6 71.2601C295.387 71.4184 295.227 74.163 295.227 77.3298C295.227 82.6606 295.28 83.0301 296.294 83.0301C297.202 83.0301 297.362 82.6606 297.362 80.9188C297.362 79.0715 297.523 78.8076 298.59 78.8076C299.338 78.8076 300.299 79.5466 301.26 80.9188C302.328 82.4495 303.182 83.0301 304.09 83.0301H305.478L303.77 80.9188L302.061 78.8076L303.716 77.277C304.624 76.4325 305.372 75.5353 305.372 75.2714C305.318 73.7407 304.517 72.3157 303.182 71.6823C301.687 70.8906 296.241 70.5739 295.6 71.2601ZM302.755 73.8463C303.877 75.1658 302.702 76.4325 300.086 76.5909C297.896 76.7492 297.896 76.7492 297.896 74.9019C297.896 73.0546 297.95 73.0018 299.979 73.0018C301.207 73.0018 302.328 73.3185 302.755 73.8463Z" fill="white"/>
<path d="M309.323 71.5767C309.216 71.9462 309.163 74.7435 309.216 77.8048L309.376 83.2939H313.648C317.279 83.2939 317.92 83.1356 318.08 82.3439C318.24 81.5522 317.813 81.4466 314.769 81.4466H311.245V79.8632V78.2798H314.449C317.279 78.2798 317.653 78.1743 317.653 77.2242C317.653 76.2742 317.279 76.1686 314.449 76.1686H311.245V74.5852V73.0018H314.769C317.813 73.0018 318.24 72.8962 318.08 72.0517C317.92 71.3128 317.226 71.1545 313.755 70.9961C310.658 70.8906 309.537 71.0489 309.323 71.5767Z" fill="white"/>
<path d="M329.398 76.9603C329.398 82.6606 329.452 83.0301 330.466 83.0301C331.374 83.0301 331.534 82.6606 331.534 80.6549V78.2798H334.471C337.034 78.2798 337.408 78.1743 337.408 77.2242C337.408 76.2742 337.034 76.1686 334.471 76.1686C331.588 76.1686 331.534 76.1686 331.534 74.5852V73.0018H334.791C337.568 73.0018 337.995 72.8962 337.835 72.0518C337.675 71.3128 336.981 71.1545 333.51 70.9962L329.398 70.8378V76.9603Z" fill="white"/>
<path d="M342.96 72.6851C341.358 74.2685 341.145 74.7963 341.145 77.1714C341.145 80.8132 343.067 83.03 346.537 83.3995C349.634 83.7689 351.93 82.6606 353.105 80.1799C354.173 77.9631 354.173 76.6436 353.212 74.3213C352.304 72.1573 350.008 70.8906 346.965 70.8906C345.203 70.8906 344.455 71.2072 342.96 72.6851ZM349.901 73.5823C351.023 74.4268 351.29 75.113 351.29 76.9075C351.29 80.0215 350.115 81.4466 347.552 81.4466C344.028 81.4466 342.052 77.8048 343.868 74.5324C344.989 72.4212 347.819 71.9462 349.901 73.5823Z" fill="white"/>
<path d="M357.695 75.6936C357.695 80.2854 357.749 80.5494 359.244 82.0272C361.914 84.6134 366.239 83.8745 367.627 80.6021C368.802 77.9103 368.481 71.2072 367.2 70.9961C366.345 70.8378 366.239 71.26 366.239 74.6907C366.239 79.5993 365.491 81.1299 363.035 81.3411C360.418 81.605 359.831 80.5494 359.831 75.2713C359.831 71.26 359.724 70.8906 358.763 70.8906C357.749 70.8906 357.695 71.26 357.695 75.6936Z" fill="white"/>
<path d="M372.862 71.5767C372.755 71.9462 372.702 74.7435 372.755 77.8048C372.916 82.5022 373.022 83.294 373.823 83.4523C374.624 83.6106 374.784 83.0301 374.891 78.966L375.051 74.3213L378.469 78.966C381.138 82.555 382.153 83.5579 383.007 83.4523C384.075 83.294 384.129 82.9773 384.129 77.2242C384.129 71.9462 384.022 71.1545 383.221 70.9961C382.42 70.8378 382.26 71.4184 382.153 75.4825L381.993 80.1271L378.575 75.4825C375.318 71.0489 373.556 69.835 372.862 71.5767Z" fill="white"/>
<path d="M388.934 71.5239C388.774 71.9462 388.721 74.7435 388.774 77.8048L388.934 83.2939L392.618 83.1884C396.943 83.0828 398.759 82.08 399.72 79.1771C400.574 76.6964 399.72 73.7935 397.691 72.3156C395.822 70.9961 389.361 70.3628 388.934 71.5239ZM396.676 74.0574C397.371 74.7435 397.744 75.7991 397.744 77.1714C397.744 79.7049 395.876 81.4466 393.152 81.4466H391.337V77.2242V73.0018H393.473C394.914 73.0018 395.982 73.3713 396.676 74.0574Z" fill="white"/>
<path d="M405.007 76.6964C403.672 79.8632 402.551 82.7133 402.551 83.03C402.551 84.1912 404.153 83.4523 404.954 81.9744C405.755 80.4966 405.968 80.391 408.851 80.391C411.788 80.391 411.948 80.4438 412.536 81.9744C413.123 83.505 414.832 84.1912 414.832 82.8717C414.832 82.555 413.71 79.7049 412.376 76.538C410.24 71.735 409.706 70.8906 408.691 70.8906C407.623 70.8906 407.089 71.735 405.007 76.6964ZM410.08 76.1686L411.041 78.2798H408.958C406.555 78.2798 406.449 78.0159 407.73 75.3769C408.745 73.2657 408.798 73.3184 410.08 76.1686Z" fill="white"/>
<path d="M415.898 71.9462C415.898 72.8435 416.219 73.0018 418.034 73.0018H420.17V78.0159C420.17 82.6606 420.223 83.0301 421.238 83.0301C422.252 83.0301 422.306 82.6606 422.306 78.0159V73.0018H424.762C426.791 73.0018 427.165 72.8435 427.005 72.0518C426.845 71.2601 426.097 71.1545 421.345 70.9962C416.165 70.8378 415.898 70.8906 415.898 71.9462Z" fill="white"/>
<path d="M430.316 77.2242C430.316 83.1884 430.37 83.5579 431.384 83.5579C432.399 83.5579 432.452 83.1884 432.452 77.2242C432.452 71.2601 432.399 70.8906 431.384 70.8906C430.37 70.8906 430.316 71.2601 430.316 77.2242Z" fill="white"/>
<path d="M438.538 72.6851C436.936 74.2685 436.723 74.7963 436.723 77.1714C436.723 80.8132 438.645 83.03 442.116 83.3995C445.213 83.7689 447.509 82.6606 448.683 80.1799C449.751 77.9631 449.751 76.6436 448.79 74.3213C447.882 72.1573 445.586 70.8906 442.543 70.8906C440.781 70.8906 440.033 71.2072 438.538 72.6851ZM445.48 73.5823C446.601 74.4268 446.868 75.113 446.868 76.9075C446.868 80.0215 445.693 81.4466 443.13 81.4466C439.606 81.4466 437.63 77.8048 439.446 74.5324C440.567 72.4212 443.397 71.9462 445.48 73.5823Z" fill="white"/>
<path d="M453.487 71.5767C453.38 71.9462 453.327 74.7435 453.38 77.8048C453.541 82.555 453.647 83.2939 454.502 83.4523C455.303 83.6106 455.409 83.1356 455.409 78.8076V73.9518L458.987 78.7548C461.71 82.4495 462.831 83.5578 463.686 83.4523C464.7 83.2939 464.754 82.9245 464.754 77.2242C464.754 71.9462 464.647 71.1545 463.846 70.9961C463.045 70.8378 462.885 71.4184 462.778 75.4297L462.618 80.0743L459.254 75.4825C455.943 70.9961 454.181 69.7822 453.487 71.5767Z" fill="white"/>
</svg>
