<svg xmlns="http://www.w3.org/2000/svg" width="241" height="144" viewBox="0 0 241 144" fill="none">
  <path d="M24 46.7329V50.4806L31.6179 57.5842C35.8066 61.4789 39.6523 65.0306 40.1666 65.447L41.0975 66.2554L40.1177 63.4874C38.8439 59.8867 33.5775 44.7978 33.2346 43.769L32.9896 42.9852H28.4826H24V46.7329Z" fill="white"/>
  <path d="M33.6265 43.2791C34.1164 44.4794 43.6695 65.0306 43.7184 64.9816C43.7674 64.9326 43.9634 60.9889 44.1838 56.2124C44.4043 51.4359 44.6493 46.4879 44.7227 45.2387L44.8697 42.9852H39.1869C34.7288 42.9852 33.5286 43.0586 33.6265 43.2791Z" fill="white"/>
  <path d="M45.6509 45.4835C45.9203 49.5987 46.5327 62.3605 46.5327 63.8057C46.5327 64.5406 46.6307 65.0305 46.7287 64.908C46.9001 64.712 56.2817 44.4547 56.7471 43.279C56.8451 43.0585 55.6448 42.985 51.1867 42.985H45.5039L45.6509 45.4835Z" fill="white"/>
  <path d="M53.4438 54.3997C51.2392 60.6704 49.4756 65.8633 49.5491 65.9123C49.5981 65.9858 50.9698 64.7856 52.5865 63.2669C54.2276 61.7482 57.9753 58.2454 60.9637 55.4775L66.3526 50.456L66.3771 46.7083V42.9851H61.919H57.4365L53.4438 54.3997Z" fill="white"/>
  <path d="M77.7652 50.6276C77.8387 50.9461 78.0102 51.5829 78.1326 52.0483C78.4266 53.1261 78.4511 74.8776 78.1571 76.0533C78.0592 76.5187 77.8877 77.1556 77.7897 77.4496L77.6182 78.0129H87.5387H97.4346L97.6551 76.7147C97.7776 76.0289 97.851 75.392 97.8266 75.343C97.7776 75.294 97.2387 75.4655 96.5773 75.7104C95.5485 76.1268 94.6422 76.1758 89.1554 76.1758H82.9091L82.8357 70.591L82.7867 65.0306H88.7634H94.7402L95.0096 64.2713C95.1566 63.8304 95.2791 63.3895 95.2791 63.2915C95.2791 63.169 92.4622 63.071 89.0329 63.071H82.7867V57.5597V52.0483H88.8614C93.491 52.0728 95.1321 52.1463 95.8915 52.4157C96.4303 52.6117 96.8957 52.7832 96.9447 52.7832C96.9692 52.7832 96.9937 52.1708 96.9937 51.436V50.0887H87.2937H77.5938L77.7652 50.6276Z" fill="white"/>
  <path d="M103.754 50.8726C103.68 51.3135 103.288 54.1549 102.872 57.1923C100.912 72.1342 100.373 75.7594 100.055 76.7637C99.859 77.3761 99.6875 77.8905 99.6875 77.9395C99.6875 77.9884 100.398 78.0129 101.28 78.0129H102.872V76.0289C102.872 74.3877 103.288 70.8849 104.733 60.4011C104.831 59.6418 104.954 59.4213 105.125 59.5928C105.272 59.7397 107.526 63.9284 110.122 68.8763L114.825 77.8905L115.781 77.9639L116.711 78.0129L120.484 70.9829C122.566 67.0882 124.721 63.071 125.26 62.0423C125.824 60.989 126.338 60.1316 126.411 60.1316C126.509 60.1316 126.705 61.2094 126.877 62.5077C127.024 63.8304 127.416 66.7698 127.759 69.0233C128.077 71.3013 128.347 74.2407 128.347 75.5879V78.0129H131.188C133.368 78.0129 133.98 77.9395 133.882 77.6945C133.148 75.9309 133.025 75.2205 130.649 57.6822C129.596 49.8928 129.645 50.0887 129.057 50.0887C128.469 50.0887 128.689 49.7213 123.325 60.0092C117.152 71.8402 116.981 72.1342 116.809 71.9382C116.711 71.8402 114.703 68.068 112.351 63.5609C104.733 49.011 105.444 50.2112 104.611 50.1377C103.95 50.0642 103.876 50.1377 103.754 50.8726Z" fill="white"/>
  <path d="M148.359 50.7501C147.992 51.4604 147.134 53.371 140.839 67.3576C138.782 71.9382 136.773 76.1513 136.406 76.7147C136.014 77.2781 135.695 77.7925 135.695 77.866C135.695 77.9395 136.43 78.0129 137.361 78.0129L139.002 77.9884L141.231 72.918L143.485 67.8475H148.212H152.915L155.242 72.918L157.569 78.0129H160.46H163.375L162.346 76.7147C160.95 75.0001 160.754 74.6081 154.826 61.4789C149.388 49.4764 149.168 49.1334 148.359 50.7501ZM150.098 61.5768C151.054 63.7079 151.862 65.594 151.862 65.741C151.862 66.0594 144.513 66.1329 144.513 65.8145C144.513 65.5205 148.041 57.6822 148.188 57.6822C148.261 57.6822 149.119 59.4458 150.098 61.5768Z" fill="white"/>
  <path d="M177.487 50.7746C177.291 51.1665 176.189 53.5915 175.038 56.1635C166.856 74.4857 166.17 75.9554 165.46 76.8862C165.117 77.3271 164.848 77.768 164.848 77.8415C164.848 77.9395 165.631 78.0129 166.562 78.0129C167.518 78.0129 168.277 77.915 168.277 77.7925C168.277 77.67 169.281 75.3675 170.506 72.6486L172.735 67.7251H177.34C180.72 67.7251 181.994 67.7986 182.166 68.019C182.288 68.1905 183.366 70.5175 184.542 73.1629L186.722 78.0129H189.637H192.551L191.596 76.8372C190.249 75.2205 190.2 75.098 184.223 61.9688C178.516 49.3784 178.344 49.1089 177.487 50.7746ZM179.251 61.5768C180.23 63.7079 181.014 65.594 181.014 65.741C181.014 65.9369 179.888 66.0104 177.34 66.0104C175.331 66.0104 173.666 65.9369 173.666 65.839C173.666 65.496 177.193 57.6822 177.34 57.6822C177.438 57.6822 178.295 59.4213 179.251 61.5768Z" fill="white"/>
  <path d="M194.242 50.1622C194.242 50.2357 194.414 50.9461 194.61 51.7299C194.904 52.8812 194.977 55.1102 194.977 64.0508C194.977 73.8978 194.879 75.8084 194.34 77.572C194.218 77.9639 194.463 78.0129 197.133 78.0129H200.072L199.729 76.8617C199.313 75.4655 199.239 65.0306 199.631 65.0306C200.366 65.0306 201.542 66.0349 203.869 68.6314C205.289 70.2236 207.91 72.9915 209.723 74.7551L213.03 78.0129H215.504C217.39 78.0129 218.002 77.9395 218.002 77.6945C218.002 77.523 215.185 74.6326 211.756 71.3013C208.327 67.97 205.559 65.1531 205.632 65.0551C205.681 64.9327 206.294 64.7857 206.98 64.7122C209.478 64.4183 211.854 62.9241 213.054 60.891C213.642 59.9112 213.716 59.5193 213.716 57.6822C213.716 55.3306 213.275 54.2284 211.83 52.8812C209.674 50.8481 207.494 50.3337 200.072 50.1622C196.863 50.0887 194.242 50.0887 194.242 50.1622ZM204.946 52.3178C206.024 52.6607 206.759 53.1016 207.567 53.8609C208.866 55.1347 209.282 56.3839 209.135 58.5395C208.89 62.3117 206.735 63.8059 201.591 63.8059H199.386V57.8536C199.386 54.5713 199.46 51.8034 199.582 51.7054C199.852 51.4115 203.256 51.8034 204.946 52.3178Z" fill="white"/>
  <path d="M24 58.3679V65.2754H24.7593C26.8169 65.2754 33.749 66.6226 38.1826 67.8719C38.599 67.9944 36.5414 65.5204 31.8384 60.2295C28.0417 55.9429 24.7104 52.1951 24.4654 51.9257C24 51.4603 24 51.6318 24 58.3679Z" fill="white"/>
  <path d="M58.9294 59.813C53.81 65.5693 51.7769 67.9943 52.1933 67.8963C52.5118 67.8228 54.3244 67.3819 56.2105 66.892C58.0966 66.4266 61.1585 65.7898 63.0201 65.4958L66.3759 64.9569V58.2453C66.3759 54.5711 66.3514 51.5582 66.3269 51.5582C66.2779 51.5582 62.9466 55.2814 58.9294 59.813Z" fill="white"/>
  <path d="M61.5997 67.725C59.7136 68.2394 56.0883 69.3417 53.5164 70.1745C48.25 71.9136 48.4214 71.5952 51.8262 73.5058C52.953 74.1427 53.8838 74.755 53.8838 74.902C53.8838 75.0245 53.6878 75.049 53.4674 74.951C49.4012 73.3833 41.6363 71.2767 36.3699 70.3214C32.5732 69.6356 26.9639 68.9497 25.1758 68.9497H24V77.1555V85.3613H45.1881H66.3762V76.0533V66.7452L65.7148 66.7697C65.3229 66.7697 63.4858 67.2106 61.5997 67.725ZM32.5732 76.6166C32.5732 76.8616 32.1078 76.9351 30.8096 76.9351L29.0215 76.9106L28.948 78.1843L28.8745 79.4825H30.4912C31.6914 79.4825 32.1078 79.556 32.0343 79.7765C31.9608 79.9724 31.3485 80.1194 30.4177 80.1684L28.899 80.2419V81.4421V82.6669H30.8831C32.3528 82.6669 32.8427 82.7404 32.7692 82.9608C32.6957 83.1813 31.8874 83.3038 30.1727 83.3527L27.6742 83.4262V79.85V76.2982H30.1237C31.9853 76.2982 32.5732 76.3717 32.5732 76.6166ZM35.929 78.8947C36.6149 80.2174 37.2762 81.3442 37.3987 81.3687C37.4967 81.4176 38.2071 80.2909 38.9419 78.8702C40.1422 76.5921 40.6321 75.8818 40.6565 76.4697C40.6565 76.5921 40.877 78.0863 41.1464 79.85C41.4159 81.5891 41.6363 83.1078 41.6363 83.2058C41.6363 83.3282 41.3179 83.4017 40.926 83.4017H40.2156L40.0442 81.2707C39.8482 78.8212 39.7992 78.8212 38.305 81.7361C37.8396 82.6669 37.3252 83.4017 37.1538 83.4017C37.0068 83.4017 36.3699 82.4709 35.8066 81.3197C35.2187 80.1684 34.6308 79.2866 34.5328 79.3601C34.4103 79.4336 34.2389 80.3644 34.1409 81.4421C33.9939 83.1568 33.9204 83.4017 33.504 83.4017C33.1611 83.4017 33.0631 83.2793 33.1611 82.9608C33.2101 82.7404 33.455 81.1237 33.7 79.4091C33.9694 77.425 34.2144 76.3227 34.3858 76.3717C34.5328 76.4207 35.2187 77.5474 35.929 78.8947ZM47.0987 79.5805C47.8336 81.1727 48.5684 82.5934 48.7154 82.7404C49.1808 83.2058 49.0093 83.4017 48.2255 83.4017C47.5641 83.4017 47.4416 83.2793 46.9762 82.177L46.4618 80.9522H45.2616H44.0368L43.5225 82.177C43.1795 83.0098 42.8611 83.4017 42.5672 83.4017C42.3222 83.4017 42.1262 83.3527 42.1262 83.3038C42.1262 83.2058 45.0411 76.7636 45.2371 76.4697C45.4576 76.1022 45.7025 76.5432 47.0987 79.5805ZM53.8348 78.3068C54.3247 79.4336 55.0596 81.0257 55.5005 81.8586L56.2598 83.4017H55.476C54.7901 83.4017 54.6676 83.2793 54.2022 82.177L53.6878 80.9522H52.4876H51.2873L50.7729 82.177C50.4055 83.0588 50.1116 83.4017 49.7687 83.4017C49.3522 83.4017 49.4747 83.0098 50.8954 79.85C51.7772 77.8904 52.6101 76.2982 52.708 76.2982C52.8305 76.2982 53.3204 77.2045 53.8348 78.3068ZM60.4974 76.6166C61.8936 77.327 61.9426 79.1886 60.5709 79.7765C60.179 79.948 59.8361 80.1194 59.7871 80.1439C59.7136 80.1929 60.375 80.9522 61.2323 81.8096C62.8 83.3772 62.8 83.4017 62.0896 83.4017C61.5262 83.4017 61.0118 83.0343 59.7136 81.7606L58.0479 80.1194V81.7606C58.0479 83.3772 58.0479 83.4017 57.3866 83.4017H56.7007V79.85V76.2982H58.2929C59.1747 76.2982 60.1545 76.4452 60.4974 76.6166Z" fill="white"/>
  <path d="M44.7484 79.36L44.332 80.2173H45.1894C46.0222 80.2173 46.0222 80.1928 45.7527 79.5314C45.2873 78.4781 45.1894 78.4537 44.7484 79.36Z" fill="white"/>
  <path d="M52.0984 79.2375C51.731 80.0949 51.731 80.0949 52.3434 80.1684C53.2007 80.2908 53.2987 80.0949 52.8578 79.1641L52.4658 78.3802L52.0984 79.2375Z" fill="white"/>
  <path d="M58.0469 78.2333C58.0469 79.7275 58.0469 79.7275 58.7572 79.7275C59.6635 79.7275 60.2514 79.1642 60.2514 78.2823C60.2514 77.4495 59.884 77.0821 58.8307 76.8861L58.0469 76.7147V78.2333Z" fill="white"/>
</svg>
