<svg xmlns="http://www.w3.org/2000/svg" width="241" height="144" viewBox="0 0 241 144" fill="none">
  <path d="M146.824 24.0872C145.759 24.5131 146.043 25.223 148.953 29.4116L152.29 34.1681L148.528 39.4925L144.836 44.8169H147.25C149.379 44.8169 150.018 44.391 152.077 41.2673C153.426 39.3505 154.704 37.7177 154.917 37.7177C155.13 37.7177 156.55 39.4925 158.041 41.6223C160.738 45.5978 161.093 45.7398 163.862 44.9589C165.282 44.462 165.14 44.178 161.59 39.2085L157.757 33.9551L160.951 29.5536C162.655 27.1398 164.075 24.9391 164.075 24.6551C164.075 24.4421 163.152 24.2291 161.945 24.2291C160.312 24.2291 159.46 24.8681 157.686 27.4238C156.479 29.1986 155.343 30.6185 155.201 30.6185C155.059 30.6185 153.852 28.9856 152.432 27.0688C149.876 23.5192 149.237 23.1643 146.824 24.0872Z" fill="white"/>
  <path d="M191.765 24.797C188.145 26.5718 186.086 30.0504 186.086 34.4519C186.086 40.9122 189.565 44.6748 196.167 45.2428C200.781 45.6687 204.118 44.1779 206.532 40.5573C208.874 37.0787 208.52 30.1924 205.964 27.3527C202.414 23.5191 196.38 22.4542 191.765 24.797ZM202.272 29.5535C204.473 32.1802 204.402 36.9367 202.13 39.6344C200.71 41.2672 199.858 41.6222 197.09 41.6222C194.321 41.6222 193.469 41.2672 192.049 39.6344C188.997 36.0138 190.133 29.4115 194.179 27.7077C196.664 26.7138 200.497 27.5657 202.272 29.5535Z" fill="white"/>
  <path d="M127.871 34.523V44.8169H135.68H143.489V43.0421C143.489 41.2673 143.418 41.2673 137.81 41.2673H132.131V38.7825V36.2978H137.526C142.141 36.2978 142.85 36.1558 142.496 35.1619C142.283 34.523 142.07 33.7421 142.07 33.3871C142.07 33.0322 139.869 32.7482 137.1 32.7482H132.131V30.2635V27.8497L137.668 27.6367C142.708 27.4238 143.134 27.2818 143.347 25.7909C143.56 24.2291 143.489 24.2291 135.751 24.2291H127.871V34.523Z" fill="white"/>
  <path d="M166.918 34.523V44.8169H169.048C171.107 44.8169 171.178 44.6749 171.178 41.6222V38.4276H174.585C181.116 38.4276 185.305 34.594 184.382 29.5535C183.601 25.365 181.258 24.2291 173.591 24.2291H166.918V34.523ZM179.271 28.9146C181.897 31.4703 179.768 34.239 174.869 34.736L171.178 35.0909V31.3993V27.7787H174.656C176.928 27.7787 178.561 28.2047 179.271 28.9146Z" fill="white"/>
  <path d="M134.686 49.7864C130.356 51.1352 127.871 54.9688 127.871 60.4352C127.871 64.9787 129.504 67.9604 132.983 69.7352C135.964 71.2261 141.076 71.51 143.844 70.2322C145.122 69.6642 145.619 68.8833 145.619 67.4635V65.4757L143.134 66.5406C139.23 68.1024 136.532 67.8184 134.189 65.4757C132.557 63.7719 132.131 62.778 132.131 60.2932C132.131 54.4719 136.39 51.6322 142.141 53.62C143.844 54.1879 145.264 54.6138 145.335 54.5429C145.406 54.4719 145.619 53.62 145.761 52.6261C145.903 51.1352 145.548 50.7093 143.489 49.9993C140.579 49.0054 137.597 48.9345 134.686 49.7864Z" fill="white"/>
  <path d="M150.801 49.6443C149.168 49.8573 149.168 50.0702 149.168 60.5061V71.084H151.298H153.428V60.5061C153.428 54.6138 153.215 49.7863 152.931 49.6443C152.576 49.5023 151.653 49.5023 150.801 49.6443Z" fill="white"/>
  <path d="M166.065 49.5733L155.559 49.8573V51.5611C155.559 53.1939 155.843 53.3359 158.753 53.3359H161.948V62.2099V71.084H164.078H166.207V62.2099V53.3359H169.118C171.035 53.3359 172.384 52.9099 172.952 52.2C173.662 51.2061 174.301 51.987 177.424 57.5954C180.477 62.9909 181.116 64.7657 181.116 67.6054C181.116 71.013 181.187 71.084 183.246 71.084C185.375 71.084 185.375 71.013 185.375 67.3214C185.375 65.0496 185.872 62.8489 186.653 61.5C187.363 60.2931 189.138 57.2405 190.629 54.5428L193.256 49.7863H190.913C188.783 49.7863 188.357 50.1412 186.085 54.4008C184.736 56.9565 183.459 59.0153 183.246 59.0153C183.033 59.0153 181.684 56.7435 180.193 54.0458C178.702 51.2771 177.282 49.1473 176.998 49.2183C176.714 49.2893 171.816 49.5023 166.065 49.5733Z" fill="white"/>
  <path d="M197.867 75.2726C195.951 75.6986 195.454 76.4795 192.046 84.8566C186.864 97.4223 187.006 96.6413 189.632 96.6413C191.478 96.6413 191.975 96.2864 192.543 94.5116C193.324 92.4528 193.395 92.3818 198.151 92.3818C202.837 92.3818 202.979 92.4528 203.831 94.5116C204.541 96.2154 205.18 96.6413 206.741 96.6413C207.877 96.6413 208.8 96.3574 208.8 95.9314C208.8 94.8665 200.92 75.3436 200.352 75.1306C200.139 74.9887 199.003 75.0597 197.867 75.2726ZM199.855 84.0757C200.494 85.7085 200.991 87.3413 200.991 87.6253C200.991 87.9093 199.713 88.1223 198.08 88.1223C196.022 88.1223 195.241 87.8383 195.525 87.1993C195.667 86.7734 196.235 85.1406 196.803 83.6497C197.299 82.2299 197.938 81.023 198.222 81.023C198.435 81.023 199.216 82.3719 199.855 84.0757Z" fill="white"/>
  <path d="M127.871 85.9925V96.6414H133.196C142.354 96.6414 146.329 93.8017 146.897 86.9154C147.536 79.0353 143.276 75.3436 133.338 75.3436H127.871V85.9925ZM140.721 80.952C142.283 82.5849 142.779 83.7207 142.779 85.9215C142.779 90.1811 140.508 92.4528 135.822 92.9498L132.131 93.3047V86.0635V78.8933H135.396C138.023 78.8933 139.017 79.2482 140.721 80.952Z" fill="white"/>
  <path d="M149.168 83.5077C149.168 91.4589 149.239 91.6718 151.156 93.8726C152.86 95.7894 153.782 96.2154 157.19 96.4993C165.709 97.2092 167.626 94.7245 167.626 83.1528V75.3436H165.496H163.366V83.0108C163.366 91.6718 162.728 93.0917 158.539 93.0917C154.35 93.0917 153.428 91.2459 153.428 82.7978V75.3436H151.298H149.168V83.5077Z" fill="white"/>
  <path d="M169.758 85.9925V96.6414H175.721C182.962 96.6414 185.66 95.7894 186.796 93.0917C187.79 90.749 187.151 86.7734 185.66 86.2055C184.808 85.9215 184.879 85.6375 185.731 84.3597C186.867 82.7269 187.08 80.5261 186.37 78.5383C185.518 76.4085 182.11 75.3436 175.792 75.3436H169.758V85.9925ZM181.898 80.0291C183.53 81.9459 181.827 83.5078 177.638 83.7207L174.017 83.9337V81.449V78.8933H177.496C179.768 78.8933 181.259 79.2482 181.898 80.0291ZM182.536 88.7612C183.459 90.536 183.459 90.678 182.11 91.9559C181.401 92.6658 179.768 93.0917 177.496 93.0917H174.017V90.252V87.4123H177.922C180.975 87.4123 181.898 87.6963 182.536 88.7612Z" fill="white"/>
  <path d="M210.223 85.9925V96.6414H212.352H214.482V85.9925V75.3436H212.352H210.223V85.9925Z" fill="white"/>
  <path d="M70.0275 15.852C68.8916 16.9879 68.9626 20.1115 70.0985 21.3184C70.8084 22.0993 70.7374 22.2413 69.7435 21.8863C69.1046 21.6734 67.6137 21.7444 66.4069 22.0993C64.7031 22.5963 64.3481 22.4543 64.7031 21.6734C65.413 19.8276 64.2061 17.1299 62.5733 16.7749C60.4435 16.2069 57.3908 17.4138 56.3969 19.2596C55.616 20.7505 56.4679 23.3062 58.1008 24.3711C58.5977 24.726 58.4557 24.939 57.7458 24.939C57.1069 24.939 55.829 25.507 54.9061 26.2879C53.2023 27.5657 53.2023 27.5657 53.0603 25.7909C52.8473 22.0283 48.2328 21.1764 45.5351 24.3711C43.1924 27.1398 44.7542 30.5474 48.4458 30.6894C50.0786 30.8314 50.1496 30.8314 48.8008 31.1153C47.9489 31.2573 46.458 32.3222 45.4641 33.4581L43.7603 35.5169L43.3344 33.8131C42.8374 31.9673 40.7786 30.9734 38.6489 31.6833C36.8031 32.2512 34.8863 35.9428 35.4542 37.7886C35.9511 39.4214 39.0748 40.8413 40.2817 40.0604C40.7076 39.7764 40.4237 40.4863 39.5008 41.5512C38.6489 42.6871 37.9389 44.1069 37.9389 44.6749C37.9389 45.6688 37.8679 45.6688 37.087 44.6749C34.6733 41.6222 30.5557 43.184 29.7038 47.3726C29.2069 50.1413 30.9817 52.1291 33.6084 51.7741C35.3832 51.4902 35.4542 51.6321 35.1702 54.6138C35.0282 56.8856 34.7443 57.5245 34.1763 56.9566C33.1115 55.8917 29.9168 55.9627 28.8519 57.0276C27.716 58.1634 27.716 62.7069 28.8519 63.8428C29.9878 64.9787 32.9695 64.9077 34.3183 63.7008C35.3122 62.7779 35.4542 62.9909 35.4542 66.0436C35.4542 69.2382 35.3832 69.3802 33.5374 69.0963C29.6328 68.5283 28.284 74.6337 31.7626 77.1184C33.8214 78.5382 34.8153 78.4673 36.5191 76.7634C37.513 75.7695 37.9389 75.6276 37.9389 76.3375C37.9389 76.8344 38.6489 78.1833 39.5008 79.3192C40.4237 80.384 40.7076 81.094 40.2817 80.81C39.0748 80.0291 35.9511 81.4489 35.4542 83.0818C35.2412 83.8627 35.5252 85.4245 36.0931 86.6314C38.0809 90.465 42.4115 90.394 43.5473 86.4894C43.9023 85.2115 44.2573 84.7146 44.2573 85.3535C44.3282 86.7024 47.026 89.2581 48.9427 89.755C50.0786 90.039 50.0076 90.11 48.5168 90.181C45.9611 90.252 44.0443 92.5947 44.6122 94.7955C45.1092 96.9253 48.8008 99.055 50.7885 98.4161C52.4214 97.9192 53.8412 94.7955 53.0603 93.5886C52.7763 93.1627 53.4863 93.4466 54.5511 94.3695C55.687 95.2215 57.1069 95.9314 57.7458 95.9314C58.4557 95.9314 58.5977 96.1444 58.1008 96.4993C56.4679 97.5642 55.616 100.12 56.3969 101.611C57.3908 103.457 60.4435 104.663 62.5733 104.095C64.2061 103.741 65.413 101.043 64.7031 99.197C64.3481 98.4161 64.7031 98.2741 66.4069 98.7711C67.6137 99.126 69.1046 99.197 69.7435 98.984C70.8084 98.5581 70.8084 98.7001 70.0275 99.694C69.5305 100.262 69.1756 101.682 69.3176 102.818C69.5305 104.734 69.6725 104.805 73.4351 104.805C77.1977 104.805 77.3397 104.734 77.5527 102.818C77.6947 101.682 77.4817 100.404 77.0557 99.9069C76.4878 99.197 76.8427 98.984 78.8305 98.9131C80.1794 98.8421 81.5282 98.6291 81.8832 98.4871C82.1672 98.2741 82.3092 99.055 82.0962 100.12C81.7412 102.889 83.658 104.734 86.4267 104.166C90.8992 103.244 92.4611 100.049 89.7634 97.3512C88.7695 96.3573 88.6275 95.9314 89.3374 95.9314C89.8344 95.9314 91.1122 95.2924 92.1771 94.4405L94.0229 93.0207V95.1505C94.0229 97.7062 95.9397 99.055 98.6374 98.3451C103.039 97.2802 103.749 91.3169 99.6313 90.465L97.5015 90.039L99.6313 88.9741C100.98 88.3352 102.045 87.1993 102.329 86.0634L102.826 84.2176L103.394 86.4894C104.104 89.1161 106.447 90.181 108.931 88.8321C110.706 87.9092 111.984 84.9276 111.345 83.0108C110.848 81.4489 107.795 80.0291 106.589 80.81C106.163 81.094 106.447 80.384 107.369 79.3192C108.221 78.1833 108.931 76.7634 108.931 76.1245C108.931 75.4146 109.144 75.2726 109.499 75.7695C110.564 77.4024 113.12 78.2543 114.611 77.4734C116.456 76.4795 117.663 73.4268 117.095 71.297C116.74 69.6642 114.043 68.4573 112.197 69.1673C111.416 69.5222 111.274 69.1673 111.771 67.4634C112.126 66.2566 112.197 64.7657 111.984 64.1268C111.629 63.1329 111.771 63.0619 112.552 63.7718C113.759 64.9077 116.882 64.9787 118.018 63.8428C119.154 62.7069 119.154 58.1634 118.018 57.0276C116.882 55.8917 113.759 55.9627 112.552 57.0276C111.771 57.8085 111.7 57.6665 112.055 56.4596C112.339 55.6077 112.197 54.1879 111.842 53.194C111.274 51.6321 111.345 51.4902 113.12 51.7741C117.166 52.3421 118.728 47.4436 115.534 43.965C114.043 42.3321 113.12 42.3321 110.777 44.1779C109.357 45.2428 108.931 45.3848 108.931 44.6039C108.931 44.036 108.363 42.8291 107.582 41.9062C106.305 40.2024 106.305 40.2024 108.079 40.0604C111.842 39.8474 112.694 35.2329 109.499 32.5352C106.731 30.1924 103.323 31.7543 103.181 35.4459C103.11 37.2207 103.11 37.2207 102.471 35.0199C101.974 33.3871 101.122 32.3932 99.5603 31.7543L97.4305 30.8314L99.5603 30.4054C103.394 29.6245 103.465 25.081 99.7023 23.1642C98.5664 22.5963 97.3595 22.0993 96.9336 22.0993C95.6557 22.0993 94.0229 24.3001 94.0229 26.0749V27.8497L92.1771 26.4298C91.1122 25.5779 89.8344 24.939 89.3374 24.939C88.6275 24.939 88.7695 24.5131 89.7634 23.5192C92.4611 20.8214 90.8992 17.6268 86.4977 16.7039C83.871 16.2069 81.5992 18.3367 82.0962 20.8924C82.3802 22.5253 82.3092 22.5963 80.3924 22.0283C79.2565 21.7444 77.7656 21.6734 77.1267 21.8863C76.1328 22.2413 76.0618 22.0993 76.8427 21.3184C77.9076 20.1115 77.9786 16.9879 76.8427 15.852C75.7069 14.7161 71.1634 14.7161 70.0275 15.852ZM62.9992 25.8619C63.2122 25.081 63.3542 25.365 63.4252 26.6428C63.4962 28.9146 65.9809 32.0382 67.6847 32.0382C68.5366 32.0382 68.5366 32.2512 67.8977 32.8902C66.5489 34.239 66.9038 36.8657 68.4656 37.3627C71.3763 38.2856 73.4351 34.31 70.8794 32.8902C69.8145 32.3222 69.8145 32.1092 71.2344 30.6894C72.0153 29.9085 72.7252 28.4176 72.7252 27.4237C72.7252 26.4298 73.0802 25.6489 73.4351 25.6489C73.8611 25.6489 74.145 26.4298 74.145 27.4237C74.145 28.4176 74.855 29.9085 75.6359 30.6894C77.0557 32.1092 77.0557 32.3222 75.9908 32.8902C73.7901 34.168 75.0679 37.7176 77.8366 37.7176C78.4756 37.7176 79.3985 37.0787 79.8244 36.2268C80.4634 35.0909 80.3924 34.452 79.3985 33.3871C78.2626 32.1802 78.2626 32.0382 79.3275 32.0382C81.2443 32.0382 83.374 29.4115 83.445 26.8558C83.516 25.6489 83.658 25.152 83.871 25.8619C84.155 26.9268 84.3679 26.9978 85.3618 26.2169C86.3557 25.436 86.3557 25.507 85.2908 27.0688C83.729 29.2695 83.729 32.3222 85.2198 33.5291C86.2847 34.381 86.2137 34.523 84.7229 34.8779C83.587 35.1619 82.9481 35.8718 82.8061 37.0787C82.5221 39.4214 83.942 40.5573 86.1427 39.7764C87.4916 39.2085 87.7046 38.7115 87.4916 37.0077C87.2076 35.0909 87.3496 34.8779 89.1244 34.8779C90.3313 34.8779 91.6092 34.239 92.4611 33.1031C94.1649 30.9734 95.0878 31.6123 93.526 33.884C92.816 34.9489 92.6031 36.3688 92.816 37.6466C93.242 39.5634 93.029 39.7764 91.3252 39.9894C89.6924 40.1314 89.4084 40.5573 89.4084 42.3321C89.4084 44.2489 89.6214 44.4619 91.5382 44.4619C93.313 44.4619 93.7389 44.1779 93.8809 42.5451C94.0939 40.8413 94.3069 40.6993 96.5786 41.0543C98.2824 41.3382 99.4183 41.1253 100.341 40.2734C100.98 39.6344 101.761 39.3505 102.045 39.5634C102.258 39.8474 101.69 40.6283 100.767 41.4092C99.6313 42.3321 98.9924 43.539 98.9924 44.8169C98.9924 46.7337 98.8504 46.8756 96.8626 46.5207C95.0878 46.1657 94.6618 46.3077 94.0939 47.7276C93.313 49.9283 94.4489 51.3482 96.7916 51.0642C98.0695 50.9222 98.7084 50.3543 98.8504 49.2184C99.0634 47.7276 99.2053 47.7276 100.625 48.7215C102.826 50.2123 105.382 50.0703 107.44 48.1535C109.215 46.6627 109.215 46.6627 108.008 48.1535C106.731 49.6444 106.731 49.6444 108.008 49.9993C108.718 50.2123 108.363 50.3543 107.015 50.4253C104.601 50.4963 102.897 51.7741 102.187 54.1169C101.832 55.1818 101.477 55.3947 100.909 54.8268C99.6313 53.5489 97.0046 53.9039 96.5076 55.4657C95.5847 58.3764 99.5603 60.4352 100.98 57.8795C101.548 56.8146 101.761 56.8146 103.181 58.2344C103.962 59.0153 105.453 59.7253 106.447 59.7253C107.44 59.7253 108.221 60.0092 108.221 60.4352C108.221 60.7902 107.44 61.1451 106.447 61.1451C105.453 61.1451 103.962 61.855 103.181 62.636C101.761 64.0558 101.548 64.0558 100.98 62.9909C99.5603 60.5062 95.5847 62.494 96.5076 65.3337C97.0756 67.1795 98.5664 67.6764 100.128 66.5405C101.193 65.6886 101.548 65.8306 102.897 67.8184C103.891 69.3092 105.169 70.1611 106.802 70.4451C108.15 70.7291 108.718 70.9421 108.008 71.0131C107.227 71.084 106.873 71.439 107.227 71.936C107.653 72.6459 107.511 72.6459 106.731 71.936C105.382 70.7291 101.477 70.8711 100.341 72.2199C99.4893 73.2848 99.3473 73.2138 98.9924 71.723C98.7084 70.5871 97.9985 69.9482 96.7916 69.8062C94.4489 69.5222 93.313 70.9421 94.0939 73.1428C94.6618 74.5627 95.0878 74.7047 96.8626 74.3497C98.8504 73.9947 98.9924 74.1367 98.9924 76.0535C98.9924 77.3314 99.6313 78.5382 100.767 79.4611C101.69 80.2421 102.258 81.023 102.045 81.3069C101.761 81.5199 101.051 81.236 100.341 80.597C99.4893 79.8161 98.2114 79.5321 96.5786 79.7451C94.3779 79.9581 94.0939 79.8161 93.8809 78.1833C93.7389 76.6924 93.313 76.4085 91.5382 76.4085C89.6214 76.4085 89.4084 76.6215 89.4084 78.5382C89.4084 80.3131 89.6924 80.739 91.3252 80.881C93.029 81.094 93.242 81.3069 92.816 83.2237C92.6031 84.5016 92.816 85.9215 93.526 86.9863C95.0878 89.2581 94.1649 89.897 92.4611 87.7673C91.5382 86.6314 90.3313 85.9924 89.0534 85.9924C87.1366 85.9924 86.9947 85.8505 87.3496 83.8627C87.7046 82.0879 87.5626 81.6619 86.1427 81.094C83.942 80.3131 82.5221 81.4489 82.8061 83.7917C82.9481 85.0695 83.516 85.7085 84.6519 85.8505C86.1427 86.0634 86.1427 86.2054 85.1489 87.6253C84.5809 88.4772 84.013 90.7489 84.013 92.7367L83.942 96.2863L83.374 93.5176C82.8771 90.7489 81.1733 88.8321 79.3275 88.8321C78.5466 88.8321 78.6176 88.4772 79.4695 87.1283C80.4634 85.5665 80.4634 85.3535 79.4695 84.2886C78.1206 82.9398 76.8427 82.8688 75.7069 84.0047C74.5 85.2115 74.642 87.1993 75.9908 87.9802C77.0557 88.5482 77.0557 88.7611 75.6359 90.181C74.855 90.9619 74.145 92.4527 74.145 93.3756C74.145 94.3695 73.7901 95.3634 73.4351 95.5764C73.0092 95.8604 72.7252 95.0795 72.7252 93.8726C72.7252 92.5947 72.0863 91.0329 71.2344 90.181C69.8145 88.7611 69.8145 88.5482 70.8794 87.9802C73.4351 86.5604 71.3763 82.5848 68.4656 83.5077C66.9038 84.0047 66.5489 86.6314 67.8977 87.9802C68.5366 88.6192 68.5366 88.8321 67.6847 88.8321C66.0519 88.8321 63.6382 91.7428 63.2832 94.1566C63.1412 95.4344 62.9282 94.6535 62.8573 92.3108C62.7863 89.5421 62.4313 87.9802 61.6504 87.3413C60.5855 86.4894 60.6565 86.3474 62.1473 85.9924C63.2832 85.7085 63.9221 84.9986 64.0641 83.7917C64.3481 81.4489 62.9282 80.3131 60.7275 81.094C59.3076 81.6619 59.1656 82.0879 59.5206 83.8627C59.8756 85.8505 59.7336 85.9924 57.8168 85.9924C56.5389 85.9924 55.3321 86.6314 54.4092 87.7673C52.7763 89.826 51.7115 89.3291 53.2023 87.1283C56.4679 82.5138 51.3565 77.4024 46.742 80.668C44.5412 82.1589 44.0443 81.094 46.1031 79.4611C47.2389 78.5382 47.8779 77.3314 47.8779 76.0535C47.8779 74.1367 48.0198 73.9947 49.9366 74.3497C51.5695 74.7047 52.2084 74.4917 52.8473 73.2138C53.9122 71.226 52.5634 69.5222 50.0786 69.8062C48.8718 69.9482 48.1618 70.5871 47.8779 71.723C47.5229 73.2138 47.3809 73.2848 46.529 72.2199C45.8901 71.439 44.3282 71.084 41.5595 71.0131C37.726 70.9421 37.655 70.8711 40.3527 70.3741C43.1924 69.8772 45.0382 68.1734 45.0382 66.1856C45.0382 65.3337 45.2511 65.3337 45.8901 65.9726C47.2389 67.3214 49.8656 66.9665 50.3626 65.4047C51.2855 62.494 47.3099 60.4352 45.8901 62.9909C45.3221 64.0558 45.1092 64.0558 43.6893 62.636C42.9084 61.855 41.4176 61.1451 40.4237 61.1451C39.4298 61.1451 38.6489 60.7902 38.6489 60.4352C38.6489 60.0092 39.4298 59.7253 40.4237 59.7253C41.4176 59.7253 42.9084 59.0153 43.6893 58.2344C45.1092 56.8146 45.3221 56.8146 45.8901 57.8795C46.671 59.2283 48.6588 59.3703 49.8656 58.1634C52.2794 55.7497 49.3687 52.555 46.6 54.4718C45.1802 55.4657 45.0382 55.4657 45.0382 54.4718C45.0382 52.626 42.3405 50.4963 39.9267 50.4253C38.6489 50.3543 38.1519 50.2123 38.8618 49.9993C39.9267 49.7153 39.9977 49.5024 39.2168 48.5085C38.4359 47.4436 38.5069 47.5146 39.7847 48.5085C41.5595 50.0703 44.8962 50.1413 46.529 48.7215C47.5939 47.6566 47.7359 47.7276 48.1618 49.4314C48.5168 50.7092 49.0847 51.2062 50.2916 51.2062C52.7053 51.2062 53.8412 49.5734 52.8473 47.6566C52.2084 46.3787 51.5695 46.1657 49.9366 46.5207C48.0198 46.8756 47.8779 46.7337 47.8779 44.8169C47.8779 43.539 47.2389 42.3321 46.1031 41.4092C44.0443 39.7764 44.5412 38.7115 46.742 40.2024C48.6588 41.6222 51.3565 41.5512 52.9893 40.0604C54.5511 38.6405 54.6931 34.665 53.2023 33.4581C52.6344 32.9611 52.3504 32.3222 52.5634 31.9673C52.7763 31.5413 53.6282 32.1092 54.4092 33.1031C55.3321 34.239 56.4679 34.8779 57.8168 34.8779C59.7336 34.8779 59.8756 35.0199 59.5206 37.0077C59.1656 38.7825 59.3076 39.2085 60.7275 39.7764C62.9282 40.5573 64.3481 39.4214 64.0641 37.0787C63.9221 35.8718 63.2832 35.1619 62.1473 34.8779C60.6565 34.523 60.5855 34.381 61.6504 33.5291C63.2832 32.1802 63.0702 28.5596 61.2244 26.4298C59.6626 24.655 59.6626 24.655 61.1534 25.8619C62.6443 27.1398 62.6443 27.1398 62.9992 25.8619Z" fill="white"/>
  <path d="M53.1299 40.8413C52.278 43.0421 53.1299 44.4619 55.3307 44.4619C57.2475 44.4619 57.4605 44.2489 57.4605 42.3321C57.4605 40.5573 57.1765 40.2024 55.4727 39.9894C54.2658 39.8474 53.4139 40.1314 53.1299 40.8413Z" fill="white"/>
  <path d="M53.1299 77.0474C52.278 79.2481 53.1299 80.668 55.3307 80.668C57.2475 80.668 57.4605 80.455 57.4605 78.5382C57.4605 76.7634 57.1765 76.4084 55.4727 76.1954C54.2658 76.0535 53.4139 76.3374 53.1299 77.0474Z" fill="white"/>
</svg>
