<svg xmlns="http://www.w3.org/2000/svg" width="240" height="144" viewBox="0 0 240 144" fill="none">
  <path d="M120.301 7.27012C120.451 8.01725 120.901 12.1264 121.126 16.4598C121.651 23.4828 122.176 25.3506 123.826 25.4253C124.126 25.4253 124.951 22.9598 125.701 19.9713L127.051 14.592L127.576 17.5805C127.951 19.2241 128.176 21.6897 128.176 22.9598C128.251 24.9023 128.551 25.4253 129.676 25.4253C130.876 25.4253 131.401 24.3046 132.601 18.8506C135.301 7.1207 135.376 6.74713 133.726 6.74713C132.451 6.74713 132.076 7.64368 131.176 12.1264L130.201 17.5805L129.451 12.1264C128.626 5.17817 126.976 4.95403 125.326 11.6035C124.126 16.5345 124.051 16.4598 123.376 10.2586C123.001 6.67242 122.626 6.00001 121.426 6.00001C120.301 6.00001 120.001 6.37357 120.301 7.27012Z" fill="white"/>
  <path d="M106.802 10.2586C107.027 12.2759 107.402 16.4598 107.702 19.5977L108.152 25.4253H111.002C115.052 25.4253 116.252 23.7069 116.252 17.8793C116.252 12.5747 115.277 8.3161 113.852 7.34483C113.327 7.04598 111.377 6.74713 109.652 6.74713H106.352L106.802 10.2586ZM112.277 9.88506C112.727 10.4081 113.252 13.3218 113.477 16.2356C113.852 21.092 113.777 21.7644 112.502 22.4368C111.302 23.1092 111.002 22.9598 110.702 21.5402C110.027 18.2529 109.577 9.88506 110.027 9.43679C110.777 8.76437 111.527 8.9138 112.277 9.88506Z" fill="white"/>
  <path d="M95.6252 8.91379C94.4252 9.13793 93.3002 9.88505 93.1502 10.4828C93.0752 11.0805 93.7502 15.1149 94.7252 19.4483C96.1502 25.5747 96.8252 27.3678 97.8752 27.5919C99.0752 27.8161 99.1502 27.4425 98.7002 24.8276C98.4752 23.1839 98.0252 21.3161 97.8002 20.6437C97.5002 19.8965 97.7252 19.4483 98.3252 19.4483C98.9252 19.4483 100.2 20.9425 101.175 22.8103C102.3 24.977 103.5 26.1724 104.325 26.1724C106.2 26.1724 106.125 25.6494 103.95 22.0632C102.45 19.6724 102.225 18.4023 102.525 15.5632C102.9 12.5747 102.675 11.8276 101.025 10.1839C99.9752 9.13793 98.7752 8.31609 98.4752 8.31609C98.1752 8.3908 96.9002 8.61494 95.6252 8.91379ZM99.7502 13.1724C100.275 14.5919 100.275 15.4885 99.6752 16.1609C98.4752 17.6552 96.7502 17.431 96.7502 15.8621C96.7502 15.1896 96.5252 13.8448 96.3002 12.8736C95.5502 10.3333 98.7752 10.6322 99.7502 13.1724Z" fill="white"/>
  <path d="M138.9 17.1322C136.725 21.5402 135 25.4253 135 25.6494C135 25.7988 135.525 26.2471 136.125 26.4713C136.875 26.7701 137.625 26.2471 138.15 24.977C139.35 22.3621 141.975 22.8103 142.5 25.7988C142.725 27.1437 143.325 28.0402 144 28.0402C144.9 28.0402 145.125 26.3965 145.35 18.477C145.5 9.66091 145.425 8.9885 144.15 8.9885C143.1 8.9885 141.75 11.0057 138.9 17.1322ZM142.5 18.7011C142.5 20.1954 142.125 20.9425 141.375 20.9425C140.025 20.9425 140.025 20.7931 141.15 18.3276C142.275 15.9368 142.5 15.9368 142.5 18.7011Z" fill="white"/>
  <path d="M152.324 14.4425C148.274 23.931 146.849 28.5632 147.674 29.385C148.724 30.431 149.699 29.4598 150.899 26.023C152.249 22.1379 153.374 22.885 153.374 27.6667C153.374 30.954 153.599 31.7758 154.724 32C155.774 32.2241 155.999 31.6264 155.999 28.0402C155.999 24.977 156.299 23.7816 157.124 23.408C158.624 22.885 160.499 19.2988 160.499 16.9827C160.499 15.0402 158.999 13.4713 155.774 12.1264C153.749 11.2299 153.674 11.3046 152.324 14.4425ZM157.124 17.5804C157.124 19.8965 155.024 21.7644 153.824 20.569C152.849 19.523 154.949 14.7414 156.149 15.1149C156.674 15.3391 157.124 16.385 157.124 17.5804Z" fill="white"/>
  <path d="M82.5 13.8448C82.5 15.4138 84.825 31.7011 85.05 32C85.2 32.0747 85.8 32 86.475 31.7011C87.375 31.4023 87.6 30.6552 87.3 29.1609C86.925 27.4425 87.15 26.9943 88.5 26.546C89.7 26.1724 90.45 26.4713 91.2 27.592C92.4 29.2356 94.5 29.7586 94.5 28.4138C94.5 27.9655 92.325 24.3046 89.625 20.1954C85.2 13.3965 82.5 10.931 82.5 13.8448ZM88.5 23.2586C88.5 23.6322 87.975 23.931 87.375 23.931C86.775 23.931 86.25 23.4828 86.25 22.8851C86.25 22.2874 86.025 21.1667 85.8 20.4195C85.5 19.3736 85.725 19.4483 86.925 20.8678C87.825 21.8391 88.5 22.8851 88.5 23.2586Z" fill="white"/>
  <path d="M72.8262 17.1322C72.0012 17.6552 72.2262 18.4023 73.8012 21.1667C75.8262 24.5287 75.8262 24.6034 74.3262 25.4253C72.9012 26.1724 72.6012 25.8736 71.1012 22.8103C69.5262 19.5977 68.1012 18.6264 67.1262 20.1207C66.8262 20.6437 74.1012 35.2126 75.4512 36.5575C75.6012 36.7069 76.2012 36.6322 76.8762 36.3333C77.8512 35.9598 77.7762 35.4368 76.1262 32.2241C74.3262 28.6379 74.3262 28.4138 75.6762 27.7414C76.8762 27.069 77.3262 27.4425 78.8262 30.2816C80.5512 33.4942 81.6012 34.2414 82.7262 33.1954C83.2512 32.6724 75.0012 16.4598 74.2512 16.4598C74.0262 16.4598 73.4262 16.7586 72.8262 17.1322Z" fill="white"/>
  <path d="M165.149 19.5977C164.399 20.9425 162.299 24.6034 160.649 27.6667L157.574 33.3448L161.174 35.3621C164.474 37.1552 164.849 37.2299 165.299 36.1092C165.824 34.9138 164.549 33.3448 162.524 32.6724C161.999 32.523 161.999 31.6264 162.674 29.9828C163.424 28.2644 164.024 27.7414 164.924 28.1149C165.599 28.3391 166.724 28.7874 167.474 28.9368C169.274 29.4598 169.124 27.3678 167.174 26.0977C165.749 25.1264 165.749 24.8276 166.574 22.9598C167.549 20.7931 167.474 20.7931 171.974 22.2126C174.599 23.0345 173.249 20.1954 170.249 18.7011C168.674 17.8793 167.174 17.2069 166.949 17.2069C166.799 17.2069 165.974 18.3276 165.149 19.5977Z" fill="white"/>
  <path d="M98.6267 44.0287C97.4267 44.7758 95.2517 46.5689 93.9017 48.0632C92.1767 49.7816 90.9017 50.5287 89.9267 50.3046C87.3017 49.5574 87.3767 52.2471 90.0767 55.0115C92.4017 57.4023 92.6267 57.477 93.9017 56.2816C94.8767 55.4597 95.0267 54.7873 94.4267 54.1149C93.9017 53.5172 93.9017 53.0689 94.5017 52.6954C95.0267 52.3965 96.6017 53.2931 98.1767 54.862C99.6767 56.3563 101.252 57.5517 101.702 57.5517C102.077 57.5517 106.277 61.4368 111.002 66.1437L119.552 74.7356L115.502 78.8448C113.252 81.0862 111.077 82.954 110.627 82.954C110.177 82.954 105.527 87.2873 100.202 92.5919C90.6017 102.23 89.1017 104.621 92.5517 105.218C93.5267 105.443 96.8267 102.678 103.577 95.954C108.902 90.6494 113.252 86.0172 113.252 85.5689C113.252 85.1954 114.977 83.1034 117.152 80.9368L121.052 76.977L125.402 81.2356C127.802 83.6264 129.752 85.8678 129.752 86.3161C129.752 86.7643 133.952 91.2471 138.977 96.2528C148.502 105.592 150.902 107.011 151.877 103.799C152.327 102.454 150.827 100.586 143.177 92.8908C138.077 87.8103 132.902 83.1034 131.627 82.431C130.427 81.8333 128.027 79.8161 126.452 77.9482L123.452 74.6609L135.827 62.3333C142.577 55.6092 148.502 50.0804 149.027 50.0804C150.377 50.0804 152.552 45.5977 151.652 44.7011C150.752 43.8046 146.252 45.9712 146.252 47.3161C146.252 47.8391 140.627 53.7414 133.802 60.5402L121.352 72.8678L110.177 61.362C104.027 55.0862 99.0017 49.4827 99.0017 49.0345C99.0017 47.6149 100.652 46.3448 102.452 46.3448C104.702 46.3448 106.427 44.2528 104.927 43.2816C103.277 42.2356 101.102 42.4597 98.6267 44.0287Z" fill="white"/>
  <path d="M117.75 50.0805C117.75 54.8621 117.975 56.0575 118.875 56.0575C119.625 56.0575 120 55.2356 120 53.4425C120 52.023 120.375 50.8276 120.75 50.8276C121.2 50.8276 121.5 52.023 121.5 53.4425C121.5 55.2356 121.875 56.0575 122.625 56.0575C123.525 56.0575 123.75 54.8621 123.75 50.0057C123.75 45.523 123.525 44.0287 122.85 44.2529C122.325 44.477 121.8 45.6724 121.65 46.9425C121.35 50.1552 120 50.0057 120 46.7184C120 44.9253 119.625 44.1034 118.875 44.1034C117.975 44.1034 117.75 45.2988 117.75 50.0805Z" fill="white"/>
  <path d="M54 69.5057C54 71 54.375 71 66.15 70.8506C77.1 70.6264 78.375 70.477 78.6 69.2816C78.825 68.0862 77.85 68.0115 66.45 68.0115C54.45 68.0115 54 68.0862 54 69.5057Z" fill="white"/>
  <path d="M164.25 69.1322C164.25 70.1034 166.125 70.2529 176.625 70.2529C187.125 70.2529 189 70.1034 189 69.1322C189 68.1609 187.125 68.0115 176.625 68.0115C166.125 68.0115 164.25 68.1609 164.25 69.1322Z" fill="white"/>
  <path d="M96.4511 73.0172C96.1511 73.9885 95.3261 74.7356 94.6511 74.8103C93.6011 74.8103 93.6761 75.0345 95.1011 76.0057C96.0011 76.6034 96.7511 77.7241 96.7511 78.3965C96.8261 79.3678 96.9761 79.2931 97.6511 78.0977C98.1011 77.2758 99.0761 76.2299 99.6761 75.7069C100.801 74.885 100.801 74.8103 99.6761 74.7356C99.0011 74.7356 98.1761 73.9885 97.7261 73.0172L96.9761 71.3735L96.4511 73.0172Z" fill="white"/>
  <path d="M145.875 72.7184C145.575 73.4655 144.6 74.4368 143.7 74.7356L142.125 75.408L143.85 75.931C144.75 76.1552 145.5 76.9023 145.5 77.4253C145.5 78.8448 145.875 78.7701 148.2 76.6034C149.775 75.1839 149.925 74.7356 148.95 74.7356C148.275 74.7356 147.375 73.9885 147.075 73.0172C146.475 71.523 146.325 71.4483 145.875 72.7184Z" fill="white"/>
  <path d="M54 74.362C54 75.3333 55.8 75.4827 66 75.4827C76.2 75.4827 78 75.3333 78 74.362C78 73.3908 76.2 73.2413 66 73.2413C55.8 73.2413 54 73.3908 54 74.362Z" fill="white"/>
  <path d="M165 74.362C165 75.3333 166.8 75.4827 177 75.4827C187.2 75.4827 189 75.3333 189 74.362C189 73.3908 187.2 73.2413 177 73.2413C166.8 73.2413 165 73.3908 165 74.362Z" fill="white"/>
  <path d="M164.775 78.2471C164.475 78.4713 164.25 79.1437 164.25 79.7414C164.25 80.4885 166.8 80.7126 176.625 80.7126C188.475 80.7126 189 80.6379 189 79.2184C189 77.7989 188.475 77.7241 177.15 77.7241C170.625 77.7241 165 77.9483 164.775 78.2471Z" fill="white"/>
  <path d="M54 79.592C54 80.5632 55.875 80.7126 66.375 80.7126C76.875 80.7126 78.75 80.5632 78.75 79.592C78.75 78.6207 76.875 78.4713 66.375 78.4713C55.875 78.4713 54 78.6207 54 79.592Z" fill="white"/>
  <path d="M119.025 93.9368C117.975 94.908 118.5 103.649 119.625 104.621C120.9 105.667 122.85 105.144 123.45 103.5C124.05 101.931 123.075 101.034 122.325 102.305C121.2 104.098 120 102.379 120 99.092C120 95.431 120.525 94.5345 122.025 95.8046C123.3 96.7759 124.125 96.1034 123.525 94.5345C123.075 93.4138 119.925 92.9655 119.025 93.9368Z" fill="white"/>
  <path d="M104.848 120.086C103.498 121.73 101.698 130.247 102.373 132.264C102.673 133.086 103.723 133.983 104.773 134.207C106.273 134.655 107.098 134.356 108.148 133.011C110.023 130.695 108.673 129.126 106.498 131.144C104.473 133.011 104.098 131.517 105.223 125.988C106.198 121.431 107.773 119.713 108.523 122.477C109.048 124.42 110.998 124.569 110.998 122.701C110.998 121.057 108.748 118.816 107.098 118.816C106.498 118.816 105.448 119.414 104.848 120.086Z" fill="white"/>
  <path d="M131.1 120.086C129.525 120.46 129.525 120.236 130.65 128.603C131.475 134.879 131.625 135.253 133.275 135.253C136.575 135.253 138 133.908 138 130.845C138 129.276 137.775 127.782 137.475 127.483C137.175 127.184 137.025 125.839 137.1 124.494C137.325 122.552 136.95 121.655 135.6 120.759C133.875 119.563 133.425 119.489 131.1 120.086ZM134.625 124.046C134.625 125.017 134.25 125.914 133.8 126.063C132.825 126.362 131.85 123.448 132.45 122.402C133.2 121.207 134.625 122.253 134.625 124.046ZM135.375 130.397C135.375 133.31 133.725 133.609 133.35 130.77C132.975 128.379 133.35 127.632 134.55 128.006C135 128.155 135.375 129.201 135.375 130.397Z" fill="white"/>
  <path d="M112.198 127.483C111.898 131.443 111.823 134.805 111.973 134.954C112.123 135.178 113.548 135.328 115.123 135.477C118.573 135.701 119.473 134.132 116.323 133.385L113.998 132.862L114.448 127.557C114.673 124.569 114.973 121.73 115.198 121.207C115.348 120.759 114.823 120.31 114.073 120.31C112.873 120.31 112.648 121.207 112.198 127.483Z" fill="white"/>
  <path d="M120.75 126.885C120.75 132.339 120.975 133.759 122.1 134.73C123.9 136.374 125.475 136.299 126.975 134.655C129.15 132.264 128.4 118.368 126.225 120.609C125.925 120.908 125.625 123.971 125.625 127.259C125.625 132.19 125.4 133.385 124.5 133.385C123.6 133.385 123.3 132.04 123 127.109C122.775 123 122.325 120.684 121.725 120.46C120.975 120.236 120.75 121.879 120.75 126.885Z" fill="white"/>
</svg>
