<svg xmlns="http://www.w3.org/2000/svg" width="241" height="144" viewBox="0 0 241 144" fill="none">
  <path d="M79.8387 90.7555H69.9414V52.5183H79.8387V90.7555Z" fill="white"/>
  <path d="M54.1948 52.5183V66.9138H47.8973V52.5183H38V90.7555H47.8973V76.8111H54.1948V90.7555H64.092V52.5183H54.1948Z" fill="white"/>
  <mask id="mask0_316_837" style="mask-type:luminance" maskUnits="userSpaceOnUse" x="161" y="52" width="43" height="39">
    <path d="M161.402 52.4265H204V90.8112H161.402V52.4265Z" fill="white"/>
  </mask>
  <g mask="url(#mask0_316_837)">
    <path d="M161.715 52.5183V90.7555H171.611V62.4156H177.908V90.7555H187.806V62.4156H194.106V90.7555H204.002V52.5183H161.715Z" fill="white"/>
  </g>
  <mask id="mask1_316_837" style="mask-type:luminance" maskUnits="userSpaceOnUse" x="84" y="28" width="78" height="88">
    <path d="M84.9531 28H161.088V115.273H84.9531V28Z" fill="white"/>
  </mask>
  <g mask="url(#mask1_316_837)">
    <path d="M161.052 101.114C153.074 109.816 141.613 115.273 128.876 115.273C104.775 115.273 85.2383 95.737 85.2383 71.6375C85.2383 47.5368 104.775 28 128.876 28C141.509 28 152.887 33.3681 160.856 41.9469L153.268 49.9842C147.292 43.2592 138.58 39.0212 128.876 39.0212C110.863 39.0212 96.2607 53.6236 96.2607 71.6375C96.2607 89.6501 110.863 104.251 128.876 104.251C138.445 104.251 147.052 100.131 153.019 93.5672L161.052 101.114Z" fill="white"/>
  </g>
  <path d="M150.28 71.4404C150.28 82.6203 141.217 91.6823 130.036 91.6823C118.856 91.6823 109.793 82.6203 109.793 71.4404C109.793 60.2594 118.856 51.196 130.036 51.196C141.217 51.196 150.28 60.2594 150.28 71.4404Z" fill="#B7B2B6"/>
</svg>
