<svg xmlns="http://www.w3.org/2000/svg" width="241" height="144" viewBox="0 0 241 144" fill="none">
  <path d="M83.4161 23.4329L75 31.849L77.3369 34.1859L79.6737 36.5227L88.0051 28.1066C92.5941 23.4837 96.3365 19.6398 96.3365 19.572C96.3365 19.4535 92.0184 14.9999 91.8999 14.9999C91.8829 14.9999 88.0559 18.7931 83.4161 23.4329Z" fill="white"/>
  <path d="M103.113 22.9586V26.176H124.873H146.633V22.9586V19.7412H124.873H103.113V22.9586Z" fill="white"/>
  <path d="M88.8525 66.343L88.8017 98.5679L88.4292 99.2453C88.0058 100.041 87.3454 100.685 86.5157 101.125C86.0077 101.396 85.4489 101.464 82.8411 101.497L79.7422 101.565V104.783V108L83.7724 107.932C87.5317 107.865 87.8704 107.831 89.0896 107.424C92.1038 106.425 93.9835 104.444 94.9317 101.243C95.2196 100.329 95.2365 98.1615 95.2873 67.1897L95.3212 34.1351H92.1038H88.8864L88.8525 66.343Z" fill="white"/>
  <path d="M107.802 34.2538C107.734 34.3046 107.684 40.2483 107.684 47.4621V60.5518H109.292H110.901V63.8539V67.156H109.292H107.684V80.449V93.7419H118.521H129.359V90.4399V87.1378H121.739H114.118V77.1469V67.156H122.247H130.375V63.8539V60.5518H122.247H114.118V50.6456V40.7394H121.739H129.359V37.4373V34.1352H118.64C112.73 34.1352 107.853 34.186 107.802 34.2538Z" fill="white"/>
  <path d="M140.195 63.9386V93.7419H143.413H146.63V70.2549C146.63 57.1143 146.698 46.8355 146.783 46.9371C146.85 47.0218 147.07 47.6991 147.257 48.4442C147.443 49.1893 148.832 54.2864 150.339 59.7898C153.522 71.3386 156.418 81.9391 158.145 88.2385C158.805 90.66 159.415 92.8953 159.517 93.2001L159.703 93.7419L163.784 93.7081L167.882 93.6573V63.9386V34.2199H164.665H161.447L161.362 55.9797C161.312 67.9519 161.261 77.6718 161.227 77.6041C161.21 77.5364 158.755 68.1212 155.774 56.691C152.777 45.2607 150.22 35.5069 150.085 35.0158L149.831 34.1352H145.021H140.195V63.9386Z" fill="white"/>
  <path d="M103.113 104.749V107.966H124.873H146.633V104.749V101.531H124.873H103.113V104.749Z" fill="white"/>
</svg>
