<svg xmlns="http://www.w3.org/2000/svg" width="241" height="144" viewBox="0 0 241 144" fill="none">
  <path d="M193.8 34.1378C187.551 35.103 182.46 39.7121 180.892 45.8415C179.927 49.5578 180.434 53.8773 182.219 57.2316C182.678 58.1003 183.015 58.8484 182.967 58.9208C182.726 59.1379 180.217 57.5935 179.227 56.6041C176.549 53.9014 175.85 49.7267 177.514 46.3C178.214 44.828 179.782 43.1388 181.133 42.3666L182.267 41.715L181.061 38.6262C179.71 35.1272 179.927 35.2478 177.442 36.7198C174.595 38.3608 172.11 41.4737 170.807 44.9245C170.011 47.0722 169.794 51.4883 170.373 53.998C171.627 59.3551 176.453 64.3503 181.568 65.5086C182.243 65.6776 182.822 65.8706 182.822 65.9671C182.822 66.0395 182.243 66.3291 181.568 66.5946C179.806 67.222 177.128 67.1979 175.295 66.4739C171.145 64.8812 168.708 59.9584 169.866 55.6389L170.228 54.3358L169.094 53.8532C166.175 52.5742 164.196 51.7296 164.124 51.7296C163.931 51.7296 163.231 54.553 163.062 56.1456C162.073 64.9054 168.177 72.6998 176.742 73.6409C180.144 74.027 183.208 73.4479 186.152 71.8552C187.624 71.0589 187.672 71.0589 187.527 71.5656C187.189 72.6516 186.224 74.0994 185.114 75.113C181.037 78.8775 174.643 78.1053 171.603 73.4962C171.072 72.6998 170.542 72.0241 170.397 72.0241C169.938 71.9759 164.486 74.2684 164.486 74.4855C164.486 75.2578 166.295 77.9122 167.984 79.6255C171.265 82.9316 175.27 84.5001 179.806 84.2346C186.779 83.8244 192.328 79.336 194.162 72.6033L194.572 71.1554L194.958 71.8794C195.658 73.279 195.948 75.4749 195.61 77.1159C194.838 81.1217 192.087 83.8244 188.082 84.5725C186.707 84.8138 186.248 84.8138 184.849 84.476C183.956 84.2346 183.184 84.0899 183.16 84.1381C182.991 84.307 180.651 89.8331 180.651 90.0503C180.651 90.4123 182.822 91.0397 184.921 91.281C191.58 92.0532 197.757 88.699 200.773 82.6661C202.076 80.084 202.438 78.2259 202.293 74.8958C202.172 71.9276 201.545 69.5869 200.266 67.584C199.953 67.0772 199.735 66.5946 199.784 66.5222C199.856 66.4739 200.459 66.6911 201.135 67.0289C206.636 69.8282 207.89 76.8987 203.716 81.363C203.089 82.0146 202.124 82.8109 201.569 83.1005L200.532 83.6555L201.738 86.7684C202.389 88.4577 203.041 89.8573 203.186 89.8573C203.885 89.8573 206.757 87.8785 208.277 86.3341C211.317 83.3177 212.812 79.6497 212.812 75.2578C212.837 70.6728 211.437 67.2944 208.156 64.0366C205.936 61.8165 204.078 60.7065 201.352 59.9343L199.832 59.4999L200.749 59.1138C203.21 58.052 205.984 58.1003 208.252 59.2586C209.845 60.0791 211.654 61.9613 212.402 63.6264C213.247 65.5328 213.464 68.2596 212.909 69.9488L212.523 71.0589L213.295 71.3967C213.729 71.5656 215.08 72.1689 216.311 72.6998C217.541 73.2548 218.603 73.6892 218.651 73.6892C218.844 73.6892 219.496 71.2761 219.761 69.5869C220.461 64.9295 218.748 59.693 215.394 56.3387C213.633 54.5771 211.847 53.4188 209.41 52.5018C207.939 51.9226 207.456 51.8744 204.296 51.8503C200.435 51.8503 198.915 52.2122 196.478 53.6842C195.851 54.0945 195.272 54.3599 195.2 54.3117C195.151 54.2393 195.344 53.6842 195.634 53.081C196.454 51.3194 198.095 49.6784 199.904 48.7856C201.376 48.0616 201.69 47.9892 203.813 47.9892C205.791 47.9892 206.298 48.0858 207.432 48.6166C209.145 49.4371 210.81 50.9333 211.558 52.3088C211.871 52.912 212.233 53.4188 212.378 53.4188C212.933 53.4188 218.289 51.1504 218.289 50.9091C218.289 50.7643 217.952 50.0645 217.565 49.3647C214.887 44.4902 210.255 41.4979 204.875 41.1842C197.178 40.7015 190.615 45.4796 188.54 53.0568L188.203 54.2634L187.817 53.3464C186.779 50.9333 186.852 48.1823 188.01 45.7691C189.843 42.0288 194.379 39.9052 198.264 40.967C198.988 41.16 199.615 41.2807 199.639 41.2565C199.687 41.2324 200.315 39.8569 201.038 38.1919L202.341 35.1996L200.725 34.6687C198.77 34.0654 195.803 33.8241 193.8 34.1378Z" fill="white"/>
  <path d="M12 62.7094V77.0676H13.9302H15.8604L15.8845 67.3427C15.8845 57.8831 15.9086 57.6659 16.3188 58.6071C16.56 59.138 18.2007 63.5058 19.9861 68.3079L23.2192 77.0676H25.656H28.0929L31.6878 67.3668L35.2828 57.6659L35.3551 67.3668L35.4034 77.0676H37.3336H39.2638V62.7094V48.3271L36.9234 48.3995L34.5831 48.4719L30.2402 59.7413C27.8275 65.9189 25.8008 71.0589 25.7284 71.1554C25.6319 71.2278 24.9563 69.7558 24.2084 67.8494C23.4846 65.943 21.482 60.803 19.7931 56.4352L16.7048 48.4719L14.3403 48.3995L12 48.3271V62.7094Z" fill="white"/>
  <path d="M109.234 51.7055V55.0839L107.907 54.4806C106.604 53.8773 106.459 53.8773 102.044 53.9497C97.7012 54.0221 97.484 54.0462 96.3018 54.6736C95.6262 55.0356 94.5164 55.9285 93.8408 56.6766C91.9589 58.7277 91.6211 60.0791 91.6211 65.3639C91.6211 70.1902 91.9347 71.6622 93.4065 73.6651C95.1437 76.0058 97.7253 77.0676 101.755 77.0676C104.336 77.0676 106.387 76.6333 108.003 75.7163C108.583 75.4026 109.089 75.1371 109.137 75.1371C109.186 75.1371 109.234 75.5715 109.234 76.1024V77.0676H111.164H113.094V62.7094V48.3512H111.164H109.234V51.7055ZM106.821 58.0521C107.81 58.4864 108.607 59.3069 108.969 60.248C109.33 61.165 109.306 67.8494 108.944 68.8871C108.462 70.3591 107.4 71.6381 106.049 72.362C104.939 72.9894 104.481 73.0859 102.358 73.1583C99.5831 73.279 98.2561 72.9894 97.1462 72.0724C95.6986 70.8417 95.4814 69.973 95.4814 65.2674C95.4814 61.4787 95.5297 60.9478 95.9881 60.0308C96.5189 58.8967 97.7012 58.0279 99.0764 57.7383C100.548 57.4246 105.88 57.6418 106.821 58.0521Z" fill="white"/>
  <path d="M72.3891 53.9015C70.9415 54.2152 69.6145 54.9633 68.6976 55.9768C67.6119 57.2317 67.25 58.221 67.25 60.055C67.25 62.7095 68.5529 64.6641 71.1104 65.8225C72.0513 66.2327 72.8716 66.3292 77.1422 66.4499C81.1714 66.5464 82.233 66.6671 82.8603 66.9808C84.7664 68.0184 85.2006 69.9007 83.8736 71.3968C82.5949 72.8688 81.9676 73.0619 78.3485 73.1584C74.5364 73.2791 73.4024 73.0378 72.0996 71.8553C71.2069 71.059 71.1104 71.0348 69.2043 71.0348C67.9979 71.0348 67.25 71.1314 67.25 71.2762C67.25 71.4209 67.4189 71.8794 67.636 72.3138C68.8907 74.7028 71.1104 76.3679 73.7161 76.8264C76.2977 77.2849 81.7505 77.0436 83.4394 76.3679C85.1765 75.6922 86.7207 74.3408 87.6375 72.6999C88.2648 71.5899 88.3613 71.1314 88.3613 69.587C88.3613 68.0425 88.2648 67.584 87.6375 66.4981C86.793 64.9537 85.9245 64.1815 84.139 63.3369C82.8844 62.7336 82.5708 62.7095 77.6971 62.5888L72.558 62.4682L71.8342 61.7442C71.4481 61.334 71.0621 60.6825 70.9656 60.2481C70.845 59.6207 70.9415 59.3552 71.6653 58.5589L72.5097 57.6419L76.4907 57.5695C81.0508 57.473 81.9435 57.6419 83.3429 58.8485C84.3079 59.6689 84.4044 59.6931 86.3105 59.6931C88.2407 59.6931 88.2648 59.6931 88.12 59.138C87.5892 57.3282 85.1524 54.9633 82.9327 54.1428C81.9193 53.7567 73.9091 53.5878 72.3891 53.9015Z" fill="white"/>
  <path d="M146.652 53.9256C144.312 54.3841 141.924 56.4111 140.79 58.8725C140.259 60.0308 140.235 60.2963 140.162 68.5492L140.09 77.0676H142.044H143.974V69.0319C143.974 59.8378 144.047 59.5723 145.929 58.3175C146.845 57.7142 147.207 57.6418 149.331 57.5694L151.695 57.4729V55.5665V53.6601L149.717 53.6843C148.607 53.7084 147.231 53.8049 146.652 53.9256Z" fill="white"/>
  <path d="M48.5522 54.6013C46.9598 55.3493 45.3915 56.8696 44.5953 58.3658C44.3058 58.8967 44.0886 59.4034 44.0886 59.4999C44.0886 59.6206 44.9572 59.693 46.0429 59.693C47.9007 59.693 48.0214 59.6689 48.9382 58.8725C50.2652 57.7383 51.5681 57.4246 54.4392 57.5694C56.4659 57.6659 56.9967 57.7866 57.9135 58.3175C59.1199 59.0414 60.0126 60.5135 60.0126 61.8166V62.5646L54.1497 62.637L48.2868 62.7094L46.6944 63.5058C44.2093 64.7123 42.8823 66.6187 42.6893 69.1525C42.4721 72.0483 44.3058 74.8717 47.2734 76.2472C48.7452 76.9228 48.9141 76.947 52.5332 76.947H56.2729L57.9618 76.1024C58.9027 75.6439 59.7231 75.2336 59.8437 75.1854C59.9402 75.1371 60.0126 75.5473 60.0126 76.0782V77.0676H61.9428H63.8971L63.8247 68.5492L63.7523 60.055L63.0768 58.6795C62.184 56.8696 60.7847 55.47 58.9751 54.6013C57.5275 53.9256 57.3827 53.9014 53.7395 53.9014C50.1204 53.9014 49.9515 53.9256 48.5522 54.6013ZM60.0126 67.2461C60.0126 69.2973 58.5891 71.445 56.5383 72.555C55.6697 73.0135 55.163 73.0859 52.5332 73.0859C49.9515 73.0859 49.3725 73.0135 48.5522 72.5792C45.8258 71.1554 45.8258 68.139 48.528 66.9083C49.3966 66.5222 50.1687 66.4498 54.777 66.4498H60.0126V67.2461Z" fill="white"/>
  <path d="M122.718 54.2393C120.667 54.9632 118.737 56.7007 117.893 58.5829L117.458 59.5723L119.509 59.6447C121.56 59.7171 121.584 59.7171 122.501 58.8725C123.756 57.7383 125.01 57.4488 127.93 57.5694C130.439 57.6901 131.114 57.8831 132.224 58.9208C132.948 59.5965 133.793 62.0096 133.455 62.3474C133.334 62.4681 130.632 62.5888 127.447 62.637C120.812 62.7094 120.378 62.8301 118.182 64.8812C114.515 68.3079 115.818 74.0029 120.788 76.2954C121.946 76.8504 122.549 76.947 125.155 77.0194C128.557 77.14 130.535 76.778 132.321 75.7404C132.876 75.4026 133.382 75.1371 133.455 75.1371C133.527 75.1371 133.6 75.5715 133.6 76.1024V77.0676H135.409H137.243L137.17 68.4286C137.098 59.8378 137.098 59.8136 136.519 58.6071C135.674 56.8937 133.672 55.0115 132.031 54.4082C130.873 53.9738 130.173 53.9014 127.133 53.9014C124.865 53.9256 123.273 54.0462 122.718 54.2393ZM133.455 67.584C133.093 70.1902 131.452 72.1689 129.16 72.8446C127.761 73.279 124.238 73.3273 122.863 72.9412C121.753 72.6274 120.185 71.1796 119.968 70.2384C119.871 69.8765 119.871 69.3214 119.944 69.0077C120.137 68.1873 121.415 66.9807 122.332 66.7152C122.766 66.5946 125.469 66.4739 128.364 66.4739L133.624 66.4498L133.455 67.584Z" fill="white"/>
  <path d="M130.319 84.307C129.643 84.5724 128.847 85.6101 128.654 86.4788C128.437 87.4682 128.919 89.0368 129.667 89.5918C130.27 90.0985 131.694 90.2675 132.49 89.9538C133.262 89.6642 132.852 89.3987 131.815 89.5194C130.825 89.6642 130.656 89.6159 130.005 88.9402C128.244 87.1786 129.691 84.2105 132.08 84.669C132.731 84.7896 132.9 84.7414 132.828 84.5C132.707 84.1381 131.042 83.9933 130.319 84.307Z" fill="white"/>
  <path d="M134.324 87.0822C134.324 89.5919 134.372 90.0986 134.686 90.0986C135 90.0986 135.048 89.5919 135.048 87.0822C135.048 84.5725 135 84.0658 134.686 84.0658C134.372 84.0658 134.324 84.5725 134.324 87.0822Z" fill="white"/>
  <path d="M135.289 84.4277C135.289 84.6691 135.554 84.7897 136.134 84.7897H136.978V87.4442C136.978 89.6401 137.05 90.0986 137.34 90.0986C137.629 90.0986 137.702 89.6401 137.702 87.4442V84.7897H138.546C139.125 84.7897 139.391 84.6691 139.391 84.4277C139.391 84.1382 139.005 84.0658 137.34 84.0658C135.675 84.0658 135.289 84.1382 135.289 84.4277Z" fill="white"/>
  <path d="M139.921 84.2347C139.969 84.3553 140.403 85.2241 140.91 86.1652C141.562 87.4442 141.803 88.2164 141.803 89.0127C141.803 89.616 141.923 90.0986 142.044 90.0986C142.189 90.0986 142.285 89.5919 142.285 88.9645C142.285 88.1199 142.502 87.42 143.25 86.0928C144.288 84.2106 144.336 84.0658 143.998 84.0658C143.878 84.0658 143.419 84.7173 142.961 85.5137C142.527 86.31 142.116 86.9615 142.044 86.9615C141.948 86.9615 141.586 86.31 141.2 85.5137C140.814 84.7173 140.355 84.0658 140.162 84.0658C139.993 84.0658 139.873 84.1382 139.921 84.2347Z" fill="white"/>
</svg>
