<svg width="240" height="144" viewBox="0 0 240 144" fill="none" xmlns="http://www.w3.org/2000/svg">
<path d="M8.25781 64.2622V90.7515L18.9933 90.8544L29.6772 91.0087L29.832 101.965L29.9352 112.869H56.5159H83.0965V86.3795V59.8901H72.2578H61.4191V48.8314V37.7728H34.8385H8.25781V64.2622ZM56.2578 51.4032V59.8901H43.0965H29.9352V73.0062V86.1223H21.4191H12.903V64.5193V42.9163H34.5804H56.2578V51.4032ZM56.2578 75.3208V86.1223L45.5739 86.0195L34.8385 85.8652L34.6836 75.8352C34.632 70.3316 34.6836 65.548 34.7868 65.188C34.9933 64.6736 37.5223 64.5193 45.6772 64.5193H56.2578V75.3208ZM78.3481 86.2252L78.1933 107.983H56.5159H34.8385V99.4956V91.0087L48.1546 90.8544L61.4191 90.7515V77.6354V64.5193H69.9352H78.4514L78.3481 86.2252Z" fill="white"/>
<path d="M110.453 59.8901C110.453 60.1473 110.711 60.4045 110.969 60.4045C111.279 60.4045 111.485 60.1473 111.485 59.8901C111.485 59.5815 111.279 59.3758 110.969 59.3758C110.711 59.3758 110.453 59.5815 110.453 59.8901Z" fill="white"/>
<path d="M112 59.8901C112 60.1473 112.258 60.4045 112.568 60.4045C112.826 60.4045 112.929 60.1473 112.774 59.8901C112.619 59.5815 112.361 59.3758 112.206 59.3758C112.103 59.3758 112 59.5815 112 59.8901Z" fill="white"/>
<path d="M141.678 59.8901C141.523 60.1473 141.627 60.4045 141.885 60.4045C142.194 60.4045 142.452 60.1473 142.452 59.8901C142.452 59.5815 142.349 59.3758 142.246 59.3758C142.091 59.3758 141.833 59.5815 141.678 59.8901Z" fill="white"/>
<path d="M154.578 59.8901C154.423 60.1473 154.63 60.4045 155.094 60.4045C155.559 60.4045 155.765 60.1473 155.61 59.8901C155.456 59.5815 155.198 59.3758 155.094 59.3758C154.991 59.3758 154.733 59.5815 154.578 59.8901Z" fill="white"/>
<path d="M197.16 59.8901C197.16 60.1473 197.418 60.4045 197.676 60.4045C197.986 60.4045 198.192 60.1473 198.192 59.8901C198.192 59.5815 197.986 59.3758 197.676 59.3758C197.418 59.3758 197.16 59.5815 197.16 59.8901Z" fill="white"/>
<path d="M198.967 59.8901C198.812 60.1473 198.916 60.4045 199.174 60.4045C199.483 60.4045 199.741 60.1473 199.741 59.8901C199.741 59.5815 199.638 59.3758 199.535 59.3758C199.38 59.3758 199.122 59.5815 198.967 59.8901Z" fill="white"/>
<path d="M214.969 59.8901C214.814 60.1473 215.02 60.4045 215.485 60.4045C215.949 60.4045 216.156 60.1473 216.001 59.8901C215.846 59.5815 215.588 59.3758 215.485 59.3758C215.382 59.3758 215.124 59.5815 214.969 59.8901Z" fill="white"/>
<path d="M103.227 62.6676C103.227 64.8794 103.433 65.548 104.156 65.7538C105.652 66.2167 117.368 66.011 118.349 65.4966C118.917 65.1365 119.227 64.365 119.227 63.2334C119.227 60.9703 118.298 60.8674 118.091 63.0791C117.936 64.7251 117.885 64.7765 115.356 64.7765C112.827 64.7765 112.775 64.7251 112.62 63.0791C112.517 62.1533 112.207 61.536 111.949 61.7418C111.691 61.8961 111.588 62.2561 111.743 62.5133C112.207 63.2334 111.485 65.0337 110.762 65.0337C110.349 65.0337 109.936 64.3136 109.781 63.4906C109.472 62.2047 109.214 61.9475 107.872 61.9475C107.046 61.9475 106.323 61.6904 106.323 61.4332C106.323 61.1246 106.788 60.9188 107.304 60.9188C107.872 60.9188 108.491 60.6616 108.646 60.353C108.904 59.993 108.388 59.8901 107.304 59.993C105.807 60.0958 105.498 60.353 105.394 61.536C105.239 62.8734 105.343 62.9762 107.046 62.9762C108.594 62.9762 108.904 63.182 108.904 64.0564C108.904 64.9822 108.646 65.0851 106.736 64.9308L104.517 64.7765L104.362 62.3076C104.156 58.9643 103.227 59.2729 103.227 62.6676Z" fill="white"/>
<path d="M121.292 62.1533C121.292 63.3877 121.137 64.7765 120.982 65.2394C120.724 65.8567 121.188 66.011 123.459 65.9595C127.434 65.9081 127.846 65.548 127.846 62.4619C127.846 59.17 127.072 59.0671 126.866 62.3076C126.711 64.4165 126.556 64.7765 125.575 64.9308C124.492 65.0851 124.388 64.9308 124.388 62.5133C124.388 61.0731 124.182 59.8901 123.872 59.8901C123.614 59.8901 123.356 61.0217 123.356 62.4619C123.356 63.8507 123.15 65.0337 122.84 65.0337C122.582 65.0337 122.324 63.8507 122.324 62.4619C122.324 61.0217 122.117 59.8901 121.808 59.8901C121.55 59.8901 121.292 60.9188 121.292 62.1533Z" fill="white"/>
<path d="M146.578 63.0277C146.578 65.2394 146.785 66.0624 147.197 65.9595C148.281 65.5995 148.127 59.8901 147.043 59.8901C146.785 59.8901 146.578 61.2789 146.578 63.0277Z" fill="white"/>
<path d="M101.16 63.5935C101.16 64.828 100.902 66.1139 100.54 66.4739C100.231 66.7825 100.128 67.2455 100.334 67.4512C100.54 67.7084 101.057 67.3998 101.469 66.8854C102.295 65.7024 102.45 62.1533 101.676 61.6904C101.366 61.4847 101.16 62.2562 101.16 63.5935Z" fill="white"/>
<path d="M131.872 61.9475C131.718 62.2047 131.821 62.5133 132.13 62.7191C133.111 63.3363 132.698 65.0337 131.614 65.0337C131.047 65.0337 130.582 65.2909 130.582 65.548C130.582 65.9081 133.163 66.0624 137.963 65.9595L145.292 65.8052L145.447 63.5935C145.55 62.1019 145.447 61.4332 145.085 61.6904C144.776 61.8447 144.518 62.7191 144.518 63.5421C144.518 64.5708 144.311 65.0337 143.898 64.8794C143.537 64.7765 143.279 64.0564 143.382 63.3363C143.434 62.6162 143.279 61.8961 142.969 61.6904C142.659 61.4846 142.453 62.1019 142.453 63.182C142.453 64.6736 142.247 65.0337 141.421 65.0337C140.595 65.0337 140.388 64.6736 140.388 63.2334C140.388 62.2562 140.182 61.4332 139.872 61.4332C139.614 61.4332 139.356 62.2562 139.356 63.2334V65.0337H136.518C133.73 65.0337 133.679 64.9823 133.679 63.5421C133.679 62.1019 132.44 61.0217 131.872 61.9475Z" fill="white"/>
<path d="M149.469 62.0504C149.004 63.542 148.798 67.6055 149.211 67.6055C149.933 67.6055 150.294 66.6282 150.398 64.2107C150.501 61.999 149.933 60.6102 149.469 62.0504Z" fill="white"/>
<path d="M153.393 64.365C153.548 67.194 153.6 67.3483 154.993 67.5026C155.922 67.6055 156.49 67.3997 156.697 66.8854C156.903 66.3196 157.677 66.0624 158.916 66.0624C161.29 66.0624 162.064 65.3423 162.064 63.1306C162.064 60.9188 161.135 60.9188 160.929 63.0791C160.774 64.5708 160.568 64.7765 159.122 64.9308C157.522 65.0851 157.419 64.9823 157.419 63.5421C157.419 62.7191 157.213 61.8447 156.903 61.6904C156.593 61.4846 156.387 61.999 156.387 62.822C156.387 65.0337 155.819 66.5768 155.045 66.5768C154.529 66.5768 154.322 65.9081 154.322 64.3136C154.322 63.0277 154.064 61.8447 153.755 61.6904C153.393 61.4332 153.29 62.359 153.393 64.365Z" fill="white"/>
<path d="M166.453 62.2562C167.434 64.7765 167.382 65.0337 165.885 65.0337C164.853 65.0337 164.595 65.188 165.008 65.5995C165.369 65.9595 169.189 66.1138 176.569 66.0624C192.26 65.9081 191.124 66.011 191.692 64.4165C192.26 62.7705 191.331 61.3303 189.782 61.5361C188.75 61.6904 188.234 62.359 187.666 64.1079C187.305 65.2909 182.711 65.4452 182.711 64.3136C182.711 63.3363 180.182 61.3303 179.511 61.7932C179.202 61.9476 179.356 62.3076 179.924 62.6162C180.956 63.182 181.679 64.005 181.679 64.6222C181.679 64.8794 180.75 65.0337 179.614 65.0337C177.86 65.0337 177.498 64.828 177.24 63.7478C176.931 62.4619 175.382 61.6389 174.402 62.2047C174.143 62.4105 173.679 63.1306 173.369 63.8507C172.956 64.9823 172.647 65.0851 170.479 64.9308C168.208 64.7765 168.002 64.6736 167.743 63.2849C167.589 62.4619 167.176 61.6904 166.763 61.5361C166.247 61.3818 166.143 61.5361 166.453 62.2562ZM190.866 63.6449C190.763 64.2107 190.453 64.7765 190.143 64.8794C189.421 65.1366 188.853 63.7478 189.214 62.7705C189.627 61.6389 191.072 62.4105 190.866 63.6449ZM176.208 63.7992C176.621 64.828 176.156 65.5481 175.176 65.5481C174.763 65.5481 174.453 65.1366 174.453 64.6222C174.453 62.9248 175.64 62.359 176.208 63.7992Z" fill="white"/>
<path d="M197.266 62.0504C196.234 63.0791 196.492 65.4451 197.679 65.8052C198.247 66.0109 198.608 66.371 198.453 66.6282C197.937 67.3483 197.266 67.194 196.131 65.9595C194.84 64.5707 194.324 64.9308 195.408 66.4739C196.286 67.7083 198.608 68.0169 199.64 66.9882C200.57 66.0624 200.415 62.1018 199.434 61.7418C198.299 61.3303 197.989 61.3303 197.266 62.0504ZM199.382 63.4392C199.64 64.5707 199.382 65.0337 198.35 65.0337C197.989 65.0337 197.679 64.4679 197.679 63.7478C197.679 62.2047 198.97 61.999 199.382 63.4392Z" fill="white"/>
<path d="M202.376 62.1533C201.292 63.3877 201.859 65.7538 203.253 65.9595C204.234 66.1138 204.337 66.2681 203.821 66.8854C203.356 67.4512 203.408 67.6055 204.027 67.6055C205.008 67.6055 205.421 66.5253 205.421 63.6964C205.421 61.6389 205.317 61.4332 204.182 61.4332C203.511 61.4332 202.685 61.7418 202.376 62.1533ZM204.388 63.7478C204.388 64.5708 204.079 65.0337 203.614 65.0337C203.15 65.0337 202.84 64.5708 202.84 63.7478C202.84 62.9248 203.15 62.4619 203.614 62.4619C204.079 62.4619 204.388 62.9248 204.388 63.7478Z" fill="white"/>
<path d="M208.363 63.2849C208.621 64.8279 208.518 65.0337 207.537 65.0337C206.969 65.0337 206.453 65.2394 206.453 65.548C206.453 66.3196 224.156 66.2167 224.931 65.4452C226.634 63.7478 224.776 60.9188 222.711 62.0504C221.989 62.4619 221.679 62.4619 221.524 62.0504C221.111 60.7645 220.389 61.5361 220.389 63.2334C220.389 64.9822 220.337 65.0337 218.376 65.0337C216.311 65.0337 215.795 64.5193 215.692 62.3076C215.64 61.6389 215.485 61.9475 215.279 62.9763C214.969 64.7251 214.918 64.7765 212.285 64.9308C209.55 65.0851 209.55 65.0851 209.55 63.5935C209.55 62.7191 209.24 61.9475 208.827 61.7932C208.208 61.5361 208.156 61.8447 208.363 63.2849ZM224.363 64.2107C223.95 65.2394 221.937 65.2909 221.937 64.2621C221.937 63.3363 223.589 62.359 224.208 62.9763C224.466 63.2334 224.518 63.7992 224.363 64.2107Z" fill="white"/>
<path d="M117.989 67.0397C117.782 67.2969 117.886 67.6569 118.144 67.8112C118.402 68.017 118.763 67.9141 118.918 67.6569C119.124 67.3997 119.021 67.0397 118.763 66.8854C118.505 66.6796 118.144 66.7825 117.989 67.0397Z" fill="white"/>
<path d="M160.776 67.6055C160.931 67.8627 161.189 68.1198 161.344 68.1198C161.447 68.1198 161.55 67.8627 161.55 67.6055C161.55 67.2969 161.292 67.0911 160.982 67.0911C160.724 67.0911 160.621 67.2969 160.776 67.6055Z" fill="white"/>
<path d="M112.001 71.8747C110.453 72.6462 109.369 74.7036 109.73 76.1438C110.143 77.6355 112.672 79.0242 114.323 78.6127C116.904 77.9441 117.988 74.8579 116.285 72.8519C115.046 71.4632 113.549 71.1031 112.001 71.8747ZM114.84 73.572C115.872 74.6007 115.665 76.2981 114.478 77.0697C112.569 78.2527 110.556 75.2694 112.001 73.4692C112.827 72.5433 113.807 72.5433 114.84 73.572Z" fill="white"/>
<path d="M203.972 72.029C202.424 73.1091 202.527 74.0349 204.385 75.4237C205.263 76.0409 205.934 76.761 205.934 77.0182C205.934 77.2754 205.263 77.3783 204.385 77.2754C202.63 77.0182 202.166 78.0984 203.869 78.5613C207.327 79.4357 208.824 75.8352 205.624 74.3436C204.179 73.7263 204.385 72.7491 205.985 72.7491C207.172 72.7491 207.276 71.9775 206.14 71.5146C205.108 71.1031 205.314 71.0517 203.972 72.029Z" fill="white"/>
<path d="M100.643 73.1091C100.643 73.932 100.488 75.4237 100.333 76.4524C100.075 78.0469 100.127 78.407 100.849 78.407C101.365 78.407 101.675 77.944 101.675 77.1211C101.675 76.401 101.933 75.8352 102.191 75.8352C102.501 75.8352 103.017 76.401 103.327 77.1211C103.636 77.8412 104.101 78.407 104.359 78.407C104.617 78.407 105.081 77.8412 105.391 77.1211C105.701 76.401 106.165 75.8352 106.423 75.8352C106.63 75.8352 106.836 76.401 106.836 77.1211C106.836 77.944 107.146 78.407 107.611 78.407C108.436 78.407 108.591 76.9153 108.075 73.6234C107.611 71.1545 106.785 71.206 105.494 73.8806L104.411 76.0409L103.223 73.8806C101.83 71.4117 100.643 71.0516 100.643 73.1091Z" fill="white"/>
<path d="M118.191 75.0122C118.191 78.0984 118.295 78.407 119.275 78.407C120.049 78.407 120.308 78.1498 120.153 77.224C120.049 76.2981 120.256 76.0409 121.443 75.9381C122.63 75.7838 122.837 75.9381 122.837 77.0697C122.837 77.8926 123.146 78.407 123.611 78.407C124.23 78.407 124.385 77.6869 124.385 75.0637C124.385 72.4404 124.23 71.7203 123.611 71.7203C123.146 71.7203 122.837 72.1833 122.837 73.0062C122.837 74.755 120.411 74.9094 120.153 73.1605C120.049 72.4919 119.585 71.9261 119.12 71.8232C118.295 71.6689 118.191 72.0804 118.191 75.0122Z" fill="white"/>
<path d="M127.069 74.7036C126.45 76.3495 125.934 77.8412 125.934 78.0469C125.934 78.7156 127.379 78.407 127.688 77.6354C128.05 76.6067 129.546 76.6582 130.321 77.6869C130.63 78.1498 131.198 78.4584 131.456 78.3555C132.179 78.0984 129.65 71.7203 128.824 71.7203C128.514 71.7203 127.74 73.0577 127.069 74.7036ZM129.546 75.3723C129.546 75.6294 129.185 75.8352 128.772 75.8352C128.308 75.8352 128.153 75.5266 128.308 75.0636C128.617 74.2921 129.546 74.4979 129.546 75.3723Z" fill="white"/>
<path d="M133.678 73.4691C133.678 74.395 133.523 75.938 133.368 76.8124C133.11 78.0469 133.213 78.407 133.884 78.407C134.401 78.407 134.71 77.944 134.71 77.1725C134.71 75.2694 135.536 75.1151 136.259 76.8639C137.084 78.8184 137.549 78.8184 138.684 76.7096L139.613 75.0636L139.768 76.7096C139.872 77.7897 140.233 78.407 140.697 78.407C141.472 78.407 141.73 75.1665 141.11 72.8519C140.646 71.2574 139.82 71.6689 138.478 74.0349L137.394 75.9895L136.31 73.8292C134.917 71.206 133.678 71.0002 133.678 73.4691Z" fill="white"/>
<path d="M143.483 73.1091C143.483 73.9321 143.328 75.4237 143.173 76.4525C142.915 78.047 142.966 78.407 143.689 78.407C144.205 78.407 144.515 77.9441 144.515 77.1211C144.515 76.401 144.773 75.8352 145.031 75.8352C145.341 75.8352 145.805 76.401 146.063 77.1211C146.734 78.8699 147.405 78.7156 148.489 76.7096L149.418 75.0637L149.573 76.7096C149.831 79.3843 151.225 78.9214 151.225 76.1953C151.225 71.3603 149.986 70.383 148.283 73.8807L147.25 76.0924L146.115 73.8807C144.825 71.3603 143.483 71.0003 143.483 73.1091Z" fill="white"/>
<path d="M152.773 75.0636V78.407H154.838C155.973 78.407 156.902 78.1498 156.902 77.8926C156.902 77.584 156.335 77.3782 155.612 77.3782C154.786 77.3782 154.322 77.0696 154.322 76.6067C154.322 76.1952 154.786 75.8352 155.354 75.8352C155.922 75.8352 156.386 75.578 156.386 75.2694C156.386 74.9608 155.922 74.6007 155.354 74.4464C153.857 74.0349 154.064 72.749 155.612 72.749C156.335 72.749 156.902 72.4918 156.902 72.2347C156.902 71.9261 155.973 71.7203 154.838 71.7203H152.773V75.0636Z" fill="white"/>
<path d="M158.453 75.0637V78.407H160.414C162.84 78.407 164.131 77.1725 164.131 74.9094C164.131 72.9548 162.582 71.7203 160.156 71.7203H158.453V75.0637ZM162.479 74.755C162.634 75.5266 162.324 76.2981 161.756 76.7096C160.311 77.7898 160.002 77.5326 160.002 75.2694C160.002 73.4177 160.105 73.212 161.189 73.3663C161.963 73.4692 162.376 73.9321 162.479 74.755Z" fill="white"/>
<path d="M168.773 75.1151V78.4584L170.632 78.3041C172.954 78.0984 173.986 76.8125 173.006 75.3209C172.644 74.7036 172.49 74.035 172.696 73.7263C173.212 72.8519 171.819 71.7204 170.27 71.7204H168.773V75.1151ZM171.354 73.5206C171.354 73.9321 170.993 74.2921 170.58 74.2921C170.167 74.2921 169.806 73.9321 169.806 73.5206C169.806 73.1091 170.167 72.7491 170.58 72.7491C170.993 72.7491 171.354 73.1091 171.354 73.5206ZM171.767 76.5039C171.87 77.1211 171.612 77.3783 170.89 77.3783C170.27 77.3783 169.806 77.0697 169.806 76.7096C169.806 75.1151 171.457 74.9608 171.767 76.5039Z" fill="white"/>
<path d="M174.969 75.0636C174.969 77.6869 175.124 78.407 175.743 78.407C176.362 78.407 176.517 77.6869 176.517 75.0636C176.517 72.4404 176.362 71.7203 175.743 71.7203C175.124 71.7203 174.969 72.4404 174.969 75.0636Z" fill="white"/>
<path d="M178.066 75.0636C178.066 77.6869 178.221 78.407 178.841 78.407C179.357 78.407 179.615 77.8412 179.615 76.6067C179.615 75.6294 179.821 74.8065 180.079 74.8065C180.337 74.8065 181.266 75.6294 182.144 76.6067C183.021 77.584 183.95 78.407 184.26 78.407C184.57 78.407 184.776 77.0182 184.776 75.0636C184.776 72.4404 184.621 71.7203 184.002 71.7203C183.486 71.7203 183.228 72.2347 183.228 73.2634C183.228 74.0864 183.021 74.8065 182.815 74.8065C182.557 74.8065 181.731 74.0864 180.905 73.2634C178.583 70.8459 178.066 71.206 178.066 75.0636Z" fill="white"/>
<path d="M188.902 75.0636C188.902 77.6869 189.057 78.407 189.677 78.407C190.089 78.407 190.451 77.944 190.451 77.4297C190.451 75.8352 191.277 75.7323 192.206 77.1211C192.67 77.8412 193.444 78.407 193.857 78.407C194.631 78.407 194.58 78.2526 193.806 77.0696C193.135 76.0409 193.031 75.4237 193.444 74.6007C194.27 72.8005 193.341 71.7203 190.967 71.7203H188.902V75.0636ZM192.309 73.3148C192.825 74.1892 191.638 75.1665 190.915 74.4464C190.296 73.8292 190.709 72.749 191.483 72.749C191.741 72.749 192.102 73.0062 192.309 73.3148Z" fill="white"/>
<path d="M196.904 74.6007C196.181 76.1952 195.613 77.6869 195.613 77.944C195.613 78.7156 197.058 78.4584 197.368 77.6354C197.729 76.6067 199.587 76.6582 200.155 77.6869C200.413 78.1498 200.878 78.4584 201.187 78.3555C201.807 78.0984 199.381 71.7203 198.658 71.7203C198.4 71.7203 197.626 73.0062 196.904 74.6007ZM199.226 75.0636C199.226 75.4751 199.02 75.8352 198.71 75.8352C198.452 75.8352 198.194 75.4751 198.194 75.0636C198.194 74.6522 198.452 74.2921 198.71 74.2921C199.02 74.2921 199.226 74.6522 199.226 75.0636Z" fill="white"/>
<path d="M209.031 75.0636C209.031 77.6869 209.186 78.407 209.805 78.407C210.27 78.407 210.58 77.944 210.58 77.1211C210.58 76.0923 210.838 75.8352 211.87 75.8352C212.902 75.8352 213.16 76.0923 213.16 77.1211C213.16 77.944 213.47 78.407 213.934 78.407C214.554 78.407 214.709 77.6869 214.709 75.0636C214.709 72.4404 214.554 71.7203 213.934 71.7203C213.47 71.7203 213.16 72.1832 213.16 73.0062C213.16 74.0349 212.902 74.2921 211.87 74.2921C210.838 74.2921 210.58 74.0349 210.58 73.0062C210.58 72.1832 210.27 71.7203 209.805 71.7203C209.186 71.7203 209.031 72.4404 209.031 75.0636Z" fill="white"/>
<path d="M216.773 75.0636C216.773 77.6869 216.928 78.407 217.548 78.407C218.167 78.407 218.322 77.6869 218.322 75.0636C218.322 72.4404 218.167 71.7203 217.548 71.7203C216.928 71.7203 216.773 72.4404 216.773 75.0636Z" fill="white"/>
<path d="M219.871 75.0636V78.407H221.936C224.207 78.407 226.065 77.0696 226.065 75.3722C226.065 74.8579 225.6 73.8292 224.981 73.0576C224.155 72.0289 223.484 71.7203 221.884 71.7203H219.871V75.0636ZM223.897 73.8806C224.723 74.7036 224.671 75.578 223.69 76.5553C222.245 77.9955 221.419 77.584 221.419 75.3208C221.419 73.6749 221.626 73.2634 222.349 73.2634C222.865 73.2634 223.536 73.5206 223.897 73.8806Z" fill="white"/>
<path d="M128.103 81.7503C125.419 82.9333 124.593 86.4824 126.451 88.8484C127.845 90.5972 130.477 91.1116 132.542 90.0314C135.225 88.6427 135.896 86.3795 134.451 83.5505C133.78 82.2132 133.161 81.8532 130.58 81.2359C130.167 81.1331 129.032 81.3388 128.103 81.7503ZM132.232 83.9106C134.038 85.5051 132.748 88.6941 130.271 88.6941C127.793 88.6941 126.658 85.8652 128.361 83.962C129.393 82.8304 130.993 82.779 132.232 83.9106Z" fill="white"/>
<path d="M168.567 81.5445C166.192 82.2132 165.16 83.4477 165.16 85.8651C165.16 89.2085 167.844 91.3688 171.096 90.5458C174.502 89.6714 175.792 85.2993 173.367 82.7276C172.128 81.3902 170.58 81.0302 168.567 81.5445ZM171.767 83.6534C172.128 84.0134 172.386 84.9907 172.386 85.8651C172.386 87.8197 171.56 88.6941 169.805 88.6941C167.999 88.6941 167.225 87.8197 167.225 85.7623C167.225 83.3962 170.167 82.0589 171.767 83.6534Z" fill="white"/>
<path d="M100.645 85.8137C100.645 89.0541 100.851 90.1857 101.367 90.3915C102.554 90.8544 102.709 90.2886 102.709 85.7622C102.709 81.8531 102.606 81.4931 101.677 81.4931C100.748 81.4931 100.645 81.8531 100.645 85.8137Z" fill="white"/>
<path d="M104.773 86.0709C104.773 90.1343 104.877 90.6487 105.702 90.5458C106.373 90.4429 106.632 89.7742 106.838 87.6139L107.096 84.8364L109.625 87.8197C111.07 89.4142 112.361 90.7515 112.619 90.7515C112.825 90.7515 113.032 88.6427 113.032 86.1223C113.032 81.8531 112.98 81.4931 111.999 81.4931C111.122 81.4931 110.967 81.8531 110.967 83.9106L110.915 86.3795L108.748 83.9106C105.341 80.2072 104.773 80.5158 104.773 86.0709Z" fill="white"/>
<path d="M115.2 85.968C115.303 89.5685 115.509 90.4943 116.129 90.4943C116.696 90.4943 116.955 89.7742 117.058 87.7683C117.161 86.3281 117.367 85.0936 117.574 85.0936C117.78 85.0936 119.071 86.3795 120.413 87.9226C121.806 89.4656 123.096 90.7515 123.406 90.7515C123.664 90.7515 123.871 88.6427 123.871 86.1223C123.871 81.8531 123.819 81.4931 122.838 81.4931C121.961 81.4931 121.806 81.8531 121.806 83.8077C121.806 85.0936 121.651 86.1223 121.496 86.1223C121.29 86.1223 120.258 85.0936 119.122 83.8077C117.987 82.5218 116.645 81.4931 116.077 81.4931C115.148 81.4931 115.045 81.8017 115.2 85.968Z" fill="white"/>
<path d="M137.291 85.6594C139.097 90.5972 139.562 91.2659 140.594 90.2372C141.162 89.62 144 82.5218 144 81.6989C144 81.596 143.536 81.4931 143.02 81.4931C142.297 81.4931 141.781 82.1618 141.162 84.0649C140.697 85.4537 140.129 86.6367 139.974 86.6367C139.768 86.6367 139.252 85.5565 138.839 84.1678C138.22 82.3675 137.755 81.6989 136.878 81.596L135.742 81.4417L137.291 85.6594Z" fill="white"/>
<path d="M145.084 85.6594C144.207 87.9226 143.484 90.0314 143.484 90.2886C143.484 91.1116 144.465 90.803 145.136 89.7228C146.065 88.2826 148.955 88.2826 149.42 89.7743C149.73 90.7515 151.433 91.0087 151.433 90.0829C151.433 89.8257 150.762 87.8197 149.936 85.5565C147.923 80.1558 147.201 80.1558 145.084 85.6594ZM148.13 86.4824C148.13 86.8424 147.768 87.151 147.355 87.151C146.53 87.151 146.375 86.6881 146.891 85.3508C147.149 84.6821 147.304 84.6307 147.665 85.1965C147.923 85.5565 148.13 86.1738 148.13 86.4824Z" fill="white"/>
<path d="M151.328 82.1104C151.483 82.4704 152.206 82.8305 152.928 82.9333C154.27 83.0877 154.322 83.1905 154.322 86.6881C154.322 89.8772 154.425 90.2372 155.354 90.2372C156.283 90.2372 156.386 89.8772 156.386 86.6367C156.386 83.1391 156.438 83.0362 157.676 83.0362C158.502 83.0362 158.967 82.7276 158.967 82.2647C158.967 81.6475 158.193 81.4931 155.044 81.4931C152.154 81.4931 151.173 81.6475 151.328 82.1104Z" fill="white"/>
<path d="M161.031 86.1738C161.031 90.3401 161.134 90.803 161.96 90.6487C162.683 90.4944 162.838 89.7743 162.993 85.968C163.147 81.7503 163.096 81.4931 162.064 81.4931C161.083 81.4931 161.031 81.8017 161.031 86.1738Z" fill="white"/>
<path d="M176.618 85.968C176.722 89.5685 176.928 90.4943 177.547 90.4943C178.115 90.4943 178.373 89.7228 178.58 87.7168L178.838 84.9393L181.522 87.8711C183.018 89.4656 184.309 90.7515 184.464 90.7515C184.67 90.7515 184.773 88.6427 184.773 86.1223C184.773 81.7503 184.722 81.4931 183.689 81.4931C182.709 81.4931 182.605 81.6988 182.864 83.5505C183.018 84.6821 182.915 85.7108 182.709 85.8651C182.451 86.0194 181.418 85.0936 180.386 83.8077C179.302 82.5218 178.012 81.4931 177.444 81.4931C176.567 81.4931 176.464 81.8531 176.618 85.968Z" fill="white"/>
<path d="M190.453 85.8652C190.453 89.8772 190.556 90.2372 191.485 90.2372C192.311 90.2372 192.518 89.8772 192.518 88.437C192.518 86.8425 192.672 86.6367 193.808 86.6367C194.634 86.6367 195.098 86.3281 195.098 85.8652C195.098 85.4023 194.634 85.0936 193.808 85.0936C192.879 85.0936 192.518 84.8365 192.518 84.0649C192.518 83.242 192.879 83.0362 194.066 83.0362C195.098 83.0362 195.614 82.779 195.614 82.2647C195.614 81.6989 194.995 81.4931 193.034 81.4931H190.453V85.8652Z" fill="white"/>
<path d="M197.676 85.2993C197.676 88.6941 197.831 89.2599 198.811 89.9286C200.411 91.0601 202.424 90.9573 204.076 89.6714C205.314 88.6941 205.418 88.2826 205.418 85.0422C205.418 81.8532 205.314 81.4931 204.385 81.4931C203.456 81.4931 203.353 81.8532 203.353 84.2706C203.353 87.8711 202.992 88.6941 201.547 88.6941C199.844 88.6941 199.482 87.8711 199.637 84.4249C199.792 81.7503 199.689 81.4931 198.708 81.4931C197.779 81.4931 197.676 81.8017 197.676 85.2993Z" fill="white"/>
<path d="M207.484 86.1737C207.484 90.34 207.588 90.803 208.413 90.6487C209.084 90.5458 209.342 89.8257 209.549 87.6654L209.807 84.8879L212.388 87.8197C213.781 89.4142 215.123 90.7515 215.33 90.7515C215.536 90.7515 215.742 88.6427 215.742 86.1223C215.742 81.8531 215.691 81.4931 214.71 81.4931C213.833 81.4931 213.678 81.8531 213.678 83.9106V86.3795L211.304 83.9106C207.897 80.3615 207.484 80.5673 207.484 86.1737Z" fill="white"/>
<path d="M217.909 85.968L218.064 90.4944L220.593 90.3915C223.844 90.2886 225.754 88.5912 225.754 85.8137C225.754 83.0876 223.741 81.4931 220.335 81.4931H217.754L217.909 85.968ZM222.967 84.1678C223.535 84.785 223.999 85.608 223.999 85.968C223.999 86.9967 222.089 88.6941 220.902 88.6941C219.973 88.6941 219.87 88.3341 219.87 85.8651C219.87 83.3962 220.025 83.0362 220.902 83.0362C221.418 83.0362 222.347 83.5505 222.967 84.1678Z" fill="white"/>
</svg>
