<svg xmlns="http://www.w3.org/2000/svg" width="238" height="144" viewBox="0 0 238 144" fill="none">
  <path d="M140.48 52.1048V76.3339H147.193V52.1048H140.48ZM86.7734 52.1048V76.3339H93.6682V57.3878H99.1114C100.926 57.3878 102.014 57.7522 102.922 58.663C104.01 59.7561 104.373 61.76 104.373 65.0391V76.1517H111.087V62.853C111.087 53.1978 104.918 51.9226 99.1114 51.9226L86.7734 52.1048ZM151.366 52.1048V76.3339H162.434C168.422 76.3339 170.236 75.423 172.414 73.237C173.865 71.7796 174.772 68.3183 174.772 64.4926C174.772 61.0313 174.047 58.1165 172.595 56.1126C170.055 52.6513 166.426 52.1048 160.983 52.1048H151.366ZM158.08 57.3878H160.983C165.156 57.3878 168.059 59.2095 168.059 64.3104C168.059 69.4113 165.337 71.233 160.983 71.233H158.08V57.3878ZM130.501 52.1048L124.876 71.4152L119.433 52.1048H111.994L119.796 76.3339H129.594L137.396 52.1048H130.501ZM178.038 76.3339H184.933V52.1048H178.038V76.3339ZM197.09 52.1048L187.655 76.3339H194.368L195.82 71.9617H207.069L208.52 76.1517H215.778L206.162 51.9226L197.09 52.1048ZM201.444 56.4769L205.617 67.7717H197.271L201.444 56.4769Z" fill="white"/>
  <path d="M42.6843 56.1126V52.8335C43.0472 52.8335 43.4101 52.8335 43.5915 52.8335C52.6635 52.4691 58.6511 60.667 58.6511 60.667C58.6511 60.667 52.3007 69.5935 45.4059 69.5935C44.4987 69.5935 43.5915 69.4113 42.6843 69.2292V59.0274C46.3131 59.3918 46.8574 61.0313 49.0347 64.4926L53.7522 60.4848C53.7522 60.4848 50.3048 55.9305 44.4987 55.9305C43.9544 55.9305 43.4101 56.1126 42.6843 56.1126ZM42.6843 45V49.9187H43.5915C56.2924 49.5544 64.4572 60.3026 64.4572 60.3026C64.4572 60.3026 55.0223 71.7796 45.2245 71.7796C44.3173 71.7796 43.5915 71.7796 42.6843 71.5974V74.6944C43.4101 74.6944 44.1358 74.8766 44.8616 74.8766C54.1151 74.8766 60.647 70.14 67.1788 64.6748C68.2675 65.5857 72.6221 67.5896 73.5293 68.5005C67.3603 73.6014 53.0264 77.7914 45.043 77.7914C44.3173 77.7914 43.5915 77.7914 42.8657 77.6092V81.9814H77.7024V45H42.6843ZM42.6843 69.047V71.5974C34.1566 70.14 31.7978 61.2135 31.7978 61.2135C31.7978 61.2135 35.7895 56.6592 42.6843 55.9305V58.8452C39.0555 58.4809 36.3338 61.76 36.3338 61.76C36.3338 61.76 37.9668 67.4074 42.6843 69.047ZM27.6247 61.0313C27.6247 61.0313 32.705 53.5622 42.6843 52.8335V50.1009C31.6164 51.0117 22 60.4848 22 60.4848C22 60.4848 27.4432 76.334 42.6843 77.7914V74.8766C31.4349 73.4192 27.6247 61.0313 27.6247 61.0313Z" fill="white"/>
</svg>
