<svg xmlns="http://www.w3.org/2000/svg" width="241" height="144" viewBox="0 0 241 144" fill="none">
  <mask id="mask0_316_568" style="mask-type:luminance" maskUnits="userSpaceOnUse" x="171" y="32" width="62" height="62">
    <path d="M171.422 32V93.0958H232.468V32H171.422Z" fill="white"/>
  </mask>
  <g mask="url(#mask0_316_568)">
    <path d="M141.145 58.5956L205.869 1.72534L262.74 66.4998L197.965 123.37L141.145 58.5956Z" fill="#3B3B3B"/>
  </g>
  <path d="M18.2538 57.8001C19.1486 57.8001 19.8445 57.0544 19.8445 56.1596C19.8445 55.3145 19.0989 54.5688 18.2538 54.5688C17.359 54.5688 16.6133 55.2648 16.6133 56.1596C16.6133 57.1041 17.3092 57.8001 18.2538 57.8001Z" fill="white"/>
  <path d="M22.8788 73.5588C21.9342 73.5588 21.2383 74.2548 21.2383 75.1496C21.2383 76.0444 21.9342 76.7404 22.8788 76.7404C23.7239 76.7404 24.4695 75.9947 24.4695 75.1496C24.4695 74.2548 23.7239 73.5588 22.8788 73.5588Z" fill="white"/>
  <path d="M25.2615 66.5496C25.2615 67.9913 24.7147 68.4884 23.2233 68.4884H21.4834V64.9091C21.4834 61.2802 19.6441 59.3911 16.1643 59.3911C11.9388 59.3911 10 62.3241 10 65.2571C10 67.3947 10.696 68.9855 11.9388 69.8803C13.3804 70.8248 14.6232 71.0237 17.4071 71.0237H23.3228C26.4546 71.0237 28.2442 69.8306 28.2442 66.649V59.3911H25.1621V66.5496H25.2615ZM18.5007 68.4884H16.7608C14.2255 68.4884 13.1816 67.4941 13.1816 65.1577C13.1816 63.2189 14.2752 61.9264 16.0151 61.9264C17.755 61.9264 18.5504 62.9704 18.5504 65.2074V68.4884H18.5007Z" fill="white"/>
  <path d="M14.5205 57.8001C15.4153 57.8001 16.1112 57.0544 16.1112 56.1596C16.1112 55.3145 15.3656 54.5688 14.5205 54.5688C13.6257 54.5688 12.9297 55.2648 12.9297 56.1596C12.9297 57.1041 13.5759 57.8001 14.5205 57.8001Z" fill="white"/>
  <path d="M40.4277 65.2571C40.4277 62.3241 38.5387 59.3911 34.3132 59.3911H31.8773V61.9264H34.512C36.2519 61.9264 37.3456 63.1692 37.3456 65.1577V68.4884H29.4414V71.0237H40.4277V65.2571Z" fill="white"/>
  <path d="M26.5556 73.5588C25.6608 73.5588 24.9648 74.2548 24.9648 75.1496C24.9648 76.0444 25.6608 76.7404 26.5556 76.7404C27.4504 76.7404 28.1961 75.9947 28.1961 75.1496C28.1961 74.2548 27.4504 73.5588 26.5556 73.5588Z" fill="white"/>
  <path d="M146.014 53.7241H143.031V71.0238H146.014V53.7241Z" fill="white"/>
  <path d="M144.023 73.5589V76.4422C144.968 76.5913 145.664 76.6908 146.36 76.6908C150.486 76.6908 152.524 74.8017 152.524 70.8745V60.5344H149.392V70.9242C149.392 72.863 148.299 74.056 146.559 74.056C145.465 74.056 144.67 73.8075 144.371 73.7081L144.023 73.5589Z" fill="white"/>
  <path d="M157.494 55.613H154.512V71.0734H157.494V55.613Z" fill="white"/>
  <path d="M106.539 69.8805C107.981 70.8251 109.224 71.0239 112.008 71.0239H113.052C113.002 73.0124 111.908 74.0066 109.771 74.0066C108.826 74.0066 107.633 73.8575 106.39 73.4598L106.191 73.4101V76.2934C107.732 76.5419 108.876 76.6911 109.92 76.6911C113.996 76.6911 116.084 74.802 116.134 71.0736H133.682C138.504 71.0736 141.089 69.8308 141.089 65.3071C141.089 62.3741 139.2 59.4411 134.974 59.4411C131.544 59.4411 129.655 61.3301 129.655 64.9591V68.5383H126.921C127.319 67.7926 127.567 66.8481 127.567 65.7048C127.567 63.1695 125.927 60.1867 121.453 60.1867H121.055L126.871 53.7739H123.242C121.055 56.2098 117.774 59.789 117.376 60.1867V62.7718H121.602C122.894 62.7718 124.435 63.2689 124.435 65.6053C124.435 67.7429 123.491 68.5383 120.856 68.5383H116.034V64.9591C116.034 61.3301 114.195 59.4411 110.715 59.4411C106.49 59.4411 104.551 62.3741 104.551 65.3071C104.6 67.3949 105.296 68.9857 106.539 69.8805ZM132.688 65.2076C132.688 62.9706 133.483 61.9267 135.223 61.9267C136.963 61.9267 138.057 63.1695 138.057 65.1579C138.057 67.4944 137.013 68.4886 134.527 68.4886H132.688V65.2076ZM110.516 61.9267C112.256 61.9267 113.002 62.9706 113.002 65.2076V68.4389H111.312C108.776 68.4389 107.732 67.4447 107.732 65.1082C107.732 63.2192 108.826 61.9267 110.516 61.9267Z" fill="white"/>
  <path d="M88.9442 71.0238C90.2368 71.0238 91.579 70.7255 92.2749 70.2781C93.2195 69.7313 93.6669 68.7371 93.7166 68.24C93.816 67.8423 93.8657 67.4446 93.8657 66.5995V53.7241H90.7836V66.5001C90.7836 67.9417 90.2368 68.4388 88.7454 68.4388H87.9997C87.5026 68.4388 87.0055 68.3394 86.4587 68.1405C86.5084 67.7428 86.5581 67.2954 86.5581 66.7983V60.4849H83.5257V66.5995C83.5257 67.9417 82.9291 68.4885 81.5869 68.4885C81.0898 68.4885 80.5927 68.4388 80.0458 68.24C80.0956 67.7926 80.1453 67.3949 80.1453 66.7486V60.4849H77.1128V66.5995C77.1128 67.7926 76.8146 68.2897 75.9695 68.4388H74.4284C74.1798 68.4388 73.6827 68.4885 73.6827 68.1903V60.4849H70.6503V68.4388H65.5797C67.2202 66.6989 68.2144 64.8098 68.2144 63.4179C68.2144 60.6838 64.9335 59.2918 61.7022 59.2918C58.4709 59.2918 55.1899 60.6838 55.1899 63.4179C55.1899 65.3567 56.9299 67.4446 57.9241 68.4388H53.3009V64.8596C53.3009 61.2306 51.4616 59.3416 47.9817 59.3416C43.7562 59.3416 41.8672 62.2746 41.8672 65.2075C41.8672 67.3452 42.5134 68.9359 43.8059 69.8307C45.2476 70.7753 46.4904 70.9741 49.2742 70.9741H50.3182C50.2685 72.9626 49.1748 73.9568 47.0372 73.9568C46.0927 73.9568 44.8996 73.8077 43.6568 73.41L43.458 73.3603V76.2436C44.999 76.4921 46.1424 76.6413 47.1863 76.6413C51.2627 76.6413 53.3506 74.7522 53.4003 71.0238H73.9313C74.5278 71.0735 75.1244 71.1232 75.7209 71.1232C76.8643 71.1232 77.7591 70.9244 78.5545 70.477C79.6481 70.9244 80.9406 71.1232 82.1834 71.1232C83.3268 71.1232 84.3211 70.8747 85.017 70.3776C86.0113 70.825 87.254 71.0238 88.646 71.0238H88.9442ZM50.2188 68.4885H48.4789C45.9436 68.4885 44.8996 67.4943 44.8996 65.1578C44.8996 63.2191 45.9933 61.9266 47.7332 61.9266C49.4731 61.9266 50.2685 62.9705 50.2685 65.2075V68.4885H50.2188ZM61.7022 68.2897C61.2548 68.2897 58.0732 65.2573 58.0732 63.4676C58.0732 62.4734 60.012 61.9266 61.8016 61.9266C63.5415 61.9266 65.3809 62.4734 65.3809 63.4676C65.3809 65.2075 62.2987 68.2897 61.7022 68.2897Z" fill="white"/>
  <path d="M99.1858 53.7241H96.2031V71.0238H99.1858V53.7241Z" fill="white"/>
  <path d="M158.237 52.8788H156.547C155.851 52.8291 155.702 52.7297 155.702 52.1829C155.702 51.5863 155.9 51.4372 156.646 51.4372C157.093 51.4372 157.441 51.5366 157.939 51.8846V50.443L157.69 50.3435C157.342 50.1944 156.994 50.095 156.596 50.095C155.055 50.095 154.21 50.8406 154.21 52.1829C154.21 52.4811 154.26 52.68 154.359 52.8291H153.812V54.1713H158.237V52.8788Z" fill="white"/>
  <path d="M153.767 81.5129C150.536 81.5129 147.852 84.1477 147.852 87.4286C147.852 90.7096 150.486 93.3444 153.767 93.3444C156.999 93.3444 159.633 90.7096 159.633 87.4286C159.633 84.1477 156.999 81.5129 153.767 81.5129ZM153.767 90.6102C151.978 90.6102 150.536 89.1686 150.536 87.3789C150.536 85.639 151.978 84.1974 153.767 84.1974C155.507 84.1974 156.949 85.639 156.949 87.3789C156.949 89.1686 155.507 90.6102 153.767 90.6102Z" fill="white"/>
  <path d="M132.143 81.3638C130.85 81.3638 129.508 81.6123 128.464 82.0597C127.619 81.5626 126.774 81.3638 125.581 81.3638C124.089 81.3638 122.548 81.5626 120.908 82.1094L120.609 82.2089V93.046H123.542V84.1476C124.139 83.9488 124.586 83.8991 125.183 83.8991C126.625 83.8991 127.072 84.3465 127.072 85.8875V93.046H130.055V85.6887C130.055 85.0424 130.005 84.595 129.905 84.1973C130.502 83.9985 130.949 83.8991 131.496 83.8991C132.888 83.8991 133.534 84.5453 133.534 85.8875V93.046H136.467V85.639C136.467 84.1973 136.219 83.3025 135.573 82.6066C134.926 81.8609 133.684 81.3638 132.143 81.3638Z" fill="white"/>
  <path d="M143.972 90.7592C141.984 90.7592 140.89 89.5164 140.89 87.4285C140.89 85.2412 142.033 83.9984 144.022 83.9984C144.42 83.9984 144.768 84.0482 145.116 84.1476C145.116 84.1476 145.712 84.3464 146.259 84.7441L147.502 82.6065C146.806 82.0597 146.01 81.8111 145.762 81.7117C145.016 81.4631 143.873 81.4631 143.873 81.4631C140.343 81.4631 137.957 83.899 137.957 87.5777C137.957 91.1072 140.194 93.3443 143.724 93.3443C143.724 93.3443 146.06 93.4437 147.651 92.002L146.159 90.113C145.314 90.5604 144.768 90.7592 143.972 90.7592Z" fill="white"/>
  <path d="M105.547 81.4631C101.322 81.4631 99.3828 83.3025 99.3828 87.2794V93.0957H102.415V87.528V87.2794C102.415 85.2909 103.559 84.0482 105.299 84.0482C106.044 84.0482 106.591 84.1973 106.989 84.2967L107.685 81.662C106.492 81.4631 105.547 81.4631 105.547 81.4631Z" fill="white"/>
  <path d="M118.918 86.9313V93.0459H114.891C112.108 93.0459 110.865 92.847 109.423 91.9025C108.18 91.0574 107.484 89.4169 107.484 87.2793C107.484 84.3463 109.423 81.4133 113.649 81.4133C117.029 81.463 118.918 83.3521 118.918 86.9313ZM115.935 87.2793C115.935 85.0423 115.09 83.9486 113.35 83.9486C111.61 83.9486 110.467 85.2411 110.467 87.1799C110.467 89.5163 111.61 90.5603 114.096 90.5603H115.935V87.2793Z" fill="white"/>
  <path d="M97.7384 86.9313V93.0459H93.7117C90.9279 93.0459 89.6851 92.847 88.2435 91.9025C87.0007 91.0574 86.3047 89.4169 86.3047 87.2793C86.3047 84.3463 88.2435 81.4133 92.469 81.4133C95.8991 81.463 97.7384 83.3521 97.7384 86.9313ZM94.6563 87.2793C94.6563 85.0423 93.8609 83.9486 92.121 83.9486C90.3811 83.9486 89.2377 85.2411 89.2377 87.1799C89.2377 89.5163 90.3811 90.5603 92.8666 90.5603H94.6563V87.2793Z" fill="white"/>
  <path d="M34.5599 86.0866C32.7703 85.5398 32.0246 85.2415 32.0246 84.6947C32.0246 84.0981 32.9194 83.7501 34.0628 83.7501C35.1564 83.7501 36.2501 83.9987 37.0455 84.2473L37.7415 81.6623C36.5484 81.364 35.1067 81.2148 34.1125 81.2148C30.9309 81.2148 29.191 82.6565 29.191 84.7941C29.191 85.8878 29.4893 87.3294 32.82 88.2739C34.8085 88.8705 35.5044 88.9202 35.5044 89.5664C35.5044 90.2624 34.2616 90.8092 32.8697 90.8092C31.4281 90.8092 29.9367 90.163 28.9922 89.7156V92.4994C30.0858 92.9468 31.4281 93.2948 32.82 93.2948C36.2998 93.2948 38.338 91.8035 38.338 89.5664C38.3877 87.8265 37.3438 86.882 34.5599 86.0866Z" fill="white"/>
  <path d="M59.8126 88.7708C59.8126 90.2124 59.2658 90.7096 57.7247 90.7096H57.5756C56.0345 90.7096 55.4877 90.1627 55.4877 88.7708V81.6123H52.5547V88.9696C52.5547 92.3998 54.4934 93.2946 57.4264 93.2946H57.9236C61.0554 93.2946 62.8947 92.3998 62.8947 88.9696V81.6123H59.8623V88.7708H59.8126Z" fill="white"/>
  <path d="M78.7509 77.4365C77.8561 77.4365 77.1602 78.1325 77.1602 79.0273C77.1602 79.9221 77.8561 80.6181 78.7509 80.6181C79.6457 80.6181 80.3417 79.9221 80.3417 79.0273C80.3417 78.1822 79.6457 77.4365 78.7509 77.4365Z" fill="white"/>
  <path d="M80.2377 81.9604H77.3047V93.0959H80.2377V81.9604Z" fill="white"/>
  <path d="M50.8595 86.9313V93.0459H46.8328C44.049 93.0459 42.8062 92.847 41.3645 91.9025C40.1217 91.0574 39.4258 89.4169 39.4258 87.2793C39.4258 84.3463 41.3645 81.4133 45.59 81.4133C48.9704 81.463 50.8595 83.3521 50.8595 86.9313ZM47.8768 87.2793C47.8768 85.0423 47.0317 83.9486 45.2918 83.9486C43.5519 83.9486 42.4085 85.2411 42.4085 87.1799C42.4085 89.5163 43.5519 90.5603 46.0374 90.5603H47.8768V87.2793Z" fill="white"/>
  <path d="M75.4178 77.188V93.046H71.7391C68.9552 93.046 67.7124 92.8472 66.2708 91.9027C65.028 91.0576 64.332 89.4171 64.332 87.2795C64.332 83.7499 66.7182 81.4632 70.1483 81.4632H70.4466C71.1923 81.4632 71.9379 81.7118 72.5842 82.1095V77.188H75.4178ZM72.5842 87.3292C72.5842 84.943 71.9379 83.9985 70.2477 83.9985C68.5078 83.9985 67.3645 85.291 67.3645 87.2298C67.3645 89.5662 68.4581 90.6102 70.9934 90.6102H72.5842V87.3292Z" fill="white"/>
  <path d="M205.069 57.6512C205.814 57.9992 206.262 58.7449 206.162 59.3414C206.063 59.9379 205.417 60.1368 204.671 59.7888C203.925 59.3911 203.428 58.6454 203.577 58.0489C203.677 57.4523 204.323 57.3032 205.069 57.6512Z" fill="white"/>
  <path d="M207.211 45.8698C207.807 46.1681 208.205 46.7149 208.155 47.0629C208.106 47.4606 207.559 47.5103 206.962 47.1623C206.366 46.8641 205.918 46.3172 206.018 45.9195C206.117 45.6213 206.614 45.5716 207.211 45.8698Z" fill="white"/>
  <path d="M207.405 44.7263C207.902 44.9748 208.25 45.4222 208.201 45.7205C208.151 46.0188 207.703 46.0685 207.206 45.7702C206.709 45.5217 206.361 45.0743 206.411 44.776C206.51 44.4777 206.908 44.4777 207.405 44.7263Z" fill="white"/>
  <path d="M207.603 43.5829C208.05 43.8315 208.398 44.2292 208.348 44.4777C208.299 44.7263 207.901 44.776 207.454 44.5274C207.006 44.2789 206.658 43.8812 206.708 43.5829C206.758 43.3343 207.155 43.3343 207.603 43.5829Z" fill="white"/>
  <path d="M207.804 42.4396C208.251 42.6882 208.549 43.0361 208.5 43.2847C208.45 43.5333 208.102 43.5333 207.654 43.2847C207.207 43.0361 206.909 42.6882 206.959 42.4396C207.008 42.191 207.356 42.191 207.804 42.4396Z" fill="white"/>
  <path d="M207.95 41.3956C208.348 41.5944 208.646 41.9424 208.597 42.1413C208.547 42.3401 208.249 42.3401 207.851 42.1413C207.453 41.9424 207.155 41.5944 207.205 41.3956C207.205 41.147 207.553 41.1967 207.95 41.3956Z" fill="white"/>
  <path d="M208.104 40.4509C208.452 40.6497 208.7 40.948 208.7 41.1469C208.651 41.3457 208.352 41.3457 208.004 41.1469C207.656 40.948 207.358 40.6497 207.408 40.4509C207.457 40.252 207.756 40.252 208.104 40.4509Z" fill="white"/>
  <path d="M208.25 39.5066C208.598 39.7055 208.847 39.954 208.797 40.1529C208.747 40.3517 208.499 40.302 208.151 40.1529C207.803 39.954 207.554 39.7055 207.604 39.5066C207.654 39.3078 207.902 39.3575 208.25 39.5066Z" fill="white"/>
  <path d="M208.402 38.6119C208.701 38.7611 208.899 38.9599 208.899 39.1588C208.85 39.3079 208.651 39.3079 208.353 39.109C208.054 38.9599 207.855 38.7113 207.855 38.5622C207.855 38.4131 208.104 38.4628 208.402 38.6119Z" fill="white"/>
  <path d="M208.548 37.7169C208.796 37.866 208.995 38.0649 208.995 38.214C208.946 38.3632 208.747 38.3134 208.498 38.1643C208.25 38.0152 208.051 37.8163 208.051 37.6672C208.051 37.5181 208.25 37.5678 208.548 37.7169Z" fill="white"/>
  <path d="M208.647 36.872C208.895 37.0211 209.044 37.1702 209.044 37.2697C209.044 37.4188 208.845 37.3691 208.597 37.22C208.348 37.0708 208.199 36.9217 208.199 36.8223C208.249 36.7228 208.448 36.7726 208.647 36.872Z" fill="white"/>
  <path d="M208.796 36.0766C208.995 36.176 209.144 36.3251 209.144 36.4245C209.144 36.524 208.945 36.4743 208.746 36.3748C208.548 36.2754 208.398 36.1263 208.398 36.0268C208.448 35.9274 208.597 35.9771 208.796 36.0766Z" fill="white"/>
  <path d="M204.324 61.7274C203.727 61.4292 203.329 60.7829 203.379 60.2361C203.479 59.739 204.025 59.5401 204.672 59.8384C205.268 60.1367 205.666 60.7829 205.616 61.28C205.467 61.8766 204.92 62.0257 204.324 61.7274Z" fill="white"/>
  <path d="M203.824 64.2628C203.228 63.9645 202.83 63.3183 202.929 62.7714C203.029 62.2246 203.576 62.0755 204.172 62.324C204.769 62.6223 205.166 63.2686 205.067 63.7657C204.967 64.3622 204.421 64.5611 203.824 64.2628Z" fill="white"/>
  <path d="M203.327 66.8478C202.73 66.5495 202.382 65.9033 202.482 65.3565C202.581 64.8096 203.128 64.6108 203.724 64.9091C204.321 65.2073 204.669 65.8039 204.57 66.3507C204.47 66.9472 203.923 67.1461 203.327 66.8478Z" fill="white"/>
  <path d="M202.784 69.7312C202.187 69.4827 201.839 68.8364 201.939 68.2399C202.088 67.6931 202.585 67.4942 203.132 67.7428C203.679 67.9913 204.076 68.6376 203.977 69.1844C203.877 69.7809 203.331 69.9798 202.784 69.7312Z" fill="white"/>
  <path d="M202.184 72.6148C201.687 72.3662 201.388 71.8194 201.488 71.2725C201.587 70.7754 202.084 70.5766 202.532 70.7754C203.029 71.024 203.327 71.5708 203.228 72.0679C203.128 72.6148 202.681 72.8136 202.184 72.6148Z" fill="white"/>
  <path d="M201.489 76.0943C200.992 75.8954 200.694 75.2989 200.843 74.8018C200.943 74.3046 201.39 74.0561 201.887 74.2549C202.335 74.4538 202.633 75.0503 202.533 75.5474C202.434 76.0446 201.987 76.2931 201.489 76.0943Z" fill="white"/>
  <path d="M200.693 79.8228C200.245 79.6239 199.997 79.1268 200.096 78.6297C200.195 78.1326 200.593 77.9337 201.041 78.0829C201.488 78.2817 201.736 78.7788 201.637 79.2759C201.538 79.7731 201.14 80.0216 200.693 79.8228Z" fill="white"/>
  <path d="M199.898 83.6008C199.55 83.4516 199.302 83.0042 199.401 82.5568C199.5 82.1094 199.848 81.9106 200.246 82.0597C200.594 82.2088 200.793 82.6562 200.743 83.1037C200.644 83.5013 200.296 83.7002 199.898 83.6008Z" fill="white"/>
  <path d="M207.655 59.0431C208.202 59.3414 208.599 59.9379 208.55 60.435C208.45 60.9321 207.953 61.0813 207.406 60.783C206.81 60.4847 206.412 59.8882 206.511 59.3911C206.561 58.8939 207.058 58.7945 207.655 59.0431Z" fill="white"/>
  <path d="M210.194 60.1368C210.89 60.4848 211.387 61.2802 211.337 61.8767C211.287 62.5229 210.691 62.7218 209.945 62.3241C209.199 61.9264 208.702 61.1807 208.802 60.5345C208.851 59.9379 209.448 59.7888 210.194 60.1368Z" fill="white"/>
  <path d="M227.689 59.1922C227.391 58.9934 227.192 59.0928 227.242 59.3413C227.292 59.5899 227.54 59.9379 227.839 60.1367C228.137 60.3356 228.336 60.2859 228.286 59.9876C228.236 59.739 227.988 59.3911 227.689 59.1922Z" fill="white"/>
  <path d="M225.646 57.8005C225.248 57.552 225 57.6514 225.049 57.9497C225.099 58.2977 225.447 58.7451 225.795 58.9439C226.193 59.1925 226.441 59.0931 226.391 58.7451C226.391 58.4468 226.044 58.0491 225.646 57.8005Z" fill="white"/>
  <path d="M219.985 76.8399C219.488 76.5416 219.14 76.7405 219.09 77.337C219.09 77.9336 219.488 78.6295 219.985 78.9775C220.482 79.2758 220.83 79.0769 220.879 78.4804C220.83 77.8341 220.432 77.1382 219.985 76.8399Z" fill="white"/>
  <path d="M217.544 72.0182C216.947 71.6702 216.5 71.9188 216.5 72.5153C216.5 73.1616 216.898 73.9072 217.494 74.2552C218.091 74.6032 218.538 74.3546 218.538 73.7084C218.538 73.0621 218.091 72.3662 217.544 72.0182Z" fill="white"/>
  <path d="M214.962 67.8422C214.415 67.5439 213.968 67.7427 213.918 68.2896C213.918 68.8861 214.316 69.5324 214.862 69.8803C215.459 70.1786 215.906 69.9798 215.906 69.3832C215.956 68.8364 215.558 68.1404 214.962 67.8422Z" fill="white"/>
  <path d="M213.421 50.7415C212.924 50.493 212.477 50.5427 212.477 50.8907C212.477 51.2386 212.825 51.7358 213.371 52.034C213.868 52.2826 214.316 52.2329 214.316 51.8849C214.316 51.4872 213.918 51.0398 213.421 50.7415Z" fill="white"/>
  <path d="M223.859 58.2975C223.461 58.0489 223.163 58.1484 223.212 58.4963C223.262 58.8443 223.56 59.2917 223.958 59.5403C224.356 59.7888 224.654 59.6894 224.604 59.3414C224.555 58.9935 224.256 58.5461 223.859 58.2975Z" fill="white"/>
  <path d="M221.771 57.1044C221.373 56.8558 221.025 56.9552 221.075 57.3032C221.125 57.6512 221.473 58.1483 221.87 58.3969C222.318 58.6454 222.616 58.546 222.566 58.198C222.566 57.8003 222.218 57.3529 221.771 57.1044Z" fill="white"/>
  <path d="M217.699 56.3587C217.202 56.1102 216.805 56.1599 216.805 56.5576C216.805 56.9553 217.202 57.5021 217.699 57.8004C218.197 58.0986 218.594 57.9495 218.594 57.5518C218.545 57.2038 218.197 56.657 217.699 56.3587Z" fill="white"/>
  <path d="M219.732 55.8121C219.235 55.5635 218.887 55.6132 218.887 56.0109C218.887 56.4086 219.284 56.9057 219.782 57.204C220.279 57.4526 220.627 57.4029 220.577 57.0052C220.577 56.6075 220.229 56.1104 219.732 55.8121Z" fill="white"/>
  <path d="M217.597 54.5689C217.05 54.2707 216.652 54.3701 216.652 54.7678C216.652 55.1655 217.1 55.762 217.597 56.0603C218.144 56.3586 218.541 56.2591 218.541 55.8614C218.541 55.414 218.094 54.8672 217.597 54.5689Z" fill="white"/>
  <path d="M215.455 55.1158C214.908 54.8175 214.461 54.917 214.461 55.3644C214.461 55.8118 214.859 56.3586 215.455 56.7066C216.002 57.0049 216.449 56.9054 216.449 56.458C216.449 55.9609 216.002 55.4141 215.455 55.1158Z" fill="white"/>
  <path d="M212.53 63.8651C211.933 63.5669 211.486 63.716 211.387 64.2628C211.337 64.8097 211.784 65.4559 212.331 65.8039C212.928 66.1022 213.425 65.9033 213.425 65.3565C213.524 64.8097 213.127 64.1634 212.53 63.8651Z" fill="white"/>
  <path d="M212.724 61.5288C212.078 61.1808 211.581 61.3797 211.531 61.9265C211.481 62.4734 211.929 63.219 212.575 63.5173C213.221 63.8653 213.718 63.6664 213.768 63.0699C213.768 62.5728 213.321 61.8768 212.724 61.5288Z" fill="white"/>
  <path d="M212.874 59.3914C212.178 59.0434 211.631 59.1926 211.582 59.7891C211.532 60.3857 212.029 61.1313 212.725 61.4793C213.421 61.8273 213.968 61.6782 214.017 61.0816C214.017 60.4851 213.52 59.7394 212.874 59.3914Z" fill="white"/>
  <path d="M213.027 57.3532C212.381 57.0052 211.834 57.1544 211.785 57.7012C211.735 58.248 212.232 58.944 212.878 59.292C213.574 59.6399 214.071 59.4908 214.121 58.944C214.121 58.3972 213.674 57.7012 213.027 57.3532Z" fill="white"/>
  <path d="M213.125 55.6131C212.528 55.3149 212.081 55.4143 212.031 55.8617C211.981 56.3091 212.429 56.9056 213.025 57.2536C213.622 57.5519 214.069 57.4525 214.119 56.9553C214.119 56.5079 213.672 55.9114 213.125 55.6131Z" fill="white"/>
  <path d="M213.224 53.8234C212.578 53.4755 212.08 53.5749 212.031 54.072C211.981 54.5691 212.478 55.1657 213.124 55.5136C213.771 55.8616 214.268 55.7125 214.318 55.2651C214.318 54.768 213.87 54.1714 213.224 53.8234Z" fill="white"/>
  <path d="M213.323 52.1831C212.727 51.8848 212.229 51.9346 212.18 52.382C212.18 52.8294 212.627 53.4259 213.224 53.7739C213.82 54.0722 214.317 54.0225 214.367 53.5253C214.367 53.1276 213.92 52.5311 213.323 52.1831Z" fill="white"/>
  <path d="M209.397 47.2121C208.95 47.0132 208.602 47.0132 208.552 47.3115C208.503 47.6098 208.801 47.9577 209.248 48.2063C209.696 48.4052 210.044 48.4052 210.093 48.1069C210.143 47.8086 209.795 47.4606 209.397 47.2121Z" fill="white"/>
  <path d="M209.493 45.9689C209.096 45.77 208.797 45.77 208.748 46.0186C208.698 46.2672 208.996 46.6151 209.394 46.814C209.792 47.0128 210.09 47.0128 210.14 46.7643C210.14 46.5157 209.841 46.1677 209.493 45.9689Z" fill="white"/>
  <path d="M209.545 44.7262C209.197 44.5273 208.948 44.5771 208.898 44.7759C208.898 44.9748 209.097 45.273 209.445 45.4719C209.793 45.6707 210.042 45.621 210.092 45.4222C210.141 45.2233 209.893 44.925 209.545 44.7262Z" fill="white"/>
  <path d="M209.593 43.5828C209.294 43.4337 209.046 43.384 208.996 43.5828C208.996 43.7817 209.195 44.0302 209.493 44.1794C209.791 44.3285 210.04 44.3782 210.09 44.1794C210.09 43.9805 209.891 43.7319 209.593 43.5828Z" fill="white"/>
  <path d="M209.644 42.4893C209.346 42.3402 209.147 42.2905 209.098 42.4893C209.098 42.6882 209.297 42.887 209.595 43.0361C209.893 43.1853 210.092 43.235 210.142 43.0361C210.142 42.887 209.943 42.6384 209.644 42.4893Z" fill="white"/>
  <path d="M209.692 41.3955C209.444 41.2464 209.245 41.2464 209.195 41.3955C209.195 41.5447 209.344 41.7435 209.593 41.8927C209.842 42.0418 210.04 42.0418 210.09 41.8927C210.14 41.7435 209.941 41.5447 209.692 41.3955Z" fill="white"/>
  <path d="M209.74 40.4512C209.492 40.3021 209.343 40.3021 209.293 40.4512C209.293 40.6003 209.442 40.7495 209.691 40.8986C209.939 41.0477 210.088 41.0477 210.138 40.8986C210.138 40.7495 209.989 40.6003 209.74 40.4512Z" fill="white"/>
  <path d="M209.792 39.4567C209.593 39.3572 209.444 39.3075 209.395 39.4567C209.395 39.5561 209.544 39.7052 209.743 39.8544C209.941 39.9538 210.09 40.0035 210.14 39.8544C210.14 39.7549 209.991 39.6058 209.792 39.4567Z" fill="white"/>
  <path d="M207.108 62.8214C207.555 63.0203 207.953 62.9209 208.002 62.5232C208.052 62.1255 207.754 61.6781 207.306 61.4295C206.859 61.2307 206.461 61.3301 206.412 61.7278C206.362 62.1255 206.66 62.5729 207.108 62.8214Z" fill="white"/>
  <path d="M206.712 65.3564C207.159 65.5552 207.507 65.4061 207.557 65.0084C207.606 64.6107 207.308 64.1633 206.91 63.9147C206.463 63.7159 206.115 63.865 206.016 64.213C206.016 64.6604 206.264 65.1078 206.712 65.3564Z" fill="white"/>
  <path d="M206.11 67.9414C206.557 68.1403 206.905 67.9911 206.955 67.5935C207.004 67.1958 206.756 66.7484 206.308 66.4998C205.911 66.301 205.513 66.4501 205.463 66.8478C205.414 67.2455 205.662 67.6929 206.11 67.9414Z" fill="white"/>
  <path d="M205.568 70.7255C205.965 70.9243 206.313 70.7255 206.363 70.3775C206.413 69.9798 206.164 69.5324 205.767 69.3335C205.369 69.1347 205.021 69.2838 204.971 69.6815C204.921 70.0792 205.17 70.5266 205.568 70.7255Z" fill="white"/>
  <path d="M204.92 73.559C205.318 73.7081 205.616 73.559 205.716 73.1613C205.765 72.7636 205.517 72.3659 205.169 72.1671C204.821 72.0179 204.473 72.1671 204.373 72.5648C204.274 72.9128 204.523 73.3602 204.92 73.559Z" fill="white"/>
  <path d="M204.122 76.8897C204.47 77.0388 204.768 76.8897 204.868 76.492C204.917 76.0943 204.718 75.6966 204.37 75.5474C204.022 75.3983 203.724 75.5475 203.625 75.9452C203.575 76.2931 203.774 76.6908 204.122 76.8897Z" fill="white"/>
  <path d="M215.456 53.4261C214.959 53.1278 214.561 53.2273 214.512 53.625C214.512 54.0227 214.909 54.5198 215.407 54.818C215.953 55.1163 216.351 55.0169 216.351 54.6192C216.351 54.2215 215.953 53.7244 215.456 53.4261Z" fill="white"/>
  <path d="M215.306 56.9552C214.859 56.7067 214.461 56.8061 214.461 57.1541C214.461 57.5518 214.809 57.9992 215.256 58.2974C215.704 58.546 216.101 58.4466 216.101 58.0489C216.151 57.7009 215.803 57.2038 215.306 56.9552Z" fill="white"/>
  <path d="M215.311 58.7448C214.764 58.4465 214.366 58.5956 214.316 59.043C214.316 59.4905 214.714 60.087 215.211 60.3853C215.758 60.6835 216.156 60.5344 216.205 60.087C216.205 59.6396 215.808 59.043 215.311 58.7448Z" fill="white"/>
  <path d="M215.007 65.3068C214.51 65.0582 214.062 65.2074 214.062 65.7045C214.062 66.2016 214.41 66.7982 214.957 67.0964C215.504 67.3947 215.902 67.1959 215.902 66.6987C215.902 66.1519 215.554 65.5554 215.007 65.3068Z" fill="white"/>
  <path d="M223.662 56.5574C223.215 56.3089 222.917 56.3586 222.966 56.7563C223.016 57.1043 223.364 57.6014 223.811 57.85C224.259 58.0985 224.557 58.0488 224.507 57.6511C224.458 57.2534 224.11 56.806 223.662 56.5574Z" fill="white"/>
  <path d="M217.352 75.1497C216.855 74.9012 216.507 75.1 216.457 75.5971C216.457 76.144 216.805 76.7902 217.302 77.0885C217.799 77.3868 218.147 77.1382 218.197 76.5914C218.197 76.0445 217.849 75.3983 217.352 75.1497Z" fill="white"/>
  <path d="M219.983 80.0712C219.535 79.7729 219.188 80.0215 219.188 80.5683C219.188 81.1649 219.535 81.8111 219.983 82.1094C220.43 82.4077 220.778 82.1591 220.778 81.6123C220.778 81.0157 220.43 80.3695 219.983 80.0712Z" fill="white"/>
  <path d="M214.764 70.5763C214.217 70.278 213.82 70.4769 213.77 71.0237C213.72 71.5705 214.118 72.2168 214.665 72.5648C215.211 72.863 215.609 72.6642 215.659 72.0676C215.659 71.5208 215.311 70.8746 214.764 70.5763Z" fill="white"/>
  <path d="M212.33 66.5002C211.833 66.2516 211.386 66.4007 211.336 66.8978C211.287 67.395 211.684 68.0412 212.181 68.2898C212.728 68.5383 213.126 68.3892 213.176 67.8424C213.225 67.395 212.828 66.7984 212.33 66.5002Z" fill="white"/>
  <path d="M209.941 62.5728C209.394 62.2745 208.897 62.4733 208.797 62.9705C208.747 63.4676 209.145 64.1138 209.692 64.4121C210.289 64.7104 210.736 64.5115 210.835 64.0144C210.935 63.4676 210.537 62.8213 209.941 62.5728Z" fill="white"/>
  <path d="M215.11 63.0698C214.613 62.8212 214.265 62.9703 214.215 63.368C214.215 63.8154 214.563 64.3623 215.06 64.6605C215.557 64.9091 215.905 64.76 215.955 64.3126C215.955 63.8651 215.607 63.3183 215.11 63.0698Z" fill="white"/>
  <path d="M213.474 49.3493C213.027 49.1008 212.679 49.1505 212.629 49.4488C212.629 49.747 212.977 50.1944 213.424 50.443C213.872 50.6915 214.22 50.6418 214.269 50.3436C214.269 49.9956 213.921 49.5979 213.474 49.3493Z" fill="white"/>
  <path d="M221.671 55.464C221.323 55.2652 221.074 55.3149 221.074 55.6132C221.074 55.9114 221.373 56.2594 221.77 56.508C222.118 56.7068 222.367 56.6571 222.367 56.3588C222.317 56.0606 222.019 55.7126 221.671 55.464Z" fill="white"/>
  <path d="M217.695 60.286C217.297 60.0871 216.999 60.1368 216.949 60.5345C216.949 60.8825 217.247 61.3299 217.645 61.5785C218.043 61.7773 218.341 61.6779 218.391 61.3299C218.391 60.9322 218.093 60.4848 217.695 60.286Z" fill="white"/>
  <path d="M217.496 69.3335C216.999 69.0352 216.602 69.2341 216.602 69.7312C216.602 70.278 216.95 70.8746 217.496 71.1728C217.994 71.4711 218.391 71.2723 218.391 70.7254C218.341 70.278 217.994 69.6318 217.496 69.3335Z" fill="white"/>
  <path d="M215.211 60.982C214.764 60.7335 214.366 60.8329 214.316 61.2803C214.316 61.678 214.664 62.2248 215.112 62.4734C215.609 62.7219 215.957 62.6225 215.957 62.1751C216.007 61.7277 215.659 61.2306 215.211 60.982Z" fill="white"/>
  <path d="M220.03 63.6664C219.582 63.4178 219.234 63.5172 219.234 63.9646C219.234 64.412 219.582 64.9589 220.079 65.2074C220.527 65.456 220.875 65.3566 220.875 64.9092C220.825 64.4617 220.477 63.9149 220.03 63.6664Z" fill="white"/>
  <path d="M221.974 85.5892C221.626 85.3406 221.328 85.5395 221.328 86.0366C221.328 86.5337 221.626 87.18 221.974 87.4285C222.322 87.6771 222.621 87.4782 222.621 86.9811C222.621 86.484 222.322 85.8875 221.974 85.5892Z" fill="white"/>
  <path d="M219.836 57.6513C219.438 57.4027 219.09 57.5021 219.09 57.8501C219.09 58.1981 219.438 58.6455 219.885 58.894C220.333 59.1426 220.631 59.0432 220.631 58.6952C220.581 58.3472 220.233 57.8998 219.836 57.6513Z" fill="white"/>
  <path d="M211.385 48.3056C210.988 48.1067 210.64 48.1067 210.59 48.405C210.59 48.6536 210.888 49.0513 211.286 49.2998C211.684 49.4987 212.031 49.4987 212.081 49.2004C212.081 48.8524 211.783 48.5044 211.385 48.3056Z" fill="white"/>
  <path d="M215.508 49.1505C215.111 48.9517 214.812 48.9517 214.812 49.25C214.812 49.4985 215.111 49.8962 215.508 50.0951C215.906 50.2939 216.204 50.2939 216.204 49.9956C216.204 49.7471 215.906 49.3494 215.508 49.1505Z" fill="white"/>
  <path d="M219.687 54.3703C219.339 54.1714 219.141 54.2211 219.141 54.4697C219.141 54.7182 219.389 55.0662 219.737 55.2651C220.085 55.4639 220.284 55.4142 220.284 55.1159C220.284 54.9171 220.035 54.5691 219.687 54.3703Z" fill="white"/>
  <path d="M217.601 62.3244C217.203 62.0758 216.855 62.2249 216.855 62.5729C216.855 62.9706 217.154 63.418 217.601 63.6666C217.999 63.9151 218.347 63.766 218.347 63.418C218.347 63.07 217.999 62.5729 217.601 62.3244Z" fill="white"/>
  <path d="M219.881 61.5786C219.533 61.3797 219.234 61.4791 219.234 61.7774C219.234 62.1254 219.533 62.5231 219.881 62.7219C220.229 62.9208 220.527 62.8213 220.527 62.5231C220.527 62.2248 220.229 61.7774 219.881 61.5786Z" fill="white"/>
  <path d="M222.219 65.0584C221.822 64.8098 221.523 64.9092 221.523 65.3069C221.523 65.7046 221.871 66.2017 222.269 66.4503C222.667 66.6989 222.965 66.5994 222.965 66.152C222.965 65.804 222.617 65.3069 222.219 65.0584Z" fill="white"/>
  <path d="M225.798 59.64C225.5 59.4411 225.301 59.5405 225.301 59.7891C225.35 60.0377 225.599 60.4353 225.897 60.6342C226.196 60.833 226.394 60.7336 226.394 60.4851C226.394 60.1868 226.096 59.8388 225.798 59.64Z" fill="white"/>
  <path d="M215.507 47.9076C215.159 47.7087 214.91 47.7585 214.91 47.9573C214.91 48.1561 215.159 48.5041 215.507 48.703C215.855 48.9018 216.103 48.8521 216.103 48.6533C216.103 48.4047 215.855 48.1064 215.507 47.9076Z" fill="white"/>
  <path d="M215.51 50.5426C215.162 50.3438 214.863 50.3935 214.863 50.642C214.863 50.8906 215.162 51.2386 215.51 51.4374C215.858 51.6363 216.156 51.5866 216.156 51.338C216.106 51.0894 215.858 50.7415 215.51 50.5426Z" fill="white"/>
  <path d="M222.367 82.2584C221.969 81.9602 221.621 82.159 221.621 82.7058C221.621 83.2527 221.969 83.9486 222.367 84.2469C222.764 84.5452 223.112 84.3463 223.112 83.7498C223.112 83.2029 222.764 82.5567 222.367 82.2584Z" fill="white"/>
  <path d="M213.521 48.1066C213.173 47.9077 212.875 47.9574 212.875 48.1563C212.875 48.4048 213.124 48.7031 213.472 48.902C213.82 49.1008 214.118 49.0511 214.118 48.8025C214.168 48.6534 213.869 48.3054 213.521 48.1066Z" fill="white"/>
  <path d="M217.595 58.3471C217.247 58.1483 216.949 58.2477 216.949 58.5459C216.949 58.8442 217.247 59.2419 217.595 59.4408C217.943 59.6396 218.242 59.5402 218.242 59.2419C218.192 58.9436 217.943 58.546 217.595 58.3471Z" fill="white"/>
  <path d="M217.547 53.2764C217.249 53.1273 217.05 53.177 217 53.3758C217 53.5747 217.249 53.8729 217.547 54.0718C217.845 54.2209 218.094 54.1712 218.094 53.9724C218.094 53.7238 217.845 53.4255 217.547 53.2764Z" fill="white"/>
  <path d="M217.545 66.9475C217.197 66.7487 216.898 66.8481 216.898 67.1961C216.898 67.5441 217.147 67.9915 217.545 68.1903C217.893 68.3892 218.191 68.2898 218.191 67.8921C218.141 67.5938 217.893 67.1464 217.545 66.9475Z" fill="white"/>
  <path d="M220.031 73.8573C219.633 73.6088 219.335 73.7579 219.285 74.255C219.285 74.7024 219.583 75.299 220.031 75.5475C220.429 75.7961 220.777 75.647 220.777 75.1498C220.727 74.7024 220.429 74.1059 220.031 73.8573Z" fill="white"/>
  <path d="M215.458 52.1829C215.209 52.0338 214.961 52.0835 214.961 52.2823C214.961 52.4812 215.16 52.7297 215.408 52.8789C215.657 53.028 215.905 52.9783 215.905 52.7795C215.955 52.5806 215.756 52.2823 215.458 52.1829Z" fill="white"/>
  <path d="M219.831 83.4021C219.533 83.2032 219.234 83.3524 219.234 83.7998C219.234 84.2472 219.483 84.7443 219.781 84.9431C220.129 85.142 220.378 84.9929 220.378 84.5455C220.378 84.0981 220.129 83.6009 219.831 83.4021Z" fill="white"/>
  <path d="M221.925 58.9936C221.577 58.7947 221.328 58.8444 221.328 59.1427C221.328 59.441 221.626 59.8387 221.974 60.0375C222.322 60.2364 222.571 60.1867 222.571 59.8387C222.521 59.5901 222.273 59.1924 221.925 58.9936Z" fill="white"/>
  <path d="M217.547 49.0511C217.249 48.902 217 48.902 217 49.1008C217 49.2997 217.249 49.598 217.547 49.7968C217.845 49.9459 218.094 49.9459 218.094 49.7471C218.094 49.5482 217.845 49.25 217.547 49.0511Z" fill="white"/>
  <path d="M229.726 60.5345C229.477 60.3853 229.328 60.435 229.328 60.6339C229.378 60.8824 229.577 61.1807 229.825 61.3299C230.074 61.479 230.223 61.4293 230.173 61.1807C230.173 61.0316 229.974 60.7333 229.726 60.5345Z" fill="white"/>
  <path d="M224.507 66.5496C224.159 66.3507 223.91 66.4502 223.91 66.7981C223.96 67.1461 224.208 67.6433 224.606 67.8918C224.954 68.1404 225.203 67.9912 225.203 67.6433C225.153 67.2456 224.855 66.7981 224.507 66.5496Z" fill="white"/>
  <path d="M223.415 89.2181C223.117 88.9696 222.918 89.1684 222.918 89.6158C222.918 90.113 223.167 90.6598 223.465 90.9581C223.763 91.2066 223.962 91.0575 223.962 90.5604C223.912 90.0135 223.713 89.4667 223.415 89.2181Z" fill="white"/>
  <path d="M217.248 78.4309C216.9 78.2321 216.602 78.3812 216.602 78.8286C216.602 79.276 216.85 79.7731 217.198 79.972C217.546 80.1708 217.844 80.0217 217.844 79.5743C217.844 79.1269 217.596 78.6297 217.248 78.4309Z" fill="white"/>
  <path d="M222.119 63.07C221.871 62.9208 221.672 62.9706 221.672 63.2191C221.672 63.4677 221.871 63.7659 222.169 63.9151C222.418 64.0642 222.616 64.0145 222.616 63.7659C222.616 63.5174 222.368 63.2191 222.119 63.07Z" fill="white"/>
  <path d="M217.447 47.8085C217.199 47.6593 217 47.6593 217 47.8582C217 48.057 217.199 48.2559 217.497 48.405C217.746 48.5541 217.945 48.5541 217.945 48.3553C217.895 48.2061 217.696 47.9576 217.447 47.8085Z" fill="white"/>
  <path d="M219.285 48.9516C219.087 48.8522 218.888 48.8522 218.937 49.0013C218.937 49.1505 219.136 49.3493 219.335 49.4487C219.534 49.5482 219.733 49.5482 219.683 49.399C219.683 49.2499 219.484 49.051 219.285 48.9516Z" fill="white"/>
  <path d="M214.612 73.907C214.314 73.7578 214.016 73.8572 214.016 74.2052C214.016 74.5532 214.214 74.9509 214.562 75.1497C214.91 75.2989 215.159 75.1995 215.159 74.8515C215.159 74.5035 214.96 74.1058 214.612 73.907Z" fill="white"/>
  <path d="M212.026 69.5324C211.728 69.3833 211.43 69.4827 211.43 69.8307C211.43 70.129 211.629 70.5267 211.927 70.6758C212.225 70.825 212.523 70.7255 212.523 70.3775C212.523 70.0793 212.325 69.6816 212.026 69.5324Z" fill="white"/>
  <path d="M209.591 65.456C209.293 65.3068 208.995 65.4063 208.995 65.7045C208.945 66.0028 209.193 66.3508 209.492 66.4999C209.79 66.6491 210.088 66.5496 210.088 66.2514C210.088 65.9531 209.889 65.6051 209.591 65.456Z" fill="white"/>
  <path d="M219.187 47.7586C218.938 47.6095 218.789 47.6095 218.789 47.8084C218.789 47.9575 218.988 48.1563 219.236 48.3055C219.485 48.4546 219.634 48.4546 219.634 48.2558C219.584 48.0569 219.386 47.8581 219.187 47.7586Z" fill="white"/>
  <path d="M220.625 47.8083C220.426 47.7089 220.277 47.7089 220.277 47.858C220.277 48.0072 220.426 48.1563 220.625 48.2557C220.824 48.3551 220.973 48.3551 220.973 48.206C221.023 48.0569 220.824 47.9077 220.625 47.8083Z" fill="white"/>
  <path d="M226.692 68.2397C226.493 68.0905 226.294 68.1402 226.344 68.3888C226.344 68.6373 226.543 68.9356 226.791 69.1345C227.04 69.2836 227.189 69.2339 227.139 68.9853C227.139 68.7368 226.94 68.3888 226.692 68.2397Z" fill="white"/>
  <path d="M224.653 68.8364C224.355 68.6375 224.156 68.7369 224.156 69.0352C224.156 69.3335 224.405 69.7312 224.703 69.93C225.001 70.1289 225.2 70.0295 225.15 69.7312C225.15 69.3832 224.952 69.0352 224.653 68.8364Z" fill="white"/>
  <path d="M222.369 67.3949C222.121 67.2458 221.922 67.2955 221.922 67.5938C221.922 67.892 222.121 68.24 222.419 68.3891C222.668 68.5383 222.866 68.4886 222.866 68.1903C222.817 67.892 222.618 67.544 222.369 67.3949Z" fill="white"/>
  <path d="M219.986 66.0029C219.738 65.8538 219.539 65.9532 219.539 66.2018C219.539 66.4503 219.738 66.7486 219.986 66.8977C220.235 67.0469 220.434 66.9475 220.434 66.6989C220.434 66.4503 220.235 66.1521 219.986 66.0029Z" fill="white"/>
  <path d="M217.592 64.6108C217.343 64.4617 217.145 64.5611 217.145 64.8097C217.145 65.0582 217.343 65.3565 217.592 65.5057C217.84 65.6548 218.039 65.5554 218.039 65.3068C218.039 65.0085 217.84 64.76 217.592 64.6108Z" fill="white"/>
  <path d="M226.846 70.4274C226.597 70.2782 226.448 70.328 226.498 70.6262C226.498 70.8748 226.697 71.2228 226.945 71.3719C227.194 71.521 227.343 71.4713 227.293 71.1731C227.243 70.9245 227.045 70.5765 226.846 70.4274Z" fill="white"/>
  <path d="M229.132 72.1173C228.933 71.9682 228.784 72.0179 228.834 72.2665C228.834 72.515 229.033 72.8133 229.232 73.0121C229.43 73.1613 229.58 73.1116 229.53 72.863C229.48 72.6145 229.331 72.2665 229.132 72.1173Z" fill="white"/>
  <path d="M217.498 50.3934C217.25 50.2443 217.051 50.2443 217.051 50.4431C217.051 50.642 217.25 50.8408 217.498 50.99C217.747 51.1391 217.946 51.1391 217.946 50.9402C217.946 50.7911 217.747 50.5426 217.498 50.3934Z" fill="white"/>
  <path d="M202.385 56.4584C201.788 56.1601 201.241 56.3093 201.142 56.7567C201.042 57.2538 201.39 57.8503 202.037 58.1486C202.633 58.4469 203.18 58.2977 203.279 57.8006C203.379 57.3035 202.981 56.7567 202.385 56.4584Z" fill="white"/>
  <path d="M199.849 55.0167C199.103 54.6687 198.407 54.8178 198.208 55.4144C198.059 56.0109 198.506 56.7566 199.302 57.1046C200.097 57.4525 200.793 57.2537 200.942 56.6572C201.042 56.0606 200.594 55.3647 199.849 55.0167Z" fill="white"/>
  <path d="M182.598 36.8221C182.996 36.9712 183.195 37.2198 183.046 37.4186C182.897 37.6175 182.449 37.6672 182.052 37.518C181.654 37.3689 181.455 37.1203 181.604 36.9215C181.753 36.7226 182.201 36.6729 182.598 36.8221Z" fill="white"/>
  <path d="M185.431 37.6673C185.928 37.8661 186.177 38.1644 186.028 38.413C185.879 38.6615 185.332 38.7112 184.835 38.5124C184.338 38.3135 184.089 38.0153 184.238 37.7667C184.437 37.5679 184.934 37.5181 185.431 37.6673Z" fill="white"/>
  <path d="M184.392 60.1867C184.84 60.3856 185.088 60.7833 184.889 61.181C184.691 61.529 184.243 61.7278 183.746 61.529C183.299 61.3301 183.05 60.9324 183.249 60.5347C183.398 60.1867 183.895 60.0376 184.392 60.1867Z" fill="white"/>
  <path d="M188.412 58.1483C189.008 58.3968 189.356 58.9934 189.157 59.4905C188.958 59.9876 188.312 60.1865 187.666 59.9379C187.02 59.6893 186.721 59.0928 186.92 58.5957C187.169 58.0986 187.815 57.8997 188.412 58.1483Z" fill="white"/>
  <path d="M192.543 56.9552C193.189 57.2535 193.537 57.85 193.388 58.3472C193.189 58.8443 192.543 59.0431 191.897 58.7946C191.25 58.4963 190.853 57.8998 191.051 57.3529C191.201 56.8558 191.897 56.7067 192.543 56.9552Z" fill="white"/>
  <path d="M200.148 43.9309C200.694 44.1794 201.042 44.6765 200.943 44.9748C200.843 45.3228 200.346 45.3725 199.75 45.0742C199.203 44.776 198.855 44.3286 198.954 43.9806C199.104 43.6823 199.601 43.6326 200.148 43.9309Z" fill="white"/>
  <path d="M187.219 40.0036C187.716 40.2024 188.014 40.5504 187.865 40.8487C187.716 41.0973 187.169 41.1967 186.622 40.9978C186.076 40.799 185.827 40.451 185.976 40.1527C186.175 39.8545 186.722 39.8047 187.219 40.0036Z" fill="white"/>
  <path d="M189.855 40.9977C190.402 41.1966 190.651 41.5943 190.502 41.8925C190.352 42.1908 189.806 42.2405 189.259 42.0417C188.712 41.8428 188.414 41.4451 188.613 41.1469C188.811 40.8486 189.309 40.7989 189.855 40.9977Z" fill="white"/>
  <path d="M194.233 44.5271C194.78 44.7757 195.128 45.2728 195.029 45.6208C194.879 45.9687 194.333 46.0185 193.736 45.7699C193.14 45.5213 192.792 45.0242 192.941 44.6762C193.09 44.378 193.637 44.2785 194.233 44.5271Z" fill="white"/>
  <path d="M192.389 41.992C192.936 42.2406 193.284 42.688 193.135 42.9863C192.986 43.2845 192.439 43.384 191.842 43.1354C191.246 42.8868 190.947 42.4394 191.097 42.1412C191.295 41.7932 191.842 41.7435 192.389 41.992Z" fill="white"/>
  <path d="M194.927 43.0855C195.524 43.3838 195.872 43.8312 195.723 44.1792C195.574 44.5272 194.977 44.5769 194.381 44.3283C193.784 44.0301 193.436 43.5826 193.585 43.2347C193.784 42.8867 194.331 42.837 194.927 43.0855Z" fill="white"/>
  <path d="M196.77 45.6209C197.366 45.9192 197.764 46.4163 197.615 46.814C197.466 47.2117 196.869 47.2614 196.223 47.0129C195.577 46.7146 195.229 46.1678 195.378 45.8198C195.527 45.4221 196.124 45.3227 196.77 45.6209Z" fill="white"/>
  <path d="M196.321 55.9115C196.967 56.2098 197.315 56.8063 197.166 57.3034C197.017 57.8005 196.371 57.9994 195.725 57.7011C195.078 57.4028 194.681 56.8063 194.88 56.2595C195.029 55.8121 195.675 55.6629 196.321 55.9115Z" fill="white"/>
  <path d="M196.967 53.8236C197.663 54.1219 198.06 54.7682 197.911 55.315C197.762 55.8121 197.066 56.011 196.37 55.7127C195.674 55.3647 195.277 54.7185 195.426 54.2213C195.625 53.6745 196.271 53.5254 196.967 53.8236Z" fill="white"/>
  <path d="M197.564 51.8349C198.309 52.1829 198.757 52.8292 198.608 53.376C198.458 53.9228 197.713 54.0719 196.967 53.724C196.221 53.376 195.774 52.68 195.923 52.1332C196.122 51.6361 196.818 51.4869 197.564 51.8349Z" fill="white"/>
  <path d="M198.161 49.9459C198.857 50.2938 199.305 50.9401 199.156 51.4372C199.007 51.9343 198.311 52.0835 197.565 51.7355C196.819 51.3875 196.372 50.7412 196.571 50.2441C196.77 49.747 197.416 49.6476 198.161 49.9459Z" fill="white"/>
  <path d="M198.658 48.3551C199.304 48.6533 199.652 49.2002 199.552 49.6476C199.403 50.0453 198.807 50.1944 198.161 49.8961C197.514 49.5979 197.117 49.051 197.266 48.6036C197.465 48.1562 198.011 48.0568 198.658 48.3551Z" fill="white"/>
  <path d="M199.253 46.7147C199.949 47.0627 200.346 47.6095 200.247 48.0569C200.098 48.5043 199.451 48.6037 198.755 48.2558C198.059 47.9078 197.662 47.3112 197.761 46.8638C197.91 46.4661 198.557 46.4164 199.253 46.7147Z" fill="white"/>
  <path d="M199.747 45.2232C200.394 45.5712 200.791 46.1181 200.692 46.5157C200.543 46.9134 199.946 47.0129 199.3 46.6649C198.604 46.3169 198.206 45.7701 198.355 45.3724C198.455 44.9747 199.101 44.925 199.747 45.2232Z" fill="white"/>
  <path d="M204.971 44.8754C205.418 45.1239 205.716 45.4719 205.666 45.7702C205.617 46.0188 205.219 46.0685 204.772 45.8696C204.324 45.6211 204.026 45.2731 204.076 44.9748C204.125 44.7262 204.523 44.6765 204.971 44.8754Z" fill="white"/>
  <path d="M205.316 43.6825C205.714 43.8813 205.963 44.2293 205.963 44.4779C205.913 44.7264 205.565 44.7264 205.167 44.5276C204.77 44.3287 204.471 43.9808 204.521 43.7322C204.571 43.5334 204.919 43.4836 205.316 43.6825Z" fill="white"/>
  <path d="M205.667 42.5885C206.015 42.7873 206.264 43.0856 206.214 43.2845C206.164 43.4833 205.866 43.4833 205.518 43.3342C205.17 43.1353 204.921 42.8371 204.971 42.6382C205.021 42.4394 205.319 42.3897 205.667 42.5885Z" fill="white"/>
  <path d="M205.965 41.4949C206.263 41.644 206.512 41.8926 206.462 42.0915C206.413 42.2903 206.164 42.2903 205.816 42.0915C205.518 41.9423 205.269 41.6938 205.319 41.4949C205.369 41.3458 205.617 41.3458 205.965 41.4949Z" fill="white"/>
  <path d="M206.264 40.5503C206.563 40.6995 206.761 40.8983 206.712 41.0972C206.662 41.296 206.413 41.2463 206.115 41.0972C205.817 40.948 205.618 40.6995 205.668 40.5503C205.717 40.3515 205.966 40.4012 206.264 40.5503Z" fill="white"/>
  <path d="M206.513 39.606C206.761 39.7551 206.96 39.954 206.91 40.1031C206.861 40.2522 206.662 40.2522 206.413 40.1031C206.165 39.954 205.966 39.7551 206.015 39.606C206.065 39.4569 206.264 39.4569 206.513 39.606Z" fill="white"/>
  <path d="M206.76 38.8107C207.008 38.9598 207.158 39.1089 207.158 39.2581C207.108 39.4072 206.909 39.3575 206.71 39.2581C206.462 39.1089 206.312 38.9598 206.312 38.8107C206.312 38.6615 206.511 38.7113 206.76 38.8107Z" fill="white"/>
  <path d="M207.007 38.0152C207.206 38.1146 207.355 38.2638 207.355 38.4129C207.305 38.5123 207.156 38.5123 206.957 38.3632C206.759 38.2638 206.609 38.1147 206.609 37.9655C206.609 37.9158 206.759 37.9158 207.007 38.0152Z" fill="white"/>
  <path d="M201.536 60.0873C201.089 59.8387 200.791 59.3913 200.89 58.9936C200.99 58.5959 201.437 58.4965 201.884 58.6954C202.332 58.9439 202.63 59.3913 202.531 59.7393C202.431 60.1867 201.984 60.3359 201.536 60.0873Z" fill="white"/>
  <path d="M201.043 62.5727C200.596 62.3739 200.347 61.9265 200.397 61.5288C200.496 61.1311 200.894 61.0317 201.341 61.2305C201.789 61.4294 202.037 61.8768 201.988 62.2745C201.888 62.6225 201.491 62.7716 201.043 62.5727Z" fill="white"/>
  <path d="M200.54 65.1578C200.093 64.9589 199.844 64.4618 199.944 64.0641C200.043 63.6664 200.441 63.5173 200.888 63.7161C201.336 63.915 201.584 64.3624 201.485 64.7601C201.435 65.2075 200.988 65.3566 200.54 65.1578Z" fill="white"/>
  <path d="M200.151 67.9914C199.753 67.7925 199.505 67.3451 199.604 66.9474C199.703 66.5497 200.101 66.4006 200.499 66.5994C200.896 66.7983 201.145 67.2457 201.046 67.5936C200.946 67.9913 200.548 68.1405 200.151 67.9914Z" fill="white"/>
  <path d="M199.554 71.0239C199.156 70.8251 198.957 70.4274 199.057 70.0297C199.156 69.632 199.504 69.4828 199.902 69.6817C200.299 69.8805 200.498 70.2782 200.449 70.6759C200.299 71.0239 199.951 71.173 199.554 71.0239Z" fill="white"/>
  <path d="M198.958 74.5034C198.61 74.3543 198.411 73.9069 198.461 73.5589C198.56 73.1612 198.908 73.0121 199.256 73.1612C199.604 73.3104 199.803 73.708 199.753 74.1057C199.703 74.5034 199.355 74.6526 198.958 74.5034Z" fill="white"/>
  <path d="M197.367 44.2291C197.914 44.4776 198.262 44.9748 198.162 45.3227C198.013 45.6707 197.467 45.7204 196.92 45.4719C196.323 45.1736 195.975 44.7262 196.124 44.3782C196.273 44.0302 196.82 43.9805 197.367 44.2291Z" fill="white"/>
  <path d="M196.068 47.3114C196.565 47.5599 196.913 48.0073 196.764 48.3056C196.615 48.6536 196.118 48.7033 195.621 48.5044C195.074 48.2559 194.776 47.8085 194.925 47.4605C195.074 47.1125 195.571 47.0628 196.068 47.3114Z" fill="white"/>
  <path d="M195.474 48.9021C196.071 49.2004 196.419 49.6975 196.27 50.0952C196.121 50.4929 195.524 50.5923 194.927 50.3438C194.331 50.0455 193.983 49.5484 194.132 49.1507C194.331 48.753 194.878 48.6536 195.474 48.9021Z" fill="white"/>
  <path d="M193.34 54.7186C193.936 54.9672 194.235 55.514 194.085 55.9614C193.936 56.4088 193.34 56.558 192.743 56.3094C192.147 56.0608 191.799 55.514 191.998 55.0666C192.147 54.6192 192.743 54.4701 193.34 54.7186Z" fill="white"/>
  <path d="M188.069 38.6115C188.616 38.8601 188.914 39.2081 188.765 39.5063C188.566 39.8046 188.019 39.8046 187.473 39.6058C186.926 39.3572 186.627 39.0092 186.777 38.711C186.975 38.4127 187.522 38.363 188.069 38.6115Z" fill="white"/>
  <path d="M187.371 60.8823C187.968 61.1309 188.216 61.6777 188.067 62.1748C187.868 62.672 187.272 62.8708 186.675 62.6223C186.079 62.3737 185.78 61.8269 185.979 61.3297C186.178 60.8326 186.775 60.6835 187.371 60.8823Z" fill="white"/>
  <path d="M183.293 62.523C183.89 62.7715 184.138 63.3184 183.939 63.8155C183.691 64.3126 183.045 64.5612 182.448 64.3126C181.852 64.064 181.603 63.5172 181.802 63.0201C182.05 62.523 182.697 62.3241 183.293 62.523Z" fill="white"/>
  <path d="M191.599 59.4906C192.196 59.7392 192.544 60.3357 192.345 60.8328C192.146 61.3299 191.55 61.5288 190.903 61.2802C190.307 61.0317 189.959 60.4351 190.158 59.8883C190.357 59.4409 191.003 59.242 191.599 59.4906Z" fill="white"/>
  <path d="M195.522 58.3969C196.069 58.6454 196.417 59.1923 196.268 59.6894C196.118 60.1368 195.572 60.3356 194.975 60.0871C194.379 59.8385 194.08 59.242 194.229 58.7946C194.379 58.2975 194.925 58.1483 195.522 58.3969Z" fill="white"/>
  <path d="M199.151 57.2538C199.748 57.552 200.096 58.1486 199.996 58.596C199.847 59.0931 199.3 59.2422 198.654 58.9937C198.057 58.6954 197.66 58.0989 197.809 57.6018C197.958 57.1543 198.554 57.0052 199.151 57.2538Z" fill="white"/>
  <path d="M194.086 52.6803C194.633 52.9288 194.931 53.426 194.832 53.8236C194.682 54.2213 194.136 54.3208 193.589 54.1219C193.042 53.8734 192.744 53.3762 192.843 52.9785C192.992 52.5311 193.539 52.4317 194.086 52.6803Z" fill="white"/>
  <path d="M200.594 42.6383C201.091 42.8868 201.39 43.2845 201.29 43.5828C201.191 43.8811 200.743 43.8811 200.246 43.6325C199.749 43.3839 199.451 42.9863 199.55 42.688C199.65 42.4394 200.097 42.3897 200.594 42.6383Z" fill="white"/>
  <path d="M190.655 39.8048C191.102 40.0037 191.301 40.3019 191.202 40.5505C191.052 40.7991 190.655 40.7991 190.207 40.6002C189.76 40.4014 189.511 40.1031 189.661 39.8545C189.76 39.606 190.207 39.606 190.655 39.8048Z" fill="white"/>
  <path d="M192.79 47.9076C193.237 48.1065 193.536 48.5041 193.387 48.8024C193.237 49.1007 192.79 49.2001 192.293 49.0013C191.796 48.8024 191.547 48.4047 191.647 48.1064C191.845 47.7585 192.343 47.659 192.79 47.9076Z" fill="white"/>
  <path d="M189.408 55.7124C190.005 55.961 190.303 56.5078 190.154 56.9552C189.955 57.4026 189.358 57.6015 188.712 57.3529C188.115 57.1043 187.767 56.5575 187.966 56.0604C188.215 55.6627 188.811 55.4639 189.408 55.7124Z" fill="white"/>
  <path d="M194.727 50.8408C195.274 51.0894 195.573 51.5368 195.423 51.9345C195.274 52.2825 194.777 52.4316 194.23 52.1831C193.683 51.9345 193.385 51.4871 193.534 51.0894C193.683 50.7414 194.23 50.642 194.727 50.8408Z" fill="white"/>
  <path d="M189.214 48.4546C189.76 48.7032 190.059 49.1506 189.91 49.4986C189.711 49.8466 189.164 49.946 188.617 49.7471C188.07 49.4986 187.772 49.0512 187.921 48.7032C188.12 48.3552 188.667 48.2558 189.214 48.4546Z" fill="white"/>
  <path d="M179.715 64.2632C180.112 64.4124 180.311 64.8101 180.112 65.158C179.913 65.506 179.466 65.7049 179.019 65.5557C178.621 65.4066 178.422 65.0089 178.621 64.6609C178.87 64.3129 179.317 64.1141 179.715 64.2632Z" fill="white"/>
  <path d="M191.596 43.4833C192.093 43.6822 192.391 44.0799 192.242 44.3781C192.093 44.6764 191.596 44.7261 191.099 44.5273C190.602 44.3284 190.303 43.9307 190.453 43.6325C190.602 43.3342 191.099 43.2845 191.596 43.4833Z" fill="white"/>
  <path d="M202.784 43.8316C203.231 44.0305 203.48 44.4282 203.43 44.6767C203.38 44.9253 202.983 44.975 202.535 44.7264C202.088 44.5276 201.839 44.1299 201.889 43.8813C201.989 43.6328 202.386 43.5831 202.784 43.8316Z" fill="white"/>
  <path d="M196.567 39.5563C196.915 39.7054 197.114 39.9043 197.064 40.1031C197.014 40.2522 196.716 40.302 196.368 40.2025C196.02 40.0534 195.821 39.8545 195.871 39.6557C195.921 39.4568 196.219 39.4569 196.567 39.5563Z" fill="white"/>
  <path d="M193.033 40.7987C193.431 40.9478 193.63 41.2461 193.531 41.4947C193.431 41.6935 193.033 41.7432 192.636 41.5444C192.238 41.3455 192.039 41.097 192.139 40.8484C192.238 40.6496 192.636 40.5999 193.033 40.7987Z" fill="white"/>
  <path d="M191.994 49.7472C192.492 49.946 192.74 50.3437 192.641 50.6917C192.492 51.0397 191.994 51.1391 191.497 50.8905C191 50.6917 190.702 50.2443 190.851 49.946C191 49.598 191.497 49.5483 191.994 49.7472Z" fill="white"/>
  <path d="M190.053 46.8141C190.501 47.013 190.699 47.3609 190.6 47.6095C190.451 47.8581 190.053 47.9575 189.606 47.7586C189.158 47.5598 188.91 47.2118 189.059 46.9632C189.208 46.7147 189.656 46.665 190.053 46.8141Z" fill="white"/>
  <path d="M186.325 47.4604C186.822 47.6592 187.12 48.0569 186.921 48.3552C186.722 48.6535 186.225 48.7529 185.678 48.6038C185.181 48.4049 184.883 48.0072 185.082 47.6592C185.281 47.361 185.827 47.2615 186.325 47.4604Z" fill="white"/>
  <path d="M184.538 39.1586C184.936 39.3077 185.135 39.5563 185.035 39.7551C184.886 39.954 184.488 40.0037 184.041 39.8545C183.643 39.7054 183.395 39.4568 183.544 39.2083C183.743 39.1089 184.14 39.0094 184.538 39.1586Z" fill="white"/>
  <path d="M197.115 38.4625C197.463 38.6116 197.712 38.8602 197.662 39.0093C197.612 39.2082 197.314 39.2082 196.916 39.1088C196.568 38.9596 196.32 38.7111 196.37 38.5122C196.419 38.3134 196.718 38.3134 197.115 38.4625Z" fill="white"/>
  <path d="M198.357 41.5946C198.804 41.7935 199.053 42.1414 198.953 42.39C198.854 42.6385 198.456 42.6386 198.009 42.4397C197.562 42.2409 197.313 41.8929 197.412 41.6443C197.512 41.4455 197.91 41.3958 198.357 41.5946Z" fill="white"/>
  <path d="M198.856 40.4014C199.254 40.6003 199.503 40.8985 199.403 41.0974C199.353 41.2962 199.006 41.3459 198.608 41.1471C198.21 40.9482 197.962 40.65 198.061 40.4014C198.111 40.2523 198.459 40.2026 198.856 40.4014Z" fill="white"/>
  <path d="M193.486 46.317C193.884 46.5159 194.132 46.8142 194.033 47.1124C193.933 47.361 193.536 47.4107 193.088 47.2616C192.691 47.0627 192.442 46.7147 192.541 46.4662C192.641 46.2176 193.039 46.1679 193.486 46.317Z" fill="white"/>
  <path d="M195.474 41.9422C195.822 42.0914 196.021 42.3896 195.922 42.5388C195.822 42.7376 195.524 42.7376 195.176 42.5885C194.828 42.4394 194.629 42.1411 194.729 41.992C194.828 41.7931 195.126 41.7931 195.474 41.9422Z" fill="white"/>
  <path d="M190.304 53.6745C190.702 53.8733 190.951 54.2213 190.851 54.5196C190.702 54.8179 190.304 54.9173 189.857 54.7681C189.41 54.5693 189.211 54.2213 189.31 53.923C189.459 53.6248 189.857 53.5253 190.304 53.6745Z" fill="white"/>
  <path d="M197.759 43.0361C198.058 43.1852 198.256 43.4338 198.207 43.5829C198.157 43.7321 197.859 43.7818 197.56 43.6326C197.262 43.4835 197.063 43.2349 197.113 43.0858C197.213 42.9367 197.461 42.9367 197.759 43.0361Z" fill="white"/>
  <path d="M200.895 41.495C201.243 41.6938 201.442 41.9424 201.392 42.1412C201.342 42.3401 201.044 42.3401 200.696 42.1909C200.348 41.9921 200.149 41.7435 200.199 41.5447C200.249 41.3458 200.547 41.3458 200.895 41.495Z" fill="white"/>
  <path d="M188.965 42.4894C189.362 42.6385 189.611 42.9865 189.511 43.2351C189.362 43.4836 188.965 43.5334 188.517 43.3842C188.07 43.2351 187.871 42.8871 187.97 42.6385C188.07 42.39 188.517 42.3403 188.965 42.4894Z" fill="white"/>
  <path d="M179.766 35.8777C180.114 35.9771 180.263 36.1759 180.114 36.3251C179.965 36.4742 179.617 36.5239 179.269 36.4245C178.921 36.3251 178.772 36.1262 178.921 35.9771C179.07 35.8279 179.468 35.7782 179.766 35.8777Z" fill="white"/>
  <path d="M183.344 46.4165C183.841 46.5656 184.04 46.9136 183.891 47.2119C183.692 47.5102 183.195 47.6096 182.698 47.4107C182.2 47.2616 181.952 46.9136 182.151 46.6154C182.35 46.3668 182.847 46.2674 183.344 46.4165Z" fill="white"/>
  <path d="M178.719 66.9472C179.116 67.0964 179.265 67.4443 179.067 67.7923C178.868 68.1403 178.42 68.2895 178.072 68.19C177.675 68.0409 177.526 67.6432 177.724 67.2952C177.874 66.9472 178.321 66.7981 178.719 66.9472Z" fill="white"/>
  <path d="M175.742 68.4887C176.09 68.5881 176.189 68.9361 176.04 69.2344C175.841 69.5326 175.493 69.6818 175.145 69.5823C174.797 69.4829 174.648 69.1349 174.847 68.8367C174.996 68.5384 175.394 68.3893 175.742 68.4887Z" fill="white"/>
  <path d="M186.279 63.5172C186.727 63.716 186.926 64.1137 186.776 64.5114C186.627 64.9091 186.13 65.0582 185.683 64.9091C185.235 64.7103 185.037 64.3126 185.186 63.9149C185.385 63.5172 185.882 63.368 186.279 63.5172Z" fill="white"/>
  <path d="M182.197 65.2572C182.645 65.456 182.844 65.8537 182.694 66.2514C182.545 66.6491 182.048 66.7982 181.601 66.6491C181.153 66.4502 180.955 66.0526 181.104 65.6549C181.302 65.2572 181.75 65.108 182.197 65.2572Z" fill="white"/>
  <path d="M187.221 45.82C187.519 45.9692 187.718 46.2177 187.619 46.3669C187.519 46.5657 187.172 46.6154 186.873 46.516C186.525 46.3669 186.376 46.1183 186.476 45.9195C186.575 45.7703 186.923 45.7206 187.221 45.82Z" fill="white"/>
  <path d="M195.622 36.7724C195.92 36.8718 196.069 37.0707 196.019 37.2198C195.97 37.369 195.721 37.369 195.423 37.2695C195.124 37.1701 194.975 36.9713 195.025 36.8221C195.124 36.673 195.373 36.673 195.622 36.7724Z" fill="white"/>
  <path d="M190.604 62.175C190.952 62.3241 191.151 62.7218 191.052 63.0201C190.903 63.3183 190.555 63.4675 190.157 63.3183C189.759 63.1692 189.61 62.7715 189.71 62.4732C189.859 62.175 190.256 62.0258 190.604 62.175Z" fill="white"/>
  <path d="M194.63 60.8327C194.978 60.9818 195.176 61.3298 195.077 61.6281C194.978 61.9263 194.63 62.0258 194.282 61.8766C193.934 61.7275 193.735 61.3795 193.834 61.0812C193.934 60.783 194.282 60.6835 194.63 60.8327Z" fill="white"/>
  <path d="M198.361 59.9878C198.709 60.1369 198.908 60.4849 198.809 60.7335C198.709 61.0317 198.411 61.1312 198.063 60.982C197.715 60.8329 197.516 60.4849 197.615 60.1866C197.715 59.9381 198.063 59.8387 198.361 59.9878Z" fill="white"/>
  <path d="M180.115 45.5715C180.413 45.6709 180.612 45.8698 180.463 46.0686C180.314 46.2675 180.015 46.3172 179.667 46.2178C179.319 46.1183 179.17 45.9195 179.319 45.7206C179.468 45.5715 179.816 45.4721 180.115 45.5715Z" fill="white"/>
  <path d="M182.252 47.9076C182.65 48.0568 182.848 48.3053 182.699 48.5539C182.55 48.8024 182.152 48.9019 181.755 48.7527C181.357 48.6036 181.158 48.355 181.307 48.1065C181.456 47.8579 181.854 47.8082 182.252 47.9076Z" fill="white"/>
  <path d="M185.286 49.2499C185.634 49.399 185.783 49.6476 185.684 49.8962C185.584 50.095 185.186 50.1944 184.838 50.0453C184.49 49.8962 184.292 49.6476 184.441 49.399C184.59 49.2002 184.938 49.1505 185.286 49.2499Z" fill="white"/>
  <path d="M188.267 50.4433C188.565 50.5924 188.714 50.841 188.615 51.0398C188.515 51.2387 188.217 51.2884 187.919 51.1889C187.621 51.0398 187.471 50.7913 187.521 50.5924C187.67 50.3936 187.969 50.3438 188.267 50.4433Z" fill="white"/>
  <path d="M191.147 51.6858C191.445 51.835 191.594 52.0835 191.544 52.2824C191.445 52.4812 191.147 52.5309 190.849 52.4315C190.55 52.2824 190.401 52.0338 190.451 51.835C190.55 51.6361 190.849 51.5367 191.147 51.6858Z" fill="white"/>
  <path d="M197.617 37.518C197.866 37.6174 198.064 37.8163 198.015 37.9654C197.965 38.1146 197.766 38.1146 197.468 38.0151C197.219 37.9157 197.02 37.7169 197.07 37.5677C197.12 37.4186 197.319 37.4186 197.617 37.518Z" fill="white"/>
  <path d="M196.171 35.8776C196.419 35.9771 196.568 36.1262 196.519 36.2753C196.469 36.4245 196.27 36.4245 196.022 36.325C195.773 36.2256 195.624 36.0765 195.674 35.9274C195.723 35.7782 195.972 35.7782 196.171 35.8776Z" fill="white"/>
  <path d="M194.729 34.4856C194.928 34.585 195.077 34.7341 195.077 34.8335C195.027 34.933 194.878 34.9827 194.629 34.8832C194.43 34.7838 194.281 34.6844 194.281 34.5353C194.281 34.3861 194.48 34.3861 194.729 34.4856Z" fill="white"/>
  <path d="M199.252 39.4568C199.55 39.606 199.699 39.8048 199.649 40.0036C199.6 40.1528 199.351 40.1528 199.053 40.0036C198.755 39.8545 198.605 39.6557 198.605 39.4568C198.705 39.3077 198.953 39.3077 199.252 39.4568Z" fill="white"/>
  <path d="M179.067 47.0131C179.415 47.1125 179.564 47.3611 179.415 47.5599C179.266 47.7588 178.918 47.8085 178.57 47.7091C178.222 47.6096 178.073 47.3611 178.222 47.1622C178.42 46.9634 178.768 46.9137 179.067 47.0131Z" fill="white"/>
  <path d="M176.139 46.2175C176.437 46.3169 176.586 46.5157 176.487 46.6649C176.337 46.8637 175.989 46.9134 175.691 46.8637C175.393 46.7643 175.244 46.5655 175.343 46.4163C175.492 46.2175 175.84 46.118 176.139 46.2175Z" fill="white"/>
  <path d="M201.192 45.1238C201.093 45.4718 201.391 45.9192 201.888 46.2672C201.292 46.0684 200.795 46.1678 200.646 46.5655C200.546 46.9135 200.795 47.3609 201.192 47.7089C200.695 47.6094 200.298 47.7586 200.148 48.1066C200.049 48.5042 200.347 49.0511 200.944 49.4488C200.298 49.2499 199.8 49.3991 199.651 49.8465C199.552 50.1944 199.751 50.6916 200.148 51.0396C199.651 50.9898 199.254 51.139 199.104 51.5367C199.005 51.9841 199.254 52.4812 199.751 52.8789C199.154 52.7795 198.707 52.9783 198.558 53.4257C198.408 54.0223 198.906 54.8176 199.701 55.2153C200.397 55.5136 200.994 55.4639 201.292 55.1159C201.391 55.6627 201.839 56.2096 202.485 56.5576C203.032 56.8061 203.579 56.8061 203.877 56.5576C204.026 57.0547 204.473 57.5021 205.02 57.8004C205.567 58.0489 206.064 58.0489 206.362 57.8004C206.561 58.2975 206.959 58.7449 207.506 59.0431C208.053 59.3414 208.55 59.2917 208.848 59.0431C209.047 59.5403 209.445 60.0374 209.991 60.3357C210.787 60.7334 211.383 60.5345 211.483 59.8882C211.532 59.3911 211.234 58.8443 210.737 58.3969C211.234 58.4963 211.632 58.2975 211.682 57.8501C211.731 57.4524 211.483 56.9553 211.035 56.5576C211.483 56.6073 211.781 56.4084 211.831 56.0107C211.88 55.5136 211.483 54.9668 210.936 54.5691C211.532 54.7679 211.93 54.6188 211.98 54.1714C211.98 53.7737 211.731 53.3263 211.284 52.9286C211.731 53.028 212.03 52.8789 212.079 52.5309C212.079 52.1332 211.731 51.5864 211.184 51.1887C211.682 51.3875 212.03 51.2384 212.079 50.8904C212.079 50.4927 211.682 49.9459 211.085 49.5979C210.588 49.3493 210.14 49.3493 209.991 49.5979C209.892 49.2002 209.544 48.7528 208.997 48.5043C208.5 48.2557 208.053 48.2557 207.903 48.4545C207.804 48.0568 207.406 47.5597 206.859 47.2615C206.313 46.9632 205.816 46.9632 205.567 47.2615C205.468 46.9135 205.12 46.4661 204.622 46.2175C204.026 45.9192 203.479 45.9192 203.38 46.3169C203.479 45.9192 203.032 45.4221 202.385 45.0741C201.888 44.6764 201.341 44.7262 201.192 45.1238ZM209.246 56.8558C209.544 57.005 209.743 57.3032 209.743 57.5518C209.693 57.8004 209.444 57.8501 209.146 57.7009C208.848 57.5518 208.649 57.2535 208.649 57.005C208.699 56.7564 208.947 56.7067 209.246 56.8558ZM206.859 55.7125C207.108 55.8616 207.307 56.1102 207.307 56.309C207.257 56.5078 207.009 56.6073 206.76 56.4581C206.462 56.309 206.313 56.0604 206.313 55.8119C206.313 55.613 206.561 55.5633 206.859 55.7125ZM204.424 54.5194C204.722 54.6685 204.871 54.9171 204.821 55.1159C204.772 55.3148 204.523 55.3645 204.225 55.2651C203.926 55.1159 203.777 54.8674 203.827 54.6685C203.877 54.4199 204.125 54.3702 204.424 54.5194ZM202.236 53.8234C202.187 54.072 201.888 54.1217 201.59 53.9725C201.292 53.8234 201.043 53.5251 201.143 53.2766C201.192 53.028 201.491 52.9783 201.789 53.1274C202.087 53.3263 202.286 53.6246 202.236 53.8234ZM209.544 55.1656C209.792 55.3148 209.991 55.5633 209.991 55.7622C209.942 55.961 209.743 56.0107 209.494 55.8616C209.246 55.7125 209.047 55.4639 209.047 55.2651C209.047 55.0662 209.295 55.0165 209.544 55.1656ZM202.187 51.487C202.485 51.6361 202.634 51.8847 202.584 52.0835C202.535 52.2823 202.286 52.3321 201.988 52.1829C201.689 52.0338 201.54 51.7852 201.59 51.5864C201.689 51.3875 201.938 51.3378 202.187 51.487ZM209.743 53.376C209.991 53.5251 210.19 53.7737 210.14 53.9725C210.14 54.1714 209.892 54.2211 209.643 54.072C209.395 53.9228 209.196 53.6743 209.246 53.4754C209.295 53.3263 209.494 53.2766 209.743 53.376ZM202.634 49.7968C202.883 49.9459 203.081 50.1944 203.032 50.3436C202.982 50.5424 202.733 50.5424 202.485 50.443C202.236 50.2939 202.037 50.0453 202.087 49.8962C202.087 49.6973 202.336 49.6476 202.634 49.7968ZM209.942 51.7355C210.19 51.8847 210.389 52.0835 210.339 52.2823C210.29 52.4812 210.091 52.4812 209.842 52.3818C209.594 52.2326 209.395 52.0338 209.445 51.8349C209.494 51.6361 209.693 51.5864 209.942 51.7355ZM203.032 48.206C203.28 48.3551 203.479 48.554 203.429 48.7528C203.38 48.9517 203.131 48.9517 202.883 48.8522C202.634 48.7031 202.435 48.5043 202.485 48.3054C202.535 48.1066 202.733 48.0568 203.032 48.206ZM210.041 49.9956C210.29 50.1447 210.488 50.3933 210.488 50.5921C210.488 50.791 210.24 50.791 209.991 50.6916C209.743 50.5424 209.544 50.2939 209.544 50.095C209.544 49.8962 209.792 49.8962 210.041 49.9956ZM207.903 48.9517C208.152 49.1008 208.301 49.2996 208.301 49.4488C208.251 49.6476 208.053 49.6476 207.804 49.4985C207.555 49.3494 207.406 49.1505 207.406 49.0014C207.456 48.8522 207.655 48.8025 207.903 48.9517ZM205.766 47.858C206.014 48.0071 206.164 48.206 206.164 48.3551C206.114 48.5042 205.915 48.554 205.666 48.4048C205.418 48.2557 205.269 48.0568 205.269 47.9077C205.318 47.7089 205.517 47.7089 205.766 47.858ZM203.38 46.6152C203.678 46.7643 203.827 47.0129 203.827 47.162C203.777 47.3609 203.529 47.3609 203.231 47.2117C202.932 47.0626 202.783 46.814 202.783 46.6152C202.883 46.5158 203.131 46.4661 203.38 46.6152Z" fill="white"/>
</svg>
