<svg xmlns="http://www.w3.org/2000/svg" width="241" height="144" viewBox="0 0 241 144" fill="none">
  <path d="M65.8671 65.2657C61.7631 75.5687 59.2611 82.0305 59.2611 82.2997C59.2611 82.3715 59.0451 82.6767 58.7751 82.9459L58.2891 83.4485H60.1431C61.9431 83.4485 61.9791 83.4305 61.6191 83.1254L61.2411 82.8203L62.3031 79.8586L63.3471 76.897L66.8571 76.8431L70.3671 76.8072L71.5371 79.715C72.6171 82.3715 72.6891 82.6767 72.4551 83.0357L72.2211 83.4485H75.0291H77.8551L77.3691 83.0715C77.0991 82.8741 76.7391 82.4074 76.5591 82.0484C76.3791 81.6715 74.4171 76.879 72.2211 71.3685C68.6391 62.4297 68.1711 61.3707 67.8291 61.3707C67.4691 61.3707 67.2351 61.8554 65.8671 65.2657ZM67.7211 70.0223C68.1351 71.1352 68.8011 72.8224 69.1791 73.7558L69.8631 75.461L68.3331 75.5149C67.5051 75.5328 66.1371 75.5328 65.3091 75.5149L63.8151 75.461L65.2551 71.7275C66.0651 69.6813 66.7671 68.012 66.8211 68.012C66.8931 68.012 67.2891 68.9274 67.7211 70.0223Z" fill="white"/>
  <path d="M217.121 63.2913C216.707 64.3683 215.285 67.9402 213.989 71.2429C211.487 77.5611 210.299 80.5945 209.723 82.1202C209.507 82.6587 209.219 83.1074 208.967 83.2331C208.661 83.3767 208.967 83.4305 210.443 83.4305C212.261 83.4485 212.315 83.4305 212.009 83.1074C211.721 82.8023 211.739 82.6767 212.351 80.9176C212.711 79.8945 213.179 78.5483 213.395 77.9201L213.773 76.8072H217.319H220.847L221.963 79.5894C223.115 82.5151 223.205 82.8741 222.845 83.2331C222.683 83.3946 223.259 83.4485 225.473 83.4485H228.317L227.777 82.9998C227.417 82.6946 226.967 81.9048 226.427 80.6125C225.419 78.2252 221.153 67.6351 219.749 64.0093C218.831 61.6579 218.669 61.3707 218.291 61.3707C217.913 61.3707 217.769 61.6041 217.121 63.2913ZM218.813 71.548C219.587 73.5045 220.253 75.2097 220.307 75.3174C220.379 75.4969 219.713 75.5507 217.337 75.5507H214.295L215.753 71.7814C216.545 69.6992 217.247 68.012 217.319 68.012C217.373 68.012 218.057 69.6095 218.813 71.548Z" fill="white"/>
  <path d="M18.3814 61.8014C16.3294 62.3938 14.6194 63.8297 14.0434 65.4452C13.9174 65.8221 13.8094 66.8093 13.8094 67.6529C13.8094 70.4351 14.7814 71.6915 18.1114 73.307C19.2634 73.8455 20.2714 74.2942 20.3614 74.2942C20.7754 74.2942 22.4134 75.8199 22.7374 76.502C23.3854 77.9379 23.0434 79.7508 21.8734 81.097C21.0454 82.0663 20.0194 82.5868 18.6514 82.6945C17.7334 82.7663 17.3734 82.6945 16.5814 82.3355C15.4294 81.7971 14.3134 80.756 13.7734 79.6611L13.3594 78.8713V80.5226C13.3594 82.156 13.3594 82.174 13.8994 82.5509C14.7814 83.1792 16.4194 83.6638 17.9314 83.7715C23.1334 84.0946 27.3454 80.0919 26.4994 75.6045C26.1574 73.666 25.0774 72.589 22.2334 71.2428C18.5614 69.5017 18.2914 69.3402 17.6974 68.353C17.4274 67.9222 17.3194 67.4375 17.3194 66.7016C17.3194 64.3502 18.7594 62.7886 21.0094 62.7527C22.5214 62.7348 23.8894 63.6323 24.7534 65.2298L25.1494 65.9477L25.2034 64.5118C25.2574 63.1476 25.2394 63.0579 24.7714 62.6989C23.6194 61.7655 20.1634 61.2809 18.3814 61.8014Z" fill="white"/>
  <path d="M118.553 61.9451C116.717 62.0887 115.601 62.4298 113.963 63.2734C110.471 65.1042 108.689 68.2992 108.707 72.7686C108.707 76.1072 109.679 78.656 111.749 80.6843C113.081 81.9767 114.467 82.7485 116.411 83.287C117.725 83.646 118.139 83.6639 121.001 83.5742C124.025 83.4844 124.601 83.3947 127.265 82.6228C127.661 82.5151 127.661 82.4792 127.661 78.9612V75.3892L128.129 75.0302L128.615 74.6533H126.383C124.097 74.6533 124.043 74.6713 125.087 75.2636C125.105 75.2815 125.177 76.7175 125.249 78.4406L125.357 81.5818L124.583 81.8869C123.215 82.4075 121.901 82.5869 120.299 82.5151C118.193 82.4075 116.753 81.7254 115.331 80.1638C113.459 78.0996 112.631 75.7662 112.649 72.4994C112.649 69.089 113.423 66.9171 115.277 65.0683C116.663 63.7042 117.761 63.1657 119.453 63.0401C122.297 62.8247 125.033 64.135 127.067 66.6658L127.643 67.3838L127.661 65.5709V63.758L126.365 63.2016C123.359 61.9631 121.631 61.6759 118.553 61.9451Z" fill="white"/>
  <path d="M34.3111 62.5374L34.7791 62.9682V72.8404V82.6946L34.2931 83.0715L33.7891 83.4305L36.7411 83.4485H39.6931L39.2071 83.0715L38.7391 82.7126V77.3277V71.9609H43.1491H47.5591V77.3995V82.8203L47.0731 83.1254C46.5871 83.4305 46.6591 83.4305 49.5211 83.4485H52.4731L52.0951 83.0357L51.6991 82.6228V72.7327V62.8246L52.1671 62.4656L52.6531 62.0887H49.7191H46.7851L47.1631 62.5015C47.5411 62.8964 47.5591 63.058 47.5591 66.8094V70.7044H43.1491H38.7391V66.7735V62.8246L39.2071 62.4656L39.6931 62.0887H36.7591H33.8251L34.3111 62.5374Z" fill="white"/>
  <path d="M83.487 62.699L84.099 63.3093V73.0199C84.099 82.5331 84.099 82.7305 83.739 82.9459C83.109 83.3408 83.343 83.4485 84.765 83.4485H86.133L85.737 83.0177L85.323 82.569L85.341 74.2584C85.359 69.6993 85.395 65.9478 85.413 65.9119C85.467 65.876 86.691 67.33 92.829 74.6354C93.729 75.6944 95.259 77.5252 96.249 78.6919C97.239 79.8766 98.697 81.5997 99.489 82.5331C100.911 84.2383 100.929 84.2562 101.019 83.7178C101.091 83.4126 101.145 78.6201 101.163 73.0379L101.199 62.8964L101.667 62.4836L102.117 62.0887H100.101H98.067L98.553 62.5913L99.039 63.0939V69.5916C99.039 73.1635 98.967 76.0893 98.895 76.0893C98.805 76.0893 98.427 75.7123 98.031 75.2456C97.653 74.779 95.799 72.5712 93.909 70.3454C92.037 68.1197 90.327 66.1094 90.129 65.876C89.931 65.6248 89.481 65.1042 89.139 64.7093C88.779 64.2965 88.149 63.5426 87.717 63.0221L86.943 62.0887H84.909H82.875L83.487 62.699Z" fill="white"/>
  <path d="M136.734 62.4658L137.202 62.8248V72.6431V82.4435L136.716 82.9461L136.23 83.4487H139.2L142.152 83.4307L141.666 83.0717L141.162 82.6948V78.2254V73.756H142.044C143.97 73.756 144.222 74.0252 146.472 78.3331C147.966 81.205 148.776 82.4435 149.64 83.1794C150.09 83.5564 150.378 83.6282 151.278 83.6282C151.872 83.6282 152.682 83.5384 153.06 83.4128L153.762 83.2153L152.934 82.4076C152.124 81.5819 151.53 80.7383 149.298 77.0766C148.632 75.9997 147.642 74.6176 147.066 74.0252L146.058 72.9303L146.778 72.5175C148.866 71.3328 150.018 69.502 150.036 67.4019C150.036 65.3557 149.064 63.9556 146.904 62.9505C145.356 62.2325 144.294 62.0889 140.136 62.0889H136.248L136.734 62.4658ZM144.6 63.3095C145.32 63.5966 146.184 64.4044 146.616 65.2121C146.958 65.8403 147.012 66.2352 147.012 67.8327C147.012 69.5738 146.976 69.7892 146.508 70.561C145.698 71.9431 143.574 72.8585 141.846 72.5713L141.162 72.4636V67.743V63.0043L141.756 62.9505C142.476 62.8787 143.988 63.0761 144.6 63.3095Z" fill="white"/>
  <path d="M160.113 62.5376L160.599 62.9683V72.8405V82.6947L160.113 83.0717L159.609 83.4307H162.579H165.549L165.063 83.0717L164.559 82.6947V72.7687V62.8427L165.063 62.4658L165.549 62.1068H162.579H159.609L160.113 62.5376Z" fill="white"/>
  <path d="M191.882 62.5015L192.278 62.9144V72.7686V82.6228L191.882 83.0357L191.504 83.4485H197.66H203.798L203.978 82.9818C204.086 82.7305 204.158 82.3356 204.158 82.1023C204.158 81.6894 204.14 81.6894 203.582 81.9048C203.204 82.0484 201.71 82.192 199.622 82.2638L196.238 82.3895V72.7506V63.0939L196.724 62.5913L197.21 62.0887H194.348H191.504L191.882 62.5015Z" fill="white"/>
  <path d="M174.048 71.7276C173.976 71.7814 173.922 72.2661 173.922 72.8045V73.7559H178.422H182.922V72.6789V71.6019H178.548C176.136 71.6019 174.102 71.6558 174.048 71.7276Z" fill="white"/>
  <path d="M13 94.3079V94.7566H121H229V94.3079V93.8591H121H13V94.3079Z" fill="white"/>
  <path d="M52.9583 105.365C52.1303 105.867 51.7343 106.334 51.2663 107.321C50.7443 108.416 50.7263 111.055 51.2303 111.988C52.1483 113.675 53.0663 114.322 54.5783 114.322C56.2703 114.322 57.5663 113.28 58.1063 111.521C58.4123 110.516 58.4123 108.542 58.1243 107.734C57.7643 106.783 56.8283 105.616 56.1623 105.293C55.2443 104.862 53.7323 104.898 52.9583 105.365ZM55.4603 105.616C56.2883 106.047 56.4683 106.747 56.4683 109.744C56.4683 112.096 56.4323 112.509 56.1263 113.011C55.6943 113.711 54.9743 114.034 54.2363 113.873C52.9943 113.604 52.5083 112.096 52.6343 109.044C52.7243 106.926 52.9763 106.137 53.7143 105.634C54.2183 105.275 54.8123 105.275 55.4603 105.616Z" fill="white"/>
  <path d="M61.6016 106.514C61.6016 107.698 61.6556 108.039 61.8536 108.039C61.9976 108.039 62.1596 107.752 62.2316 107.357C62.3036 106.998 62.4656 106.424 62.5916 106.101C62.8076 105.634 62.9516 105.526 63.3836 105.526H63.9416V109.655V113.783H63.4916C63.2396 113.783 63.0416 113.855 63.0416 113.963C63.0416 114.07 63.7256 114.142 64.7516 114.142C65.7776 114.142 66.4616 114.07 66.4616 113.963C66.4616 113.855 66.2636 113.783 66.0116 113.783H65.5616V109.655V105.526H66.1016C66.6956 105.526 66.8396 105.724 67.1996 107.088C67.5776 108.596 67.9016 108.326 67.9016 106.514V104.988H64.7516H61.6016V106.514Z" fill="white"/>
  <path d="M94.0523 105.329C93.1703 105.742 92.7383 106.442 92.7383 107.501C92.7383 108.901 93.3683 109.511 95.6543 110.373C96.8423 110.803 97.4183 111.432 97.4183 112.239C97.4003 113.173 96.5003 113.963 95.4743 113.963C94.6283 113.963 93.9443 113.191 93.5663 111.827C93.3683 111.127 93.1703 110.732 92.9903 110.732C92.7923 110.732 92.7383 111.037 92.7383 112.239V113.747L93.4583 114.034C93.8723 114.196 94.7003 114.322 95.4023 114.322C97.4903 114.322 98.6783 113.263 98.6783 111.414C98.6783 110.193 98.1563 109.673 95.9603 108.757C93.8363 107.86 93.4943 107.483 93.8723 106.567C94.0163 106.244 94.2323 105.885 94.3763 105.778C94.8083 105.437 95.6363 105.329 96.2483 105.526C96.8243 105.724 97.2563 106.388 97.6883 107.806C97.9223 108.632 98.1383 108.183 98.1383 106.801V105.383L97.3463 105.185C96.1583 104.898 94.9163 104.952 94.0523 105.329Z" fill="white"/>
  <path d="M155.938 105.293C154.966 105.796 154.57 106.478 154.57 107.626C154.57 108.56 154.624 108.65 155.254 109.206C155.614 109.529 156.406 109.96 156.982 110.175C158.908 110.875 159.556 111.683 159.07 112.814C158.89 113.227 158.602 113.514 158.188 113.693C156.766 114.286 156.064 113.855 155.452 112.06C154.876 110.337 154.66 110.373 154.66 112.221V113.747L155.272 114.034C155.668 114.214 156.37 114.322 157.234 114.322C158.422 114.322 158.638 114.268 159.304 113.783C160.15 113.173 160.366 112.85 160.528 111.862C160.672 110.929 160.24 109.978 159.466 109.511C159.142 109.332 158.314 108.955 157.594 108.667C155.596 107.896 155.236 107.393 155.83 106.244C156.208 105.508 157.234 105.221 158.116 105.58C158.656 105.814 158.818 106.029 159.142 106.855C159.358 107.411 159.52 107.949 159.52 108.039C159.52 108.147 159.646 108.219 159.79 108.219C160.006 108.219 160.06 107.949 160.06 106.873C160.06 105.562 160.042 105.508 159.574 105.311C158.656 104.934 156.622 104.934 155.938 105.293Z" fill="white"/>
  <path d="M166.253 105.437C163.679 106.962 163.463 111.719 165.875 113.658C167.117 114.681 169.475 114.483 170.519 113.316C171.365 112.365 171.671 111.396 171.671 109.745C171.671 107.662 171.113 106.388 169.835 105.544C168.737 104.808 167.351 104.773 166.253 105.437ZM169.007 105.742C169.727 106.334 169.871 106.998 169.871 109.565C169.871 111.647 169.817 112.222 169.529 112.832C168.881 114.268 167.189 114.34 166.469 112.975C166.127 112.347 166.091 111.952 166.091 109.529C166.091 107.052 166.127 106.765 166.469 106.298C167.153 105.383 168.269 105.132 169.007 105.742Z" fill="white"/>
  <path d="M185.801 106.514C185.801 107.716 185.855 108.039 186.053 108.039C186.215 108.039 186.377 107.698 186.503 107.124C186.791 105.814 186.989 105.526 187.601 105.526H188.141V109.655V113.783H187.691C187.439 113.783 187.241 113.855 187.241 113.963C187.241 114.07 187.925 114.142 188.951 114.142C189.977 114.142 190.661 114.07 190.661 113.963C190.661 113.855 190.463 113.783 190.211 113.783H189.761V109.655V105.526H190.319C190.751 105.526 190.895 105.634 191.111 106.101C191.237 106.424 191.399 106.998 191.471 107.357C191.543 107.752 191.705 108.039 191.849 108.039C192.047 108.039 192.101 107.698 192.101 106.514V104.988H188.951H185.801V106.514Z" fill="white"/>
  <path d="M197.411 105.275C196.529 105.724 196.277 106.047 196.061 106.962C195.899 107.645 195.899 107.932 196.115 108.434C196.349 108.991 197.249 109.834 197.591 109.834C197.681 109.834 198.311 110.122 199.031 110.463C200.003 110.929 200.381 111.216 200.561 111.611C201.119 112.993 199.517 114.393 198.059 113.783C197.519 113.568 197.069 112.85 196.691 111.557C196.313 110.283 196.061 110.552 196.061 112.258V113.801L196.691 114.07C197.501 114.411 199.697 114.393 200.363 114.052C201.605 113.424 202.235 111.916 201.821 110.642C201.569 109.87 201.065 109.511 199.139 108.757C198.311 108.416 197.483 107.986 197.303 107.788C196.799 107.25 196.871 106.568 197.519 105.957C197.969 105.526 198.203 105.437 198.869 105.455C199.895 105.473 200.255 105.814 200.651 107.142C201.137 108.721 201.461 108.578 201.461 106.801V105.383L200.669 105.185C199.535 104.898 198.041 104.934 197.411 105.275Z" fill="white"/>
  <path d="M39.2812 105.347C39.2812 105.437 39.4433 105.526 39.6412 105.526C39.9832 105.526 40.0012 105.652 40.0012 109.655C40.0012 113.657 39.9832 113.783 39.6412 113.783C39.4433 113.783 39.2812 113.855 39.2812 113.963C39.2812 114.07 39.9112 114.142 40.8112 114.142C41.7112 114.142 42.3412 114.07 42.3412 113.963C42.3412 113.855 42.1792 113.783 41.9812 113.783C41.6392 113.783 41.6212 113.657 41.6212 111.719V109.655H43.2412H44.8612V111.719V113.783H44.4112C44.1592 113.783 43.9612 113.855 43.9612 113.963C43.9612 114.07 44.6272 114.142 45.5812 114.142C46.5352 114.142 47.2012 114.07 47.2012 113.963C47.2012 113.855 47.0032 113.783 46.7512 113.783H46.3012V109.655V105.526H46.7512C47.0032 105.526 47.2012 105.437 47.2012 105.347C47.2012 105.239 46.5352 105.167 45.5812 105.167C44.6272 105.167 43.9612 105.239 43.9612 105.347C43.9612 105.437 44.1592 105.526 44.4112 105.526H44.8612V107.411V109.296H43.2412H41.6212V107.411C41.6212 105.652 41.6392 105.526 41.9812 105.526C42.1792 105.526 42.3412 105.437 42.3412 105.347C42.3412 105.239 41.7112 105.167 40.8112 105.167C39.9112 105.167 39.2812 105.239 39.2812 105.347Z" fill="white"/>
  <path d="M71.6797 105.347C71.6797 105.437 71.8417 105.526 72.0397 105.526C72.3817 105.526 72.3997 105.652 72.3997 109.655C72.3997 113.657 72.3817 113.783 72.0397 113.783C71.8417 113.783 71.6797 113.855 71.6797 113.963C71.6797 114.07 72.9397 114.142 75.0997 114.142H78.5197V112.437C78.5197 111.055 78.4657 110.732 78.2497 110.732C78.0877 110.732 77.8897 111.091 77.7097 111.701C77.5477 112.239 77.2597 112.886 77.0617 113.137C76.7197 113.568 76.5757 113.604 75.3517 113.604H74.0197V111.629V109.655H74.6497C75.3157 109.655 75.6937 110.032 75.9097 110.965C75.9817 111.234 76.1437 111.45 76.2877 111.45C76.4857 111.45 76.5397 111.037 76.5397 109.475C76.5397 107.95 76.4857 107.501 76.3057 107.501C76.1617 107.501 75.9637 107.824 75.8377 108.219C75.6037 108.991 75.2257 109.296 74.4877 109.296H74.0197V107.411V105.526H75.3517C76.9357 105.526 77.1157 105.652 77.5477 107.052C78.0157 108.524 78.3397 108.344 78.3397 106.603V105.167H75.0097C72.9037 105.167 71.6797 105.239 71.6797 105.347Z" fill="white"/>
  <path d="M82.8398 105.347C82.8398 105.437 83.0018 105.526 83.1998 105.526C83.5418 105.526 83.5598 105.652 83.5598 109.655C83.5598 113.657 83.5418 113.783 83.1998 113.783C83.0018 113.783 82.8398 113.855 82.8398 113.963C82.8398 114.07 84.0098 114.142 85.9898 114.142H89.1398V112.257C89.1398 111.091 89.0678 110.373 88.9598 110.373C88.8518 110.373 88.7438 110.48 88.7078 110.588C88.0598 112.742 87.7718 113.46 87.5018 113.604C87.3218 113.711 86.7278 113.783 86.1878 113.783H85.1798V109.655V105.526H85.8098C86.1518 105.526 86.4398 105.437 86.4398 105.347C86.4398 105.239 85.7198 105.167 84.6398 105.167C83.5598 105.167 82.8398 105.239 82.8398 105.347Z" fill="white"/>
  <path d="M132.52 105.347C132.52 105.437 132.682 105.526 132.88 105.526C133.222 105.526 133.24 105.652 133.24 109.655C133.24 113.657 133.222 113.783 132.88 113.783C132.682 113.783 132.52 113.855 132.52 113.963C132.52 114.07 133.186 114.142 134.14 114.142C135.094 114.142 135.76 114.07 135.76 113.963C135.76 113.855 135.562 113.783 135.31 113.783H134.86V111.845C134.878 109.619 134.68 109.565 136.714 112.419L137.938 114.142H139.108C139.756 114.142 140.26 114.07 140.26 113.963C140.26 113.855 140.098 113.783 139.918 113.783C139.576 113.783 139.234 113.352 137.434 110.821L136.66 109.744L137.452 109.475C138.388 109.152 138.748 108.865 139.108 108.201C139.45 107.519 139.432 106.98 139 106.28C138.424 105.365 137.74 105.167 134.95 105.167C133.456 105.167 132.52 105.239 132.52 105.347ZM137.146 106.137C137.596 106.675 137.686 107.555 137.362 108.291C137.11 108.847 136.192 109.296 135.328 109.296H134.68V107.393V105.49L135.706 105.562C136.534 105.634 136.804 105.742 137.146 106.137Z" fill="white"/>
  <path d="M143.141 105.347C143.141 105.437 143.339 105.526 143.591 105.526H144.041V109.655V113.783H143.591C143.339 113.783 143.141 113.855 143.141 113.963C143.141 114.07 144.401 114.142 146.561 114.142H149.981V112.419C149.981 110.409 149.783 110.283 149.171 111.952C148.577 113.568 148.541 113.604 146.903 113.604H145.481V111.629V109.655H146.075C146.849 109.655 147.083 109.834 147.371 110.66C147.821 111.952 148.001 111.611 148.001 109.475C148.001 108.021 147.947 107.483 147.785 107.537C147.677 107.573 147.479 107.878 147.371 108.201C147.137 108.919 146.669 109.296 145.985 109.296H145.481V107.411V105.526H146.921C148.541 105.526 148.703 105.652 149.171 107.178C149.297 107.626 149.513 107.967 149.693 108.003C149.945 108.057 149.981 107.86 149.981 106.621V105.167H146.561C144.401 105.167 143.141 105.239 143.141 105.347Z" fill="white"/>
  <path d="M175.18 105.347C175.18 105.437 175.378 105.526 175.63 105.526H176.08V109.655V113.783H175.63C175.378 113.783 175.18 113.855 175.18 113.963C175.18 114.07 175.864 114.142 176.89 114.142C177.916 114.142 178.6 114.07 178.6 113.963C178.6 113.855 178.366 113.783 178.06 113.783H177.52V111.791V109.816L178.852 111.593C179.572 112.563 180.274 113.55 180.382 113.765C180.562 114.088 180.742 114.142 181.75 114.142C182.956 114.142 183.208 113.998 182.524 113.693C182.182 113.532 179.536 110.121 179.518 109.798C179.5 109.727 179.842 109.583 180.256 109.475C180.652 109.35 181.228 109.044 181.516 108.757C181.93 108.326 182.02 108.093 182.02 107.357C182.02 106.262 181.57 105.616 180.616 105.347C179.752 105.114 175.18 105.114 175.18 105.347ZM179.518 105.796C180.508 106.316 180.706 107.698 179.914 108.578C179.518 109.009 179.212 109.152 178.474 109.242L177.52 109.35V107.429V105.526H178.24C178.654 105.526 179.212 105.652 179.518 105.796Z" fill="white"/>
  <path d="M123.45 107.232C123.396 107.393 123.45 107.501 123.594 107.501C123.774 107.501 123.792 107.68 123.648 108.416C123.504 109.098 123.432 109.26 123.306 109.044C123.198 108.865 122.892 108.757 122.442 108.757C121.02 108.757 119.94 110.283 119.922 112.311C119.922 113.28 119.994 113.514 120.372 113.873C120.804 114.322 121.938 114.501 122.154 114.16C122.208 114.088 122.658 114.052 123.162 114.106C123.72 114.16 124.062 114.124 124.062 113.998C124.062 113.891 123.972 113.783 123.864 113.747C123.72 113.693 124.62 108.829 125.07 107.267C125.16 107.016 125.052 106.962 124.368 106.962C123.81 106.962 123.522 107.052 123.45 107.232ZM123.162 110.355C123.162 112.042 122.298 113.963 121.524 113.963C120.894 113.963 120.858 112.437 121.488 110.552C122.046 108.865 123.162 108.721 123.162 110.355Z" fill="white"/>
  <path d="M107.554 108.937C107.32 109.027 107.122 109.314 107.05 109.691C106.996 110.014 106.888 110.427 106.852 110.588C106.69 111.127 107.266 110.947 107.5 110.391C108.04 109.08 109.336 108.668 109.444 109.78C109.534 110.732 109.264 111.019 108.004 111.252C107.374 111.378 106.69 111.593 106.474 111.737C106.042 112.006 105.718 112.922 105.844 113.55C105.988 114.358 107.662 114.537 108.436 113.837C108.76 113.55 108.76 113.55 108.652 113.837C108.562 114.088 108.67 114.142 109.372 114.142C110.128 114.142 110.488 113.909 110.002 113.747C109.876 113.711 109.948 112.993 110.218 111.557L110.65 109.439L110.218 109.098C109.768 108.739 108.292 108.65 107.554 108.937ZM109.12 111.665C109.12 111.791 108.958 112.239 108.76 112.652C108.22 113.873 106.96 114.196 106.96 113.119C106.978 112.437 107.338 112.006 108.166 111.719C109.03 111.396 109.12 111.396 109.12 111.665Z" fill="white"/>
  <path d="M115.527 109.044C115.257 109.206 115.077 109.242 115.131 109.134C115.221 109.009 114.987 108.937 114.447 108.937C113.691 108.937 113.331 109.17 113.817 109.332C113.961 109.385 113.907 110.014 113.601 111.539C113.259 113.173 113.097 113.675 112.863 113.747C112.683 113.783 112.539 113.891 112.539 113.981C112.539 114.196 114.645 114.178 114.789 113.963C114.843 113.873 114.771 113.783 114.627 113.783C114.267 113.783 114.267 113.496 114.681 111.665C114.897 110.696 115.167 109.996 115.437 109.727C115.851 109.278 116.391 109.17 116.589 109.475C116.643 109.583 116.517 110.552 116.283 111.665C115.977 113.209 115.797 113.675 115.563 113.747C114.879 113.927 115.293 114.142 116.319 114.142C117.273 114.142 117.759 113.927 117.201 113.747C117.057 113.693 117.129 113.137 117.381 111.934C117.831 109.852 117.849 109.403 117.471 109.044C117.111 108.685 116.211 108.685 115.527 109.044Z" fill="white"/>
  <path d="M119.616 7.55841C119.238 7.8815 118.896 8.18664 118.842 8.24049C118.788 8.31229 118.356 8.63538 117.852 8.97641C117.366 9.2995 116.916 9.64054 116.862 9.69439C116.556 10.0354 113.676 11.3278 112.182 11.8124C109.338 12.6919 107.754 12.9612 104.946 13.0509L104.082 13.0868V21.6128V30.1388L118.176 30.1567C128.454 30.1567 132.126 30.2106 131.802 30.3542C129.138 31.5029 125.7 33.3517 125.052 33.962C124.926 34.0876 124.638 34.303 124.404 34.4466C123.828 34.8236 121.542 37.1211 121.542 37.3185C121.542 37.4083 121.344 37.5339 121.092 37.6057C120.714 37.6955 120.444 37.5339 119.364 36.5287C118.68 35.8646 117.762 35.0928 117.348 34.7877C116.646 34.2671 114.234 33.0286 113.748 32.9389C113.622 32.903 113.316 32.7953 113.046 32.6876C111.426 32.0234 107.952 31.9696 105.396 32.5619L104.082 32.8671V40.1186C104.082 44.1034 104.118 47.3702 104.154 47.3702C104.19 47.3702 104.604 47.1907 105.09 46.9753C105.576 46.7779 105.99 46.5984 106.008 46.6163C106.044 46.6343 106.386 46.5266 106.782 46.383C107.268 46.2035 108.078 46.1496 109.176 46.1855C110.562 46.2214 111.192 46.3471 112.992 46.9753C115.386 47.783 117.816 49.0215 119.526 50.278C120.894 51.3011 121.218 51.2832 122.604 50.0805C124.152 48.7702 125.124 48.1061 126.492 47.4779C130.02 45.8265 133.044 45.0727 136.5 44.965L137.472 44.947L137.526 36.098L137.562 27.2669L123.486 27.2489C112.938 27.2489 109.5 27.1951 109.842 27.0335C115.17 24.6642 117.564 23.1026 120.066 20.3922C120.498 19.9255 120.912 19.5486 120.984 19.5486C121.056 19.5486 121.596 20.0332 122.19 20.6076C123.864 22.2769 126.42 23.8744 128.49 24.5744C130.128 25.1129 130.452 25.1668 132.522 25.1668C134.52 25.1668 137.004 24.8257 137.58 24.4667C137.796 24.3411 137.796 10.5739 137.58 10.5739C137.472 10.5739 137.346 10.6457 137.292 10.7534C137.094 11.0585 134.25 11.8483 133.242 11.8663C131.91 11.8842 130.92 11.7227 129.192 11.1662C127.266 10.556 122.82 8.38408 122.442 7.89945C122.388 7.82765 122.118 7.59431 121.83 7.37892C121.092 6.82249 120.426 6.87634 119.616 7.55841Z" fill="white"/>
</svg>
