<svg xmlns="http://www.w3.org/2000/svg" width="240" height="144" viewBox="0 0 240 144" fill="none">
  <path d="M195.085 19.1232C195.157 19.2045 195.292 19.2959 195.374 19.3264C195.457 19.3671 195.374 19.3772 195.178 19.3467C194.972 19.3163 194.693 19.3671 194.486 19.4585C194.3 19.55 194.104 19.5906 194.042 19.5601C193.99 19.5195 193.918 19.5398 193.877 19.6008C193.846 19.6516 193.691 19.682 193.536 19.6617C193.381 19.6414 193.308 19.6414 193.37 19.6719C193.432 19.6922 193.484 19.8548 193.484 20.0174V20.3323L193.339 20.0682C193.267 19.9259 193.184 19.804 193.164 19.804C193.112 19.804 193.339 20.4441 193.412 20.5152C193.443 20.5457 193.474 21.135 193.474 21.8361C193.494 23.6955 193.918 25.3619 194.817 27.1705C195.953 29.4668 197.678 30.8995 199.816 31.3262C200.24 31.4075 200.591 31.4685 200.601 31.4583C200.653 31.4075 200.085 29.0909 199.795 28.1459C199.568 27.4143 199.403 27.0587 199.248 26.9571C198.917 26.7437 197.203 26.3373 196.263 26.256C195.653 26.2052 195.488 26.1544 195.571 26.0731C195.788 25.8598 197.203 25.9614 198.205 26.2459C198.711 26.3983 199.145 26.4897 199.176 26.4694C199.207 26.4389 198.969 25.8902 198.649 25.2603C198.101 24.1832 198.039 24.102 197.575 23.8784C197.213 23.7057 196.831 23.6346 196.128 23.5939C195.209 23.533 194.972 23.4517 195.333 23.3196C195.581 23.2281 196.831 23.2485 197.213 23.3501C197.389 23.4009 197.544 23.4212 197.544 23.4009C197.544 23.1367 195.178 20.6168 194.93 20.6168C194.848 20.6168 194.848 20.5864 194.93 20.5051C195.219 20.2206 196.862 21.704 197.771 23.0757C197.946 23.3399 198.132 23.533 198.174 23.5025C198.215 23.4822 198.422 23.1875 198.628 22.8522C198.835 22.5169 199.041 22.2425 199.093 22.2425C199.331 22.2425 199.289 22.5067 198.969 22.9843C198.308 23.9699 198.298 23.7971 199.021 25.2806L199.682 26.6116L200.116 25.9309C200.529 25.3009 201.107 24.7014 201.211 24.803C201.242 24.8234 201.056 25.1383 200.808 25.5041C200.57 25.8598 200.24 26.3678 200.095 26.6218C199.816 27.079 199.816 27.0994 199.971 27.5363C200.178 28.1154 200.622 29.8224 200.787 30.6759L200.911 31.3364L201.149 30.7267C202.037 28.4304 202.254 25.8496 201.686 24.2442C201.273 23.0656 200.26 21.7548 199.114 20.8912C198.442 20.3831 197.182 19.6414 197.296 19.8141C197.337 19.8853 197.234 19.8345 197.058 19.7125C196.893 19.5906 196.645 19.4788 196.5 19.4687C196.366 19.4585 196.149 19.3874 196.025 19.3163C195.901 19.2451 195.757 19.2045 195.715 19.2045C195.674 19.2147 195.498 19.174 195.343 19.113C194.972 18.9606 194.92 18.9606 195.085 19.1232ZM195.87 19.4484C195.839 19.4788 195.633 19.5296 195.416 19.55C195.023 19.6008 195.023 19.6008 195.354 19.5093C195.54 19.4585 195.726 19.3975 195.757 19.3569C195.798 19.3264 195.85 19.3163 195.87 19.3467C195.901 19.3772 195.901 19.4179 195.87 19.4484ZM194.91 19.4992C194.879 19.55 194.796 19.6008 194.744 19.6008C194.682 19.6008 194.672 19.55 194.703 19.4992C194.734 19.4382 194.817 19.3975 194.868 19.3975C194.93 19.3975 194.941 19.4382 194.91 19.4992ZM193.928 19.9157C193.928 19.9665 193.887 19.9869 193.825 19.9564C193.773 19.9259 193.722 19.9462 193.722 20.0174C193.722 20.0885 193.691 20.119 193.66 20.0783C193.577 20.0072 193.701 19.804 193.835 19.804C193.887 19.804 193.928 19.8548 193.928 19.9157Z" fill="white"/>
  <path d="M193.392 19.4687C193.454 19.489 193.578 19.489 193.65 19.4687C193.712 19.4382 193.66 19.4179 193.516 19.4179C193.371 19.4179 193.32 19.4382 193.392 19.4687Z" fill="white"/>
  <path d="M182.651 31.3567C182.166 31.5193 181.98 31.7835 182.341 31.8038C182.486 31.8038 182.486 31.8241 182.362 31.8749C182.279 31.9156 182.073 32.0375 181.918 32.1391C181.67 32.3017 181.608 32.3118 181.515 32.1899C181.432 32.0781 181.422 32.0781 181.463 32.2204C181.494 32.3118 181.474 32.4033 181.412 32.4236C181.339 32.4541 181.329 32.515 181.381 32.6166C181.525 32.8402 181.525 32.9824 181.37 32.9824C181.298 32.9824 181.267 32.9316 181.298 32.8808C181.339 32.8097 181.288 32.7995 181.164 32.8402C180.988 32.9011 180.988 32.9011 181.143 32.7792C181.298 32.6573 181.277 32.637 180.988 32.5049C180.647 32.3525 180.627 32.3525 180.585 32.4744C180.565 32.5252 180.647 32.5557 180.761 32.5557C180.895 32.5557 180.967 32.6268 180.967 32.7589C180.967 32.8707 181.071 33.0739 181.195 33.206C181.308 33.3279 181.556 33.714 181.742 34.0391C182.486 35.4108 184.046 37.0162 185.512 37.9002C187.176 38.9163 189.035 39.2109 190.553 38.7131L191.245 38.4794L190.739 37.9104C190.46 37.5852 189.841 36.9553 189.365 36.4879L188.498 35.6547L187.713 35.7969C187.269 35.8782 186.576 36.0916 186.163 36.2542C185.316 36.6098 185.172 36.6403 185.368 36.4066C185.585 36.1424 186.277 35.8477 187.227 35.614L188.136 35.3804L187.651 35.0247C186.576 34.2322 186.37 34.1306 185.822 34.1306C185.44 34.1306 185.13 34.222 184.614 34.4862C184.232 34.6793 183.891 34.791 183.86 34.7402C183.736 34.5472 184.986 33.8359 185.502 33.8156C185.822 33.8054 184.531 33.2466 183.663 33.0231C183.261 32.9113 182.816 32.7792 182.672 32.7284C182.455 32.6471 182.445 32.6166 182.589 32.5557C182.951 32.4134 184.696 32.9215 185.657 33.4397C185.843 33.5514 186.008 33.6226 186.029 33.6022C186.039 33.5819 186.091 33.2771 186.143 32.9113C186.267 32.0172 186.452 32.1188 186.421 33.0637L186.391 33.8258L186.835 34.0899C187.072 34.2424 187.537 34.5675 187.857 34.8114L188.446 35.2483L188.508 34.6691C188.591 33.8969 188.746 33.3177 188.88 33.3177C188.942 33.3177 188.963 33.399 188.932 33.5006C188.89 33.6022 188.859 34.1103 188.849 34.6183L188.828 35.5531L189.81 36.5488C190.357 37.0874 190.925 37.697 191.091 37.89L191.38 38.2457L191.297 37.636C191.256 37.3007 191.111 36.6403 190.977 36.1627C190.006 32.7995 187.837 31.1738 184.335 31.1941C183.529 31.1941 182.971 31.2449 182.651 31.3567ZM183.054 31.4482C183.023 31.4786 182.93 31.4888 182.858 31.4583C182.775 31.4278 182.806 31.3974 182.92 31.3974C183.033 31.3872 183.095 31.4177 183.054 31.4482ZM182.538 31.6514C182.507 31.6819 182.414 31.692 182.341 31.6615C182.259 31.6311 182.29 31.6006 182.403 31.6006C182.517 31.5904 182.579 31.6209 182.538 31.6514Z" fill="white"/>
  <path d="M180.813 31.9968C180.72 32.0578 180.71 32.0984 180.782 32.0984C180.844 32.0984 180.937 32.0476 180.968 31.9968C181.05 31.8749 181.009 31.8749 180.813 31.9968Z" fill="white"/>
  <path d="M180.966 32.3017C180.997 32.3525 181.08 32.4033 181.131 32.4033C181.193 32.4033 181.204 32.3525 181.173 32.3017C181.142 32.2407 181.059 32.2 181.007 32.2C180.945 32.2 180.935 32.2407 180.966 32.3017Z" fill="white"/>
  <path d="M200.459 32.8097C200.335 33.145 200.273 33.4193 200.314 33.4193C200.356 33.4193 200.325 33.46 200.252 33.5108C200.17 33.5616 200.097 33.714 200.097 33.8562C200.087 33.9985 200.046 34.0899 200.004 34.0595C199.953 34.0391 199.922 34.0696 199.922 34.1407C199.922 34.2119 199.808 34.5573 199.663 34.913C199.519 35.2686 199.426 35.614 199.467 35.675C199.509 35.736 199.498 35.7563 199.436 35.7258C199.271 35.6242 199.075 36.1424 199.199 36.3659C199.343 36.6403 199.323 36.7419 199.168 36.5285C199.054 36.3761 199.013 36.4066 198.816 36.8638C198.692 37.1483 198.641 37.4023 198.692 37.443C198.744 37.4734 198.785 37.5547 198.785 37.6157C198.785 37.697 198.754 37.6868 198.692 37.5954C198.62 37.4836 198.548 37.5547 198.372 37.89C198.238 38.1441 198.207 38.2863 198.29 38.2355C198.362 38.1949 198.341 38.2558 198.238 38.3676C198.052 38.581 198.052 38.581 198.238 38.6318C198.393 38.6724 198.393 38.6826 198.207 38.6927C197.928 38.7029 197.804 38.9772 197.98 39.2008C198.093 39.343 198.093 39.343 197.949 39.2313C197.804 39.1195 197.742 39.2008 197.432 39.8917C197.236 40.3286 197.102 40.7046 197.112 40.7249C197.133 40.7452 197.102 40.796 197.05 40.8265C196.916 40.9078 196.193 42.3607 196.286 42.3607C196.327 42.3607 196.306 42.4014 196.244 42.442C196.182 42.4827 196.048 42.6656 195.955 42.8383C195.779 43.1736 195.583 43.2854 195.583 43.0415C195.583 42.9805 195.48 42.8078 195.366 42.6656C195.253 42.5233 195.17 42.4827 195.191 42.564C195.232 42.7977 194.974 43.1736 194.819 43.1126C194.747 43.0822 194.592 43.1431 194.488 43.2447C194.354 43.3768 194.323 43.387 194.354 43.2752C194.385 43.1939 194.323 43.0314 194.209 42.9297C194.013 42.7469 194.003 42.7469 194.075 42.9196C194.106 43.0212 194.168 43.7223 194.209 44.4843L194.271 45.8764L193.414 47.3395C191.834 50.0626 189.127 54.2284 187.743 56.0574L187.103 56.9007L186.049 55.9964C184.768 54.9092 183.322 53.7611 182.743 53.3648C182.506 53.2124 182.082 52.9076 181.803 52.7043C181.514 52.5011 181.256 52.3487 181.204 52.3792C181.163 52.4097 181.122 52.3894 181.122 52.3386C181.122 52.2878 180.998 52.1658 180.853 52.0642C180.667 51.9525 180.605 51.9423 180.667 52.0236C180.708 52.1049 180.595 52.0134 180.409 51.8305C180.223 51.6578 180.016 51.5054 179.954 51.5054C179.882 51.4952 179.696 51.3936 179.531 51.2615C179.355 51.1193 179.159 51.0481 179.035 51.0786C178.932 51.099 178.849 51.0888 178.87 51.038C178.89 50.9872 178.88 50.9465 178.849 50.9465C178.818 50.9465 178.663 50.8653 178.508 50.7636C178.322 50.6417 178.24 50.6316 178.25 50.7128C178.291 50.8754 178.105 50.8551 177.506 50.6316C177.248 50.5401 176.814 50.469 176.525 50.469C176.236 50.4791 175.905 50.4182 175.781 50.3267C175.657 50.2556 175.44 50.1845 175.296 50.1845C175.151 50.1845 175.017 50.1438 174.975 50.093C174.944 50.0422 174.666 49.961 174.356 49.9305C174.035 49.8898 173.757 49.8187 173.726 49.7679C173.695 49.7171 173.519 49.6765 173.333 49.6765C172.982 49.6765 172.445 49.4732 172.445 49.3412C172.445 49.3005 172.29 49.27 172.114 49.27C171.928 49.27 171.546 49.1887 171.257 49.077C170.761 48.8941 169.48 48.7112 168.933 48.7417C168.757 48.7518 168.809 48.7112 169.088 48.6197L169.501 48.4877L168.881 48.5181C168.437 48.5486 168.323 48.5385 168.468 48.4673C168.602 48.4064 167.084 48.3657 164.181 48.3657H159.688L160.917 48.7722C165.906 50.4283 171.959 54.1065 176.659 58.3435C177.703 59.2783 180.047 61.6051 180.956 62.611L181.762 63.495L180.75 64.5822C173.653 72.1519 166.453 76.836 160.462 77.7708C159.646 77.8927 159.863 77.9029 163.664 77.913C165.906 77.9232 170.906 77.9537 174.769 77.9943L181.793 78.0553L182.588 76.6836C183.022 75.9317 183.931 74.4482 184.592 73.3915C185.254 72.3348 185.987 71.1663 186.225 70.7904C186.462 70.4144 186.679 70.0995 186.72 70.0995C186.896 70.0995 189.251 74.0418 190.573 76.5718L191.286 77.9232H197.06H202.835L201.957 76.267C199.674 71.9182 196.172 66.7668 192.908 62.9362C192.474 62.4281 192.061 61.9506 191.999 61.8591C191.885 61.727 191.999 61.4222 192.681 60.0302C194.509 56.2911 195.914 52.8263 197.164 48.9652C197.928 46.6079 198.61 44.21 198.538 44.0982C198.496 44.0474 198.517 43.9865 198.579 43.9661C198.63 43.956 198.692 43.7731 198.703 43.58C198.723 43.387 198.765 43.2041 198.796 43.1736C198.858 43.1228 199.292 41.3548 199.343 40.9179C199.364 40.7858 199.405 40.6131 199.436 40.5318C199.57 40.2168 199.911 38.3574 199.86 38.2761C199.829 38.2253 199.86 38.1237 199.922 38.0424C199.994 37.9612 200.015 37.7783 199.984 37.636C199.942 37.4734 199.963 37.382 200.035 37.382C200.108 37.382 200.128 37.2804 200.108 37.128C200.077 36.9857 200.087 36.8435 200.128 36.8232C200.201 36.7825 200.242 36.5183 200.397 35.2991C200.418 35.1263 200.5 34.5167 200.583 33.9274C200.717 32.9824 200.769 32.2 200.686 32.2C200.676 32.2 200.572 32.4744 200.459 32.8097ZM199.715 35.8579C199.715 35.9087 199.663 35.9595 199.601 35.9595C199.55 35.9595 199.529 35.9087 199.56 35.8579C199.591 35.7969 199.643 35.7563 199.674 35.7563C199.694 35.7563 199.715 35.7969 199.715 35.8579ZM197.68 39.973C197.649 40.0644 197.598 40.1152 197.577 40.0848C197.546 40.0543 197.556 39.9933 197.598 39.9323C197.69 39.7698 197.752 39.8003 197.68 39.973ZM197.019 41.68C197.019 41.7714 196.998 41.7613 196.957 41.6698C196.936 41.6089 196.854 41.5784 196.802 41.6089C196.73 41.6495 196.719 41.6292 196.761 41.5581C196.854 41.426 197.029 41.5072 197.019 41.68ZM195.294 43.0923C195.222 43.1634 195.17 43.1736 195.17 43.1126C195.17 42.9704 195.294 42.8485 195.366 42.9196C195.387 42.9501 195.356 43.0314 195.294 43.0923ZM194.623 43.6004C194.592 43.6715 194.571 43.6207 194.571 43.4784C194.571 43.3362 194.592 43.2854 194.623 43.3463C194.643 43.4175 194.643 43.5394 194.623 43.6004ZM178.777 51.1599C178.766 51.2107 178.704 51.2615 178.632 51.292C178.56 51.3123 178.539 51.2818 178.581 51.2107C178.684 51.0583 178.508 51.0685 178.343 51.2209C178.229 51.3326 178.219 51.3123 178.312 51.1396C178.374 51.0177 178.395 50.8856 178.353 50.8348C178.312 50.7941 178.395 50.8246 178.539 50.9161C178.684 50.9973 178.787 51.1091 178.777 51.1599ZM179.293 51.4038C179.262 51.5257 179.231 51.5968 179.221 51.5867C179.211 51.5663 179.138 51.4749 179.066 51.3733C178.942 51.2209 178.942 51.2006 179.107 51.2615C179.252 51.3225 179.273 51.3022 179.211 51.2006C179.159 51.1193 179.169 51.0888 179.242 51.1294C179.293 51.1701 179.324 51.292 179.293 51.4038ZM179.934 51.7391C180.13 51.922 180.13 51.922 179.81 51.7391C179.624 51.6375 179.469 51.4952 179.469 51.4139C179.469 51.2818 179.49 51.2818 179.603 51.4139C179.665 51.4952 179.82 51.6375 179.934 51.7391Z" fill="white"/>
  <path d="M70.7985 40.6334C68.4434 41.304 66.4084 41.873 66.2845 41.9035L66.0469 41.9543V55.1937C66.0469 62.8854 66.0985 68.8395 66.1502 69.4289C66.4187 72.1621 67.648 74.6921 69.373 76.0841C70.2407 76.775 71.4493 77.3644 72.7095 77.6895C73.6599 77.9334 73.9078 77.9537 75.8084 77.9537C78.6594 77.9638 80.9526 77.5879 81.8926 76.9579L82.2129 76.7446L82.2438 73.4627C82.2645 70.3535 82.2542 70.1807 82.0889 70.2519C80.7357 70.8209 79.7337 71.0038 78.6285 70.9022C77.4199 70.7802 76.5109 70.1299 75.9944 69.0224C75.4779 67.9149 75.4366 67.4272 75.4159 61.7474L75.3953 56.4638L73.7322 55.7424L72.0691 55.0108L77.1616 54.9803L82.2645 54.96V51.7086V48.4572H78.8557H75.4469V43.9356C75.4469 39.6986 75.4366 39.4141 75.2713 39.4243C75.168 39.4243 73.1537 39.973 70.7985 40.6334Z" fill="white"/>
  <path d="M146.721 40.5826C144.479 41.2227 142.465 41.7917 142.248 41.8527L141.855 41.9645L141.886 56.1082L141.917 70.2519L142.207 71.2679C143.25 74.9156 145.44 77.0595 148.849 77.7708C151.132 78.2483 155.615 77.9029 157.319 77.1205L157.98 76.8157V73.5135V70.2112L157.546 70.3941C156.255 70.9326 154.644 71.0851 153.642 70.7599C152.97 70.5364 152.175 69.8454 151.834 69.185C151.245 68.0368 151.235 67.9556 151.173 61.9709L151.111 56.4435L149.458 55.7221L147.805 55.0108L152.898 54.9803L157.98 54.96V51.7086V48.4572H154.571H151.163V43.9357C151.163 39.6885 151.152 39.4141 150.987 39.4243C150.884 39.4345 148.962 39.9527 146.721 40.5826Z" fill="white"/>
  <path d="M48.6934 39.7291C43.8798 40.2778 40.5433 42.4319 39.2417 45.856C38.6633 47.3801 38.5703 47.9999 38.5703 50.6011C38.5703 53.1819 38.6736 54.1268 39.1384 55.6205C39.8822 58.0184 41.2147 59.7254 43.2393 60.8837C44.3446 61.5035 45.2743 61.8591 47.6398 62.5297C50.0983 63.2207 50.6251 63.4137 51.4101 63.9319C52.5877 64.7244 53.0732 65.6694 53.0526 67.2037C53.0422 68.6871 52.4948 69.6422 51.3275 70.2112C50.7594 70.4856 50.5321 70.5364 49.5921 70.577C47.898 70.6685 46.111 70.3433 43.5802 69.4898C42.2993 69.0529 39.5206 67.9149 39.345 67.7523C38.9938 67.417 38.9835 67.5796 38.9835 71.9792C38.9835 74.3568 39.0042 76.2975 39.0248 76.2975C39.0455 76.2975 39.6549 76.4601 40.3677 76.6531C45.6152 78.0655 50.7594 78.3398 54.5297 77.405C60.4796 75.9215 63.5785 71.5931 63.3306 65.1207C63.2376 62.7533 62.6798 61.0666 61.5023 59.6136C60.0354 57.8253 58.486 56.9515 53.9203 55.3461C51.3895 54.4621 50.5424 54.0354 49.7264 53.2327C48.962 52.491 48.6934 51.8915 48.6934 50.9465C48.6934 49.0262 50.0569 47.9186 52.66 47.7053C54.4057 47.5732 57.5873 48.0202 60.3453 48.8026C61.0477 49.0058 61.6469 49.1684 61.6675 49.1684C61.6882 49.1684 61.6985 47.3293 61.6882 45.0838L61.6572 40.9992L60.5209 40.7249C58.8372 40.3286 56.5853 39.9425 54.9429 39.7698C53.3831 39.6072 49.9743 39.5869 48.6934 39.7291Z" fill="white"/>
  <path d="M194.932 42.0153C194.901 42.0661 194.942 42.1677 195.025 42.2388C195.19 42.3811 195.211 42.2896 195.077 42.0661C195.025 41.995 194.963 41.9746 194.932 42.0153Z" fill="white"/>
  <path d="M194.962 42.5538C194.962 42.6249 194.931 42.6554 194.879 42.6249C194.838 42.6046 194.714 42.6453 194.6 42.7265C194.446 42.8383 194.435 42.8993 194.528 42.9907C194.621 43.0822 194.652 43.072 194.652 42.9399C194.652 42.8485 194.714 42.7672 194.797 42.7672C194.972 42.7672 195.117 42.5843 195.024 42.4928C194.993 42.4522 194.962 42.4827 194.962 42.5538Z" fill="white"/>
  <path d="M133.212 48.3657C130.97 48.5283 128.243 49.0973 126.611 49.7577L126.064 49.9813V49.1684V48.3556H121.725H117.387V63.1394V77.9232H121.777H126.167V70.577C126.167 63.0378 126.198 62.4891 126.601 61.2597C127.944 57.1344 131.683 54.9295 137.354 54.9295L138.976 54.9194V51.7492V48.5791L138.697 48.5181C138.242 48.4267 135.681 48.254 134.999 48.2641C134.658 48.2743 133.852 48.3251 133.212 48.3657Z" fill="white"/>
  <path d="M96.4663 48.4673C94.7619 48.6096 92.4584 48.9652 90.8056 49.331C89.9586 49.5139 89.2459 49.6866 89.2149 49.7069C89.1219 49.8085 89.1735 55.8237 89.2665 55.8542C89.3182 55.8643 89.8243 55.7729 90.3821 55.6306C94.7413 54.5536 98.6769 54.3097 100.908 54.9702C102.416 55.4172 103.418 56.159 103.924 57.1852C104.152 57.6628 104.203 57.8965 104.203 58.6179L104.214 59.4815L100.701 59.8575C98.7698 60.0607 96.6316 60.3554 95.9498 60.4976C90.7437 61.6153 87.3865 63.9827 86.5498 67.1427C86.3535 67.8946 86.3225 70.1503 86.4982 71.1257C87.1489 74.7937 88.9566 76.8868 92.1175 77.6184C93.7703 78.0045 96.4043 77.9639 98.3567 77.5168C100.691 76.9783 102.685 75.6675 103.687 74.0215L104.059 73.4119V75.6066C104.059 77.7708 104.059 77.8013 104.286 77.8521C104.596 77.9334 111.889 77.9435 112.291 77.8622L112.632 77.8013V68.4128C112.632 62.5399 112.591 58.6585 112.529 58.0387C112.24 55.4376 111.403 53.4867 109.916 51.9423C108.211 50.1845 105.794 49.077 102.561 48.5994C101.249 48.4064 98.0054 48.3352 96.4663 48.4673ZM104.823 64.125C104.906 64.8667 104.751 66.4924 104.513 67.3967C104.09 69.0326 103.046 70.384 101.693 71.0444C101.001 71.3899 100.505 71.5016 98.8421 71.715C96.8382 71.9589 95.5263 71.3594 94.9685 69.9369C94.6896 69.2358 94.6276 67.5898 94.8446 66.8785C95.1648 65.8218 96.363 64.7549 97.4683 64.5111C97.9331 64.4095 104.11 63.5357 104.585 63.5052C104.72 63.495 104.771 63.6271 104.823 64.125Z" fill="white"/>
  <path d="M170.149 48.6299C170.273 48.6502 170.479 48.6502 170.614 48.6299C170.738 48.6096 170.634 48.5893 170.376 48.5893C170.118 48.5893 170.015 48.6096 170.149 48.6299Z" fill="white"/>
</svg>
