<svg xmlns="http://www.w3.org/2000/svg" width="240" height="144" viewBox="0 0 240 144" fill="none">
  <path fill-rule="evenodd" clip-rule="evenodd" d="M13 75H48.0079V71.5263H13V75Z" fill="white"/>
  <path fill-rule="evenodd" clip-rule="evenodd" d="M214.644 53.7645C214.99 53.1486 215.468 52.6558 216.079 52.2878C216.692 51.919 217.395 51.7361 218.191 51.7361C218.955 51.7361 219.627 51.9037 220.205 52.238C220.785 52.5732 221.238 53.0353 221.566 53.6214C221.894 54.2106 222.06 54.8839 222.06 55.6453H214.12C214.152 54.9604 214.327 54.3346 214.644 53.7645ZM226.998 58.9216V57.4701C226.998 55.848 226.771 54.4317 226.32 53.2205C225.869 52.0062 225.238 50.9993 224.43 50.1966C223.621 49.394 222.677 48.7918 221.597 48.3901C220.517 47.9892 219.354 47.7895 218.105 47.7895C216.25 47.7895 214.634 48.2027 213.259 49.0298C211.884 49.8569 210.818 51.0115 210.063 52.4928C209.307 53.9749 208.93 55.695 208.93 57.6561C208.93 59.6661 209.307 61.4068 210.063 62.8751C210.818 64.3435 211.896 65.4774 213.296 66.2755C214.696 67.075 216.369 67.4737 218.315 67.4737C219.875 67.4737 221.252 67.2311 222.448 66.7476C223.641 66.2632 224.619 65.5845 225.378 64.7115C226.138 63.8392 226.641 62.8147 226.886 61.641L222.034 61.3181C221.854 61.7978 221.591 62.2026 221.247 62.5331C220.901 62.8652 220.487 63.1123 220.002 63.2791C219.518 63.4429 218.984 63.527 218.401 63.527C217.523 63.527 216.763 63.3404 216.123 62.9677C215.482 62.5959 214.987 62.0656 214.638 61.38C214.289 60.6929 214.115 59.8788 214.115 58.9346V58.9216H226.998Z" fill="white"/>
  <path fill-rule="evenodd" clip-rule="evenodd" d="M201.027 67.4737H206.109V42H201.027V67.4737Z" fill="white"/>
  <path fill-rule="evenodd" clip-rule="evenodd" d="M190.17 63.301C187.585 63.301 186.174 60.8049 186.174 57.7264C186.174 54.6501 187.563 52.1539 190.17 52.1539C192.868 52.1539 194.165 54.6501 194.165 57.7264C194.165 60.8049 192.901 63.301 190.17 63.301ZM191.28 47.8194C188.487 47.8194 186.445 49.5976 185.288 52.1364V42H180.133V67.4718H185.288V63.4428C186.412 65.9298 188.404 67.5487 191.281 67.471C196.151 67.3391 198.766 63.0983 198.766 57.7027C198.766 51.6181 195.414 47.8194 191.28 47.8194Z" fill="white"/>
  <path fill-rule="evenodd" clip-rule="evenodd" d="M171.537 60.2812C171.537 60.9507 171.368 61.5515 171.031 62.0805C170.694 62.6095 170.23 63.0294 169.639 63.34C169.048 63.65 168.366 63.8034 167.594 63.8034C166.789 63.8034 166.126 63.6164 165.604 63.24C165.083 62.8645 164.822 62.3156 164.822 61.5973C164.822 61.1003 164.95 60.6851 165.205 60.3507C165.458 60.0156 165.816 59.7484 166.276 59.5499C166.735 59.3514 167.274 59.2072 167.889 59.1163C168.177 59.0743 168.497 59.0278 168.851 58.9728C169.203 58.9194 169.556 58.8568 169.91 58.7866C170.264 58.7163 170.581 58.6392 170.865 58.5522C171.148 58.4644 171.371 58.3675 171.537 58.2606V60.2812ZM174.314 49.3154C173.563 48.7956 172.704 48.4101 171.739 48.1628C170.775 47.9147 169.766 47.7895 168.715 47.7895C167.204 47.7895 165.875 48.0208 164.73 48.4788C163.584 48.9383 162.65 49.5903 161.928 50.4391C161.205 51.2872 160.72 52.2903 160.473 53.4468L165.327 53.8453C165.508 53.2163 165.877 52.6934 166.436 52.275C166.994 51.8575 167.746 51.6498 168.69 51.6498C169.586 51.6498 170.277 51.8636 170.766 52.2926C171.255 52.7231 171.499 53.3315 171.499 54.1163V54.1911C171.499 54.5964 171.347 54.9025 171.044 55.1094C170.739 55.3155 170.251 55.4705 169.577 55.5743C168.904 55.6774 168.017 55.7873 166.916 55.9033C165.98 55.9942 165.087 56.1506 164.238 56.3743C163.387 56.598 162.63 56.9293 161.964 57.3667C161.299 57.8056 160.774 58.3835 160.386 59.1034C160.001 59.8232 159.809 60.7118 159.809 61.7706C159.809 63.0271 160.081 64.0752 160.627 64.9156C161.173 65.7538 161.918 66.3866 162.863 66.8134C163.808 67.2386 164.884 67.4515 166.091 67.4515C167.027 67.4515 167.853 67.3248 168.567 67.0729C169.281 66.8218 169.873 66.4454 170.402 66.0195C170.991 65.5462 171.149 65.4836 171.623 65.0973L171.622 67.4737H176.748V54.2415C176.748 53.1079 176.53 52.1346 176.094 51.3193C175.659 50.5048 175.065 49.8376 174.314 49.3154Z" fill="white"/>
  <path fill-rule="evenodd" clip-rule="evenodd" d="M150.78 47.7895H149.075C145.336 47.7895 142.305 50.8864 142.305 54.708V67.4737L146.975 67.4706L146.884 55.1523C146.872 53.5764 148.12 52.2906 149.664 52.2906H150.069C151.611 52.2906 152.857 53.571 152.848 55.1478L152.782 67.4706H157.55V54.708C157.55 50.8864 154.518 47.7895 150.78 47.7895Z" fill="white"/>
  <path fill-rule="evenodd" clip-rule="evenodd" d="M134.824 60.5725C134.523 61.4429 134.082 62.1268 133.498 62.6266C132.915 63.1271 132.188 63.3785 131.317 63.3785C130.438 63.3785 129.701 63.1271 129.105 62.6266C128.509 62.1268 128.062 61.4429 127.762 60.5725C127.462 59.7036 127.313 58.7148 127.313 57.6067C127.313 56.4987 127.462 55.5091 127.762 54.6402C128.062 53.7714 128.509 53.0844 129.105 52.5793C129.701 52.0749 130.438 51.822 131.317 51.822C132.188 51.822 132.915 52.0749 133.498 52.5793C134.082 53.0844 134.523 53.7714 134.824 54.6402C135.123 55.5091 135.274 56.4987 135.274 57.6067C135.274 58.7148 135.123 59.7036 134.824 60.5725ZM136.253 49.0244C134.861 48.2006 133.207 47.7895 131.293 47.7895C129.378 47.7895 127.726 48.2006 126.332 49.0244C124.94 49.8474 123.865 50.9975 123.11 52.4738C122.354 53.9517 121.977 55.6749 121.977 57.6434C121.977 59.5974 122.354 61.3122 123.11 62.7878C123.865 64.2657 124.94 65.415 126.332 66.238C127.726 67.0618 129.378 67.4737 131.293 67.4737C133.207 67.4737 134.861 67.0618 136.253 66.238C137.645 65.415 138.72 64.2657 139.476 62.7878C140.231 61.3122 140.61 59.5974 140.61 57.6434C140.61 55.6749 140.231 53.9517 139.476 52.4738C138.72 50.9975 137.645 49.8474 136.253 49.0244Z" fill="white"/>
  <path fill-rule="evenodd" clip-rule="evenodd" d="M114.837 56.0299L111.426 55.3362C110.552 55.1456 109.935 54.8929 109.574 54.579C109.215 54.2644 109.036 53.88 109.036 53.4252C109.036 52.8541 109.314 52.3962 109.869 52.0532C110.425 51.7102 111.108 51.538 111.917 51.538C112.522 51.538 113.045 51.6398 113.482 51.8412C113.919 52.0448 114.272 52.3136 114.543 52.6481C114.813 52.9842 114.988 53.3579 115.071 53.7721L119.855 53.4735C119.625 51.7202 118.826 50.3352 117.457 49.3161C116.086 48.2986 114.211 47.7895 111.831 47.7895C110.221 47.7895 108.816 48.0291 107.618 48.5092C106.42 48.99 105.491 49.6729 104.834 50.5572C104.175 51.443 103.846 52.4981 103.846 53.7223C103.846 55.1456 104.294 56.3162 105.19 57.2342C106.085 58.1537 107.452 58.7984 109.292 59.1705L112.555 59.8282C113.373 59.9935 113.978 60.2316 114.371 60.5425C114.764 60.8518 114.963 61.2484 114.972 61.7277C114.963 62.2988 114.68 62.7628 114.12 63.1242C113.56 63.484 112.821 63.6639 111.905 63.6639C110.974 63.6639 110.209 63.4626 109.612 63.0614C109.015 62.6602 108.639 62.0753 108.483 61.305L103.344 61.5791C103.597 63.399 104.461 64.8361 105.937 65.8911C107.414 66.9454 109.398 67.4737 111.893 67.4737C113.529 67.4737 114.974 67.2118 116.229 66.6851C117.485 66.1606 118.474 65.4256 119.198 64.4832C119.921 63.5399 120.283 62.4435 120.283 61.1948C120.283 59.8205 119.834 58.7111 118.935 57.8682C118.035 57.0229 116.67 56.4112 114.837 56.0299Z" fill="white"/>
  <path fill-rule="evenodd" clip-rule="evenodd" d="M96.4665 60.2875C96.4665 60.9586 96.2987 61.5587 95.96 62.0877C95.6235 62.6175 95.1579 63.0374 94.5663 63.3466C93.9723 63.6588 93.2888 63.8131 92.5148 63.8131C91.7083 63.8131 91.0444 63.6252 90.5211 63.2474C89.9978 62.871 89.7373 62.3244 89.7373 61.6045C89.7373 61.1067 89.8642 60.6906 90.1201 60.3563C90.3746 60.0203 90.7338 59.7547 91.1941 59.5562C91.6551 59.3562 92.1943 59.2119 92.8126 59.1203C93.0997 59.0806 93.4209 59.0332 93.7749 58.9775C94.1288 58.9248 94.4827 58.863 94.8366 58.792C95.1906 58.7218 95.5103 58.6424 95.7936 58.5561C96.0784 58.4698 96.3017 58.3729 96.4665 58.2652V60.2875ZM101.443 54.2435C101.443 54.2435 101.422 52.1349 100.987 51.3196C100.55 50.5057 100.005 49.837 99.2509 49.3156C98.4975 48.7941 97.6377 48.4094 96.6708 48.1613C95.7032 47.9131 94.6931 47.7895 93.6397 47.7895C92.1252 47.7895 90.7923 48.0193 89.6447 48.4773C88.4955 48.9369 87.5598 49.5904 86.8353 50.4393C86.1115 51.2883 85.6261 52.2906 85.3778 53.4495L90.2432 53.8465C90.4247 53.2174 90.7946 52.6945 91.3551 52.2754C91.9148 51.8585 92.669 51.6494 93.6154 51.6494C94.5116 51.6494 95.2058 51.8654 95.6949 52.2952C96.1848 52.7258 96.4308 53.3335 96.4308 54.1191V54.1939C96.4308 54.5992 96.2767 54.9054 95.9729 55.1123C95.6691 55.3184 95.1784 55.4741 94.5032 55.578C93.828 55.681 92.9394 55.7902 91.8366 55.907C90.8979 55.9978 90.0024 56.1551 89.1502 56.3788C88.2981 56.601 87.5393 56.9323 86.8732 57.372C86.2056 57.8102 85.6785 58.3889 85.2927 59.108C84.9046 59.8287 84.7109 60.7196 84.7109 61.777C84.7109 63.0359 84.9844 64.0841 85.5327 64.9231C86.0796 65.7644 86.8277 66.3965 87.774 66.8225C88.7204 67.2485 89.7981 67.4622 91.0095 67.4622C91.9475 67.4622 92.7754 67.3355 93.4908 67.0836C94.207 66.8324 94.7994 66.456 95.3303 66.0293C95.9205 65.5552 96.08 65.4918 96.5531 65.1063L97.0977 67.4737H102.78C102.597 67.2408 101.614 64.9674 101.453 63.5084L101.443 54.2435Z" fill="white"/>
  <path fill-rule="evenodd" clip-rule="evenodd" d="M70.1354 55.6456C70.1684 54.9601 70.3418 54.3341 70.6607 53.7653C71.006 53.1484 71.4832 52.6573 72.0956 52.2883C72.7065 51.9192 73.4104 51.7362 74.2081 51.7362C74.9713 51.7362 75.6422 51.904 76.2208 52.2387C76.8009 52.5735 77.2535 53.0355 77.5822 53.6227C77.9108 54.2091 78.0752 54.8846 78.0752 55.6456H70.1354ZM80.4459 50.1967C79.6369 49.3946 78.6921 48.7914 77.6129 48.3911C76.5338 47.99 75.3691 47.7895 74.1218 47.7895C72.266 47.7895 70.6502 48.2035 69.2739 49.0301C67.8998 49.8582 66.8342 51.0118 66.0792 52.4926C65.3228 53.9727 64.9453 55.6952 64.9453 57.6556C64.9453 59.6663 65.3228 61.4064 66.0792 62.875C66.8342 64.3436 67.9118 65.4774 69.3114 66.2765C70.7118 67.0741 72.3853 67.4737 74.3304 67.4737C75.8914 67.4737 77.2685 67.232 78.4632 66.747C79.6579 66.2636 80.6342 65.5842 81.3944 64.7119C82.1531 63.8388 82.6567 62.8147 82.9028 61.6405L78.0504 61.3172C77.8688 61.7968 77.6069 62.2032 77.2625 62.5334C76.9173 62.8651 76.5023 63.1136 76.0175 63.2776C75.5334 63.4438 74.9991 63.5277 74.4168 63.5277C73.5387 63.5277 72.7785 63.3401 72.1384 62.9688C71.4982 62.5959 71.0029 62.0667 70.6547 61.3789C70.305 60.6927 70.1309 59.8776 70.1309 58.9343V58.9221H83.0139V57.4703C83.0139 55.8477 82.788 54.4317 82.337 53.2185C81.8845 52.0069 81.2541 50.9996 80.4459 50.1967Z" fill="white"/>
  <path fill-rule="evenodd" clip-rule="evenodd" d="M61.63 47.7895C60.5888 47.7895 59.4515 47.9696 58.7218 48.4811C57.9028 49.056 57.5364 49.4942 56.9651 50.4073V47.7895H51.9609V67.4737H57.1228V56.3131C57.1228 55.5413 57.2947 54.8588 57.6378 54.2664C57.9809 53.677 58.4493 53.2136 59.0431 52.8815C59.6377 52.5479 60.314 52.3823 61.073 52.3823C61.4281 52.3823 61.82 52.4113 62.2486 52.4678C62.6758 52.5258 63.0113 52.5914 63.2538 52.6655V48.0078C63.0279 47.9498 62.7651 47.9025 62.4671 47.8597C62.1675 47.8147 61.8883 47.7895 61.63 47.7895Z" fill="white"/>
  <path fill-rule="evenodd" clip-rule="evenodd" d="M41.2361 47.7895H39.532C35.792 47.7895 32.7617 50.8871 32.7617 54.7096V67.4737H37.4326L37.3407 55.1541C37.328 53.577 38.5764 52.2901 40.1199 52.2901H40.5256C42.0669 52.2901 43.3138 53.5732 43.3048 55.148L43.2398 67.4737H48.0071V54.7096C48.0071 50.8871 44.9746 47.7895 41.2361 47.7895Z" fill="white"/>
  <path fill-rule="evenodd" clip-rule="evenodd" d="M19.7706 67.4737H21.4748C25.215 67.4737 28.2454 64.3763 28.2454 60.5526V47.7895H23.4779L23.5436 60.1143C23.5526 61.6905 22.3056 62.9719 20.7643 62.9719H20.3586C18.815 62.9719 17.5665 61.6859 17.5792 60.1097L17.6711 47.7895H13V60.5526C13 64.3763 16.0319 67.4737 19.7706 67.4737Z" fill="white"/>
</svg>
