<svg xmlns="http://www.w3.org/2000/svg" width="240" height="144" viewBox="0 0 240 144" fill="none">
  <path fill-rule="evenodd" clip-rule="evenodd" d="M179.319 116.341L178.738 115.756C167.687 124.917 153.729 129.79 139.19 129.79C122.712 129.79 107.203 123.553 95.5711 112.053C83.9395 100.749 77.5421 85.351 77.5421 69.1739C77.5421 56.6999 81.2254 44.6157 88.5922 34.4806C95.765 24.5404 105.652 16.9391 117.284 12.6512L116.896 11.4817C105.07 15.9646 94.9896 23.5659 87.8167 33.701C80.45 44.2259 76.3789 56.505 76.3789 69.1739C76.3789 85.546 82.9702 101.138 94.7957 112.833C95.9589 114.002 97.122 114.977 98.2852 115.951L96.7343 117.705C108.56 127.646 123.681 133.298 139.384 133.298C154.699 133.298 169.432 127.841 181.258 118.29L179.319 116.341Z" fill="white"/>
  <path fill-rule="evenodd" clip-rule="evenodd" d="M89.1751 31.9468C88.7874 30.9723 88.7874 29.9978 88.7874 29.0232C88.7874 24.5404 91.6953 20.4474 97.1234 20.4474C98.2866 20.4474 99.4497 20.6423 100.225 20.8372C101.194 20.0576 102.164 19.278 103.133 18.6932C101.388 17.7187 99.2559 17.134 96.9295 17.134C90.3383 17.134 84.9102 22.3964 84.9102 29.0232C84.9102 31.3621 85.6856 33.5061 86.6549 35.2602C87.0426 34.8704 87.2365 34.2857 87.6242 34.0908C88.0119 33.1163 88.5935 32.5316 89.1751 31.9468Z" fill="white"/>
  <path fill-rule="evenodd" clip-rule="evenodd" d="M105.263 20.2525C104.294 20.8372 103.324 21.4219 102.355 22.2015C104.294 23.7608 105.263 26.2946 105.263 29.0233C105.263 33.5061 101.967 37.4042 96.9269 37.4042C94.019 37.4042 91.8865 36.2348 90.3356 34.2857C89.9479 34.6755 89.754 35.0653 89.3663 35.4551C88.9786 36.0399 88.397 36.6246 88.2031 37.2093C90.5295 39.3533 93.4374 40.7176 96.9269 40.7176C103.712 40.7176 108.946 35.6501 108.946 29.0233C109.14 25.5149 107.589 22.2015 105.263 20.2525Z" fill="white"/>
  <path fill-rule="evenodd" clip-rule="evenodd" d="M83.9413 59.4286C83.9413 62.9369 81.8088 66.2503 78.707 67.4197V69.3688V70.928C83.7474 69.5637 87.6246 65.0808 87.6246 59.4286C87.6246 55.3356 85.2983 51.8272 82.1965 49.4884C81.8088 50.6578 81.4211 51.8272 81.0334 52.8018C82.7781 54.361 83.9413 56.8948 83.9413 59.4286Z" fill="white"/>
  <path fill-rule="evenodd" clip-rule="evenodd" d="M76.3808 67.8095H75.6053C70.5649 67.8095 67.0754 63.9114 67.0754 59.2337C67.0754 54.9457 69.9834 50.8527 75.6053 50.8527C76.7685 50.8527 77.9317 51.0476 78.901 51.4374C79.2887 50.4629 79.4825 49.2935 79.8703 48.3189C78.5132 47.9291 76.9624 47.5393 75.6053 47.5393C68.8202 47.5393 63.5859 52.8018 63.5859 59.2337C63.5859 66.0554 69.014 71.1229 75.6053 71.1229H76.3808C76.3808 70.5382 76.1869 69.7586 76.1869 69.1739C76.1869 68.784 76.3808 68.3942 76.3808 67.8095Z" fill="white"/>
  <path fill-rule="evenodd" clip-rule="evenodd" d="M84.1331 81.8427C89.5612 81.8427 92.4692 85.9358 92.4692 90.2237C92.4692 94.1218 90.1428 97.6301 86.2656 98.4097C86.8472 99.3843 87.4288 100.359 88.0104 101.333C92.663 99.7741 96.1525 95.4862 96.1525 90.0288C96.1525 83.5969 90.7244 78.3344 84.1331 78.3344C82.5822 78.3344 80.8375 78.7243 79.4805 79.309C79.6743 80.2835 79.8682 81.6478 80.0621 82.6224C81.4191 82.0376 82.7761 81.8427 84.1331 81.8427Z" fill="white"/>
  <path fill-rule="evenodd" clip-rule="evenodd" d="M75.7966 90.2237C75.7966 87.8848 76.5721 85.9358 78.123 84.1816C77.7352 83.0122 77.5414 81.8427 77.3475 80.6733C74.2458 82.8173 72.1133 86.3256 72.1133 90.2237C72.1133 97.0454 77.5414 102.113 84.1327 102.113C84.5204 102.113 85.102 102.113 85.6836 101.918C85.102 100.944 84.3265 99.7741 83.7449 98.7996C78.8984 98.4097 75.7966 94.9014 75.7966 90.2237Z" fill="white"/>
  <path fill-rule="evenodd" clip-rule="evenodd" d="M142.874 78.9191V92.5626C142.874 95.681 141.904 98.6046 137.833 98.6046C133.762 98.6046 132.793 95.681 132.793 92.5626V78.9191H129.109V93.3422C129.109 98.2148 132.211 102.113 137.833 102.113C143.455 102.113 146.557 98.4097 146.557 93.3422V78.9191H142.874Z" fill="white"/>
  <path fill-rule="evenodd" clip-rule="evenodd" d="M145.783 37.0144H155.864V40.1329H141.906V17.5238H145.59V37.0144H145.783Z" fill="white"/>
  <path fill-rule="evenodd" clip-rule="evenodd" d="M21.1289 48.124H34.3115V51.4374H25.0061V56.8948H34.3115V60.2082H25.0061V67.6146H34.3115V70.928H21.1289V48.124Z" fill="white"/>
  <path fill-rule="evenodd" clip-rule="evenodd" d="M95.1836 46.9546L110.692 62.9369V48.124H114.376V71.5127L98.867 55.7254V70.5382H95.1836V46.9546Z" fill="white"/>
  <path fill-rule="evenodd" clip-rule="evenodd" d="M187.656 48.124H191.34V70.7331H187.656V48.124Z" fill="white"/>
  <path fill-rule="evenodd" clip-rule="evenodd" d="M57.3826 82.2326V87.6899H65.5247V90.8084H57.3826V101.528H53.6992V78.9192H65.7186V82.2326H57.3826Z" fill="white"/>
  <path fill-rule="evenodd" clip-rule="evenodd" d="M72.3091 31.557L75.9925 17.5238H79.482L73.2784 41.1074L65.3301 24.1506L57.3818 41.1074L50.9844 17.5238H54.6677L58.1572 31.557L65.1362 17.134L72.3091 31.557Z" fill="white"/>
  <path fill-rule="evenodd" clip-rule="evenodd" d="M158.384 56.6999L154.7 70.7331H151.211L157.414 47.3444L165.363 64.3012L173.311 47.3444L179.709 70.7331H176.025L172.536 56.6999H172.342L165.557 71.3178L158.384 56.6999Z" fill="white"/>
  <path fill-rule="evenodd" clip-rule="evenodd" d="M160.321 87.495L156.832 101.528H153.148L159.352 77.9446L167.494 94.9014L175.442 77.9446L181.646 101.528H177.963L174.473 87.495L167.688 101.918L160.321 87.495Z" fill="white"/>
  <path fill-rule="evenodd" clip-rule="evenodd" d="M110.307 78.9192C112.439 78.9192 114.765 78.9192 116.51 79.8937C118.449 80.8682 119.612 83.2071 119.612 85.3511C119.612 88.6645 117.286 91.3931 114.184 91.588L121.357 101.528H117.092L110.5 91.9779H107.98V101.528H104.297V78.9192H110.307ZM107.98 89.0543H109.531C112.439 89.0543 116.122 89.2492 116.122 85.546C116.122 82.0376 112.439 82.0376 109.337 82.0376H107.786L107.98 89.0543Z" fill="white"/>
  <path fill-rule="evenodd" clip-rule="evenodd" d="M122.906 17.5238C125.038 17.5238 127.364 17.5238 129.109 18.4983C131.048 19.4729 132.017 21.8117 132.017 23.9557C132.017 27.2691 129.885 29.9978 126.589 30.1927L133.956 40.1329H129.885L123.1 30.5825H120.773V40.1329H117.09V17.5238H122.906ZM120.579 27.464H122.13C125.038 27.464 128.528 27.6589 128.528 23.9557C128.528 20.4474 124.844 20.4474 121.936 20.4474H120.385V27.464H120.579Z" fill="white"/>
  <path fill-rule="evenodd" clip-rule="evenodd" d="M166.136 37.0144H168.269C173.115 37.0144 177.768 35.2602 177.768 28.8283C177.768 22.2015 173.115 20.8372 168.269 20.8372H166.136V37.0144ZM162.453 17.5238H168.657C175.83 17.5238 181.645 21.0321 181.645 28.8283C181.645 36.6246 176.023 40.1329 168.657 40.1329H162.453V17.5238Z" fill="white"/>
  <path fill-rule="evenodd" clip-rule="evenodd" d="M215.96 66.835C214.797 67.6146 213.44 67.8095 211.695 67.8095C206.849 67.8095 203.359 64.1063 203.359 59.4286C203.359 54.9457 206.267 50.8527 211.695 50.8527C213.246 50.8527 214.603 51.2425 215.96 51.8272L217.705 49.0986C216.154 48.124 214.021 47.5393 211.695 47.5393C205.104 47.5393 199.676 52.8018 199.676 59.4286C199.676 66.0554 205.104 71.1229 211.695 71.1229C214.021 71.1229 215.96 70.7331 217.899 69.5637L215.96 66.835Z" fill="white"/>
  <path fill-rule="evenodd" clip-rule="evenodd" d="M57.5748 66.835C56.2178 67.6146 55.0547 67.8095 53.5038 67.8095C48.4634 67.8095 44.9739 64.1063 44.9739 59.4286C44.9739 54.9457 47.8818 50.8527 53.5038 50.8527C55.0547 50.8527 56.4117 51.2425 57.5748 51.8272L59.5135 49.0986C57.7687 48.124 55.6362 47.5393 53.5038 47.5393C46.7186 47.5393 41.4844 52.8018 41.4844 59.4286C41.4844 66.0554 46.9125 71.1229 53.5038 71.1229C55.6362 71.1229 57.7687 70.7331 59.5135 69.5637L57.5748 66.835Z" fill="white"/>
  <path fill-rule="evenodd" clip-rule="evenodd" d="M142.68 59.6235C142.68 55.1406 139.772 51.0476 134.344 51.0476C128.916 51.0476 125.814 55.1406 125.814 59.6235C125.814 64.3012 129.303 68.0044 134.344 68.0044C139.19 67.8095 142.68 64.1063 142.68 59.6235ZM146.363 59.6235C146.363 66.2503 140.935 71.3178 134.344 71.3178C127.558 71.3178 122.324 66.2503 122.324 59.6235C122.324 52.9967 127.752 47.7342 134.344 47.7342C140.935 47.7342 146.363 52.9967 146.363 59.6235Z" fill="white"/>
</svg>
