<svg xmlns="http://www.w3.org/2000/svg" width="50" height="50" viewBox="0 0 50 50" fill="none">
  <path d="M26.6786 6.00231C28.0468 5.99706 29.4151 6.01081 30.783 6.04356L31.1467 6.05668C31.5667 6.07168 31.9811 6.09043 32.4817 6.11293C34.4767 6.20668 35.838 6.52168 37.0323 6.98481C38.2698 7.46106 39.3123 8.10606 40.3548 9.14856C41.308 10.0853 42.0458 11.2185 42.5167 12.4692C42.9798 13.6636 43.2948 15.0267 43.3886 17.0217C43.4111 17.5204 43.4298 17.9367 43.4448 18.3567L43.4561 18.7204C43.4894 20.0877 43.5038 21.4553 43.4992 22.8229L43.5011 24.2217V26.6779C43.5057 28.0462 43.4913 29.4144 43.458 30.7823L43.4467 31.1461C43.4317 31.5661 43.413 31.9804 43.3905 32.4811C43.2967 34.4761 42.978 35.8373 42.5167 37.0317C42.0473 38.2837 41.3094 39.4178 40.3548 40.3542C39.4173 41.3073 38.2835 42.045 37.0323 42.5161C35.838 42.9792 34.4767 43.2942 32.4817 43.3879C31.9811 43.4104 31.5667 43.4292 31.1467 43.4442L30.783 43.4554C29.4151 43.4888 28.0468 43.5031 26.6786 43.4986L25.2798 43.5004H22.8255C21.4572 43.5051 20.0889 43.4907 18.7211 43.4573L18.3573 43.4461C17.9122 43.4299 17.4672 43.4112 17.0223 43.3898C15.0273 43.2961 13.6661 42.9773 12.4698 42.5161C11.2186 42.0461 10.0853 41.3082 9.14921 40.3542C8.19492 39.4172 7.4565 38.2834 6.98546 37.0317C6.52233 35.8373 6.20733 34.4761 6.11358 32.4811C6.0927 32.0361 6.07395 31.5911 6.05733 31.1461L6.04796 30.7823C6.01339 29.4145 5.99776 28.0462 6.00108 26.6779V22.8229C5.99585 21.4553 6.0096 20.0877 6.04233 18.7204L6.05546 18.3567C6.07046 17.9367 6.08921 17.5204 6.11171 17.0217C6.20546 15.0248 6.52046 13.6654 6.98358 12.4692C7.45491 11.2178 8.19476 10.085 9.15108 9.15043C10.0865 8.19559 11.2191 7.45651 12.4698 6.98481C13.6661 6.52168 15.0255 6.20668 17.0223 6.11293L18.3573 6.05668L18.7211 6.04731C20.0883 6.01276 21.4559 5.99713 22.8236 6.00043L26.6786 6.00231ZM24.7511 15.3773C23.5089 15.3597 22.2756 15.5892 21.1229 16.0524C19.9702 16.5156 18.921 17.2033 18.0364 18.0755C17.1518 18.9477 16.4493 19.9871 15.9699 21.1331C15.4904 22.2792 15.2435 23.5091 15.2435 24.7514C15.2435 25.9937 15.4904 27.2236 15.9699 28.3696C16.4493 29.5157 17.1518 30.555 18.0364 31.4272C18.921 32.2994 19.9702 32.9871 21.1229 33.4503C22.2756 33.9135 23.5089 34.143 24.7511 34.1254C27.2375 34.1254 29.6221 33.1377 31.3802 31.3796C33.1384 29.6214 34.1261 27.2368 34.1261 24.7504C34.1261 22.264 33.1384 19.8795 31.3802 18.1213C29.6221 16.3632 27.2375 15.3773 24.7511 15.3773ZM24.7511 19.1273C25.4983 19.1135 26.2407 19.2488 26.9351 19.5252C27.6294 19.8016 28.2617 20.2136 28.795 20.7371C29.3284 21.2606 29.752 21.8851 30.0413 22.5742C30.3305 23.2633 30.4796 24.0031 30.4797 24.7504C30.4798 25.4977 30.331 26.2376 30.042 26.9268C29.753 27.616 29.3295 28.2406 28.7964 28.7643C28.2632 29.288 27.6311 29.7002 26.9368 29.9768C26.2426 30.2534 25.5002 30.389 24.753 30.3754C23.2611 30.3754 21.8304 29.7828 20.7755 28.7279C19.7206 27.673 19.128 26.2423 19.128 24.7504C19.128 23.2586 19.7206 21.8278 20.7755 20.773C21.8304 19.7181 23.2611 19.1254 24.753 19.1254L24.7511 19.1273ZM34.5948 12.5648C33.9899 12.589 33.4179 12.8463 32.9985 13.2829C32.579 13.7194 32.3448 14.3013 32.3448 14.9067C32.3448 15.5121 32.579 16.0939 32.9985 16.5305C33.4179 16.967 33.9899 17.2243 34.5948 17.2486C35.2164 17.2486 35.8126 17.0016 36.2521 16.5621C36.6917 16.1226 36.9386 15.5264 36.9386 14.9048C36.9386 14.2832 36.6917 13.6871 36.2521 13.2475C35.8126 12.808 35.2164 12.5611 34.5948 12.5611V12.5648Z" fill="white"/>
</svg>
