<svg xmlns="http://www.w3.org/2000/svg" width="50" height="50" viewBox="0 0 50 50" fill="none">
  <path d="M39.6667 7C40.7496 7 41.7882 7.43021 42.554 8.19598C43.3198 8.96175 43.75 10.0004 43.75 11.0833V39.6667C43.75 40.7496 43.3198 41.7882 42.554 42.554C41.7882 43.3198 40.7496 43.75 39.6667 43.75H11.0833C10.0004 43.75 8.96175 43.3198 8.19598 42.554C7.43021 41.7882 7 40.7496 7 39.6667V11.0833C7 10.0004 7.43021 8.96175 8.19598 8.19598C8.96175 7.43021 10.0004 7 11.0833 7H39.6667ZM38.6458 38.6458V27.825C38.6458 26.0598 37.9446 24.3668 36.6964 23.1186C35.4482 21.8704 33.7552 21.1692 31.99 21.1692C30.2546 21.1692 28.2333 22.2308 27.2533 23.8233V21.5571H21.5571V38.6458H27.2533V28.5804C27.2533 27.0083 28.5192 25.7221 30.0913 25.7221C30.8493 25.7221 31.5764 26.0232 32.1124 26.5593C32.6484 27.0953 32.9496 27.8223 32.9496 28.5804V38.6458H38.6458ZM14.9217 18.3517C15.8314 18.3517 16.7038 17.9903 17.347 17.347C17.9903 16.7038 18.3517 15.8314 18.3517 14.9217C18.3517 13.0229 16.8204 11.4713 14.9217 11.4713C14.0066 11.4713 13.1289 11.8348 12.4819 12.4819C11.8348 13.1289 11.4713 14.0066 11.4713 14.9217C11.4713 16.8204 13.0229 18.3517 14.9217 18.3517ZM17.7596 38.6458V21.5571H12.1042V38.6458H17.7596Z" fill="white"/>
</svg>
