<svg width="49" height="49" viewBox="0 0 49 49" fill="none" xmlns="http://www.w3.org/2000/svg">
<path d="M24.4987 4.08325C16.5974 4.08325 10.207 10.4737 10.207 18.3749C10.207 29.0937 24.4987 44.9166 24.4987 44.9166C24.4987 44.9166 38.7904 29.0937 38.7904 18.3749C38.7904 10.4737 32.3999 4.08325 24.4987 4.08325ZM24.4987 23.4791C23.145 23.4791 21.8467 22.9413 20.8895 21.9841C19.9323 21.0269 19.3945 19.7286 19.3945 18.3749C19.3945 17.0212 19.9323 15.7229 20.8895 14.7657C21.8467 13.8085 23.145 13.2708 24.4987 13.2708C25.8524 13.2708 27.1507 13.8085 28.1079 14.7657C29.0651 15.7229 29.6029 17.0212 29.6029 18.3749C29.6029 19.7286 29.0651 21.0269 28.1079 21.9841C27.1507 22.9413 25.8524 23.4791 24.4987 23.4791Z" fill="#494D4D"/>
</svg>
