<svg xmlns="http://www.w3.org/2000/svg" width="47" height="47" viewBox="0 0 47 47" fill="none">
  <path d="M10.3333 36.6667C9.41667 36.6667 8.63167 36.34 7.97834 35.6867C7.325 35.0333 6.99889 34.2489 7 33.3333V13.3333C7 12.4167 7.32667 11.6317 7.98 10.9783C8.63334 10.325 9.41778 9.99889 10.3333 10H37C37.9167 10 38.7017 10.3267 39.355 10.98C40.0083 11.6333 40.3344 12.4178 40.3333 13.3333V33.3333C40.3333 34.25 40.0067 35.035 39.3533 35.6883C38.7 36.3417 37.9156 36.6678 37 36.6667H10.3333ZM23.6667 25L10.3333 16.6667V33.3333H37V16.6667L23.6667 25ZM23.6667 21.6667L37 13.3333H10.3333L23.6667 21.6667ZM10.3333 16.6667V13.3333V33.3333V16.6667Z" fill="#30767E"/>
</svg>
