<svg width="64" height="64" viewBox="0 0 64 64" fill="none" xmlns="http://www.w3.org/2000/svg">
<path d="M31.9987 5.33325C21.6787 5.33325 13.332 13.6799 13.332 23.9999C13.332 37.9999 31.9987 58.6666 31.9987 58.6666C31.9987 58.6666 50.6654 37.9999 50.6654 23.9999C50.6654 13.6799 42.3187 5.33325 31.9987 5.33325ZM31.9987 30.6666C30.2306 30.6666 28.5349 29.9642 27.2847 28.714C26.0344 27.4637 25.332 25.768 25.332 23.9999C25.332 22.2318 26.0344 20.5361 27.2847 19.2859C28.5349 18.0356 30.2306 17.3333 31.9987 17.3333C33.7668 17.3333 35.4625 18.0356 36.7127 19.2859C37.963 20.5361 38.6654 22.2318 38.6654 23.9999C38.6654 25.768 37.963 27.4637 36.7127 28.714C35.4625 29.9642 33.7668 30.6666 31.9987 30.6666Z" fill="#3FB7C5"/>
</svg>
