<?xml version="1.0" encoding="utf-8"?><svg viewBox="0 0 688 451" xmlns="http://www.w3.org/2000/svg" xmlns:xlink="http://www.w3.org/1999/xlink"><style>:root>svg{display:none}:root>svg:target{display:block}</style><svg fill="none" viewBox="0 0 50 23" id="arrow" xmlns="http://www.w3.org/2000/svg"><path d="M49.56 12.56a1.5 1.5 0 000-2.12L40.016.892a1.5 1.5 0 10-2.122 2.122L46.38 11.5l-8.486 8.485a1.5 1.5 0 102.122 2.122l9.546-9.546zM.5 13h48v-3H.5v3z" fill="#fff"/></svg><svg fill="none" viewBox="0 0 688 299" id="big-location-marks" xmlns="http://www.w3.org/2000/svg"><g clip-path="url(#ba)" fill="#3FB7C5"><path d="M431.48-57.751c-114.648 0-207.375 92.726-207.375 207.375 0 155.531 207.375 385.125 207.375 385.125s207.375-229.594 207.375-385.125c0-114.649-92.726-207.375-207.375-207.375zm0 281.437a74.066 74.066 0 01-52.37-21.692 74.066 74.066 0 010-104.74 74.064 74.064 0 01126.433 52.37 74.066 74.066 0 01-21.692 52.37 74.066 74.066 0 01-52.371 21.692zM111.993 71.666c-36.12 0-65.333 29.214-65.333 65.334 0 49 65.333 121.333 65.333 121.333S177.327 186 177.327 137c0-36.12-29.214-65.334-65.334-65.334zm0 88.667A23.332 23.332 0 0195.494 120.5a23.336 23.336 0 0132.999 0 23.338 23.338 0 010 32.999 23.334 23.334 0 01-16.5 6.834z"/></g><defs><clipPath id="ba"><path fill="#fff" d="M0 0h688v299H0z"/></clipPath></defs></svg><svg fill="none" viewBox="0 0 330 200" id="big-location-marks-mobile" xmlns="http://www.w3.org/2000/svg"><g clip-path="url(#ca)" fill="#3FB7C5"><path d="M221.444 16.255c-58.839 0-106.428 47.759-106.428 106.809 0 80.106 106.428 198.358 106.428 198.358S327.873 203.17 327.873 123.064c0-59.05-47.589-106.809-106.429-106.809zm0 144.955a37.942 37.942 0 01-26.877-11.173 38.216 38.216 0 01-11.133-26.973 38.217 38.217 0 0111.133-26.974 37.942 37.942 0 0126.877-11.172 37.943 37.943 0 0126.878 11.172 38.217 38.217 0 0111.133 26.974 38.216 38.216 0 01-11.133 26.973 37.942 37.942 0 01-26.878 11.173zM57.476 82.912c-18.538 0-33.53 15.046-33.53 33.65 0 25.237 33.53 62.492 33.53 62.492s33.53-37.255 33.53-62.492c0-18.604-14.993-33.65-33.53-33.65zm0 45.667a11.952 11.952 0 01-8.468-3.52 12.037 12.037 0 01-3.508-8.497c0-3.188 1.262-6.245 3.508-8.498a11.952 11.952 0 018.468-3.52 11.95 11.95 0 018.467 3.52 12.037 12.037 0 013.508 8.498c0 3.187-1.262 6.244-3.508 8.497a11.953 11.953 0 01-8.467 3.52z"/></g><defs><clipPath id="ca"><path fill="#fff" d="M0 0h330v200H0z"/></clipPath></defs></svg><svg fill="none" viewBox="0 0 381 12" id="decor" xmlns="http://www.w3.org/2000/svg"><path d="M371 5l10-4.774v11.547L371 7V5zM.227 6L6 .226 11.774 6 6 11.774.227 6zM372 7H6V5h366v2z" fill="#30767E"/></svg><svg fill="none" viewBox="0 0 381 12" id="decor-2" xmlns="http://www.w3.org/2000/svg"><path d="M10 5L0 .226v11.547L10 7V5zm370.773 1L375 .226 369.227 6 375 11.774 380.773 6zM9 7h366V5H9v2z" fill="#30767E"/></svg><svg fill="none" viewBox="0 0 431 451" id="hearts" xmlns="http://www.w3.org/2000/svg"><g clip-path="url(#fa)" fill="#3FB7C5"><path d="M406.688 276.836c0 106.367-157.713 192.464-164.429 196.019a12.148 12.148 0 01-11.518 0c-6.716-3.555-164.429-89.652-164.429-196.019a94.317 94.317 0 0194.211-94.211c31.379 0 58.852 13.493 75.977 36.302 17.125-22.809 44.598-36.302 75.977-36.302a94.317 94.317 0 0194.211 94.211zM187 67.591c0 37.926-56.065 68.624-58.453 69.892a4.314 4.314 0 01-4.094 0C122.065 136.215 66 105.517 66 67.591a33.68 33.68 0 019.82-23.741A33.478 33.478 0 0199.491 34c11.155 0 20.921 4.811 27.009 12.944C132.588 38.81 142.354 34 153.509 34a33.48 33.48 0 0123.671 9.85A33.683 33.683 0 01187 67.59z"/></g><defs><clipPath id="fa"><rect width="431" height="451" rx="20" fill="#fff"/></clipPath></defs></svg></svg>